<svg xmlns="http://www.w3.org/2000/svg" xmlns:xlink="http://www.w3.org/1999/xlink" width="794" zoomAndPan="magnify" viewBox="0 0 594.95996 842.24997" height="1123" preserveAspectRatio="xMidYMid meet" version="1.0"><defs><clipPath id="978f436079"><path d="M 98 343 L 414.394531 343 L 414.394531 688.847656 L 98 688.847656 Z M 98 343 " clip-rule="nonzero"/></clipPath><clipPath id="b2cb08f956"><path d="M 166 542.085938 L 195.488281 542.085938 L 195.488281 688.847656 L 166 688.847656 Z M 166 542.085938 " clip-rule="nonzero"/></clipPath><clipPath id="754d66b3dc"><path d="M 483 270.832031 L 571.628906 270.832031 L 571.628906 346.871094 L 483 346.871094 Z M 483 270.832031 " clip-rule="nonzero"/></clipPath></defs><path fill="#eb8e6c" d="M 222.925781 336.902344 C 224.765625 321.898438 223.390625 305.433594 226.605469 292.480469 C 234.269531 261.539062 278.675781 245.738281 291.804688 256.582031 C 299.695312 263.105469 286.191406 297.714844 293.28125 325.539062 C 301.945312 359.597656 324.484375 348.421875 332.085938 353.136719 C 342.742188 359.738281 317.589844 373.699219 304.816406 382.046875 C 286.855469 393.789062 250.175781 437.722656 232.429688 429.507812 C 201.90625 415.378906 198.800781 385.890625 203.664062 380.886719 C 207.351562 377.085938 219.925781 361.398438 222.925781 336.902344 " fill-opacity="1" fill-rule="nonzero"/><path fill="#c36252" d="M 268.40625 325.136719 C 281.199219 317.410156 288.554688 301.621094 291.347656 299.195312 C 291.769531 299.824219 290.949219 305.132812 291.144531 305.828125 C 288.40625 315.578125 271.410156 356.6875 217.605469 355.734375 C 220.601562 351.011719 222.265625 343.085938 222.925781 336.902344 C 243.050781 336.785156 257.640625 331.632812 268.40625 325.136719 " fill-opacity="1" fill-rule="nonzero"/><path fill="#eb8e6c" d="M 205.757812 191.507812 C 224.054688 180.050781 244.351562 185.492188 249.691406 187.148438 C 272.796875 194.324219 284.058594 213.917969 288.53125 221.703125 C 304.226562 249.027344 299.375 276.222656 297.980469 283.40625 C 293.597656 305.976562 259.210938 354.160156 226.207031 342.363281 C 215.042969 338.375 208.09375 331.808594 201.6875 321.03125 C 193.152344 306.664062 194.292969 293.175781 190.605469 279.875 C 186.191406 263.945312 184.570312 251.851562 184.5 243.886719 C 184.457031 238.476562 181.042969 206.984375 205.757812 191.507812 " fill-opacity="1" fill-rule="nonzero"/><path fill="#49302a" d="M 223.636719 259.574219 C 227.257812 258.242188 230.984375 257.167969 234.742188 256.367188 C 240.71875 255.097656 246.839844 254.496094 252.972656 254.585938 C 254.503906 254.609375 255.722656 255.886719 255.644531 257.414062 C 255.574219 258.855469 254.382812 259.996094 252.945312 259.972656 C 247.191406 259.882812 241.457031 260.441406 235.863281 261.636719 C 232.339844 262.382812 228.851562 263.390625 225.457031 264.640625 C 224.105469 265.136719 222.601562 264.453125 222.0625 263.121094 C 221.492188 261.707031 222.203125 260.097656 223.636719 259.574219 " fill-opacity="1" fill-rule="nonzero"/><path fill="#c36252" d="M 212.542969 268.414062 C 213.28125 268.316406 213.941406 268.785156 214.003906 269.464844 C 214.457031 274.292969 214.628906 279.214844 214.523438 284.097656 C 214.476562 286.441406 214.371094 288.421875 214.28125 290.167969 C 214.027344 295.027344 213.898438 297.46875 215.363281 298.8125 C 217.164062 300.464844 221.179688 300.242188 226.75 298.207031 C 227.429688 297.957031 228.171875 298.246094 228.429688 298.847656 L 228.429688 298.855469 C 228.699219 299.492188 228.320312 300.234375 227.605469 300.496094 C 226.523438 300.890625 225.496094 301.222656 224.519531 301.492188 C 219.359375 302.921875 215.636719 302.625 213.425781 300.597656 C 211.171875 298.527344 211.332031 295.558594 211.609375 290.175781 C 211.699219 288.445312 211.804688 286.484375 211.851562 284.179688 C 211.953125 279.375 211.777344 274.539062 211.339844 269.796875 C 211.277344 269.128906 211.816406 268.511719 212.542969 268.414062 " fill-opacity="1" fill-rule="nonzero"/><path fill="#49302a" d="M 235.925781 263.808594 C 237.996094 263.457031 240.121094 265.792969 240.667969 269.027344 C 241.214844 272.261719 239.984375 275.167969 237.910156 275.519531 C 235.835938 275.871094 233.714844 273.535156 233.164062 270.300781 C 232.617188 267.066406 233.851562 264.164062 235.925781 263.808594 " fill-opacity="1" fill-rule="nonzero"/><path fill="#49302a" d="M 201.433594 269.871094 C 203.507812 269.523438 205.628906 271.859375 206.179688 275.089844 C 206.726562 278.328125 205.492188 281.230469 203.421875 281.585938 C 201.347656 281.9375 199.226562 279.597656 198.679688 276.367188 C 198.128906 273.132812 199.363281 270.226562 201.433594 269.871094 " fill-opacity="1" fill-rule="nonzero"/><path fill="#49302a" d="M 189.480469 264.203125 C 192.8125 263.421875 196.207031 262.90625 199.605469 262.671875 C 202.203125 262.492188 204.785156 262.476562 207.304688 262.628906 C 208.5625 262.707031 209.585938 264.03125 209.558594 265.542969 C 209.539062 266.976562 208.574219 268.054688 207.382812 267.984375 C 205.019531 267.84375 202.59375 267.855469 200.148438 268.023438 C 196.929688 268.246094 193.710938 268.734375 190.550781 269.476562 C 189.398438 269.753906 188.222656 268.832031 187.886719 267.425781 C 187.53125 265.941406 188.257812 264.492188 189.480469 264.203125 " fill-opacity="1" fill-rule="nonzero"/><path fill="#c36252" d="M 211.9375 314.722656 L 215.351562 314.453125 C 220.269531 314.078125 225.1875 313.238281 229.964844 311.976562 L 236.175781 310.335938 C 237.585938 309.964844 238.808594 310.761719 238.332031 311.738281 C 236.902344 314.648438 230.40625 319.09375 223.84375 320.265625 C 217.320312 321.429688 212.730469 318.992188 210.351562 316.78125 C 209.542969 316.035156 210.464844 314.835938 211.9375 314.722656 " fill-opacity="1" fill-rule="nonzero"/><path fill="#dd8064" d="M 253.742188 276.65625 C 259.03125 275.046875 264.136719 276.425781 265.140625 279.738281 C 266.148438 283.046875 262.671875 287.035156 257.378906 288.644531 C 252.089844 290.25 246.984375 288.871094 245.980469 285.5625 C 244.972656 282.25 248.445312 278.265625 253.742188 276.65625 " fill-opacity="1" fill-rule="nonzero"/><path fill="#1c2546" d="M 206.308594 184.40625 C 292.4375 152.390625 334.984375 192.128906 322.265625 254.578125 C 319.558594 267.878906 304.417969 298.394531 291.347656 299.195312 C 287.3125 299.449219 305.96875 254.144531 297.859375 249.039062 C 294.449219 246.894531 283.070312 249.554688 279.425781 254.578125 C 273.601562 262.589844 278.230469 270.113281 276.730469 270.988281 C 268.65625 275.730469 267.441406 268.402344 267.847656 245.925781 C 268.097656 231.90625 265.273438 226.207031 259.714844 224.726562 C 251.507812 222.535156 229.328125 231.488281 219.925781 233.78125 C 199.414062 238.777344 184.65625 250.203125 169.160156 226.011719 C 147.152344 191.640625 165.5625 199.546875 206.308594 184.40625 " fill-opacity="1" fill-rule="nonzero"/><path fill="#eb8e6c" d="M 293.328125 246.777344 C 299.09375 247.398438 302.855469 255.703125 303.953125 261.144531 C 306.566406 274.140625 297.65625 289.289062 291.3125 288.550781 C 284.257812 287.726562 276.550781 266.804688 282.832031 254.625 C 283.050781 254.195312 287.339844 246.136719 293.328125 246.777344 " fill-opacity="1" fill-rule="nonzero"/><path fill="#c36252" d="M 291.5 277.011719 C 291.308594 277.304688 291.171875 277.515625 291.171875 277.515625 C 291.171875 277.488281 291.300781 277.304688 291.5 277.011719 " fill-opacity="1" fill-rule="nonzero"/><path fill="#c36252" d="M 288 260.367188 C 290.84375 258.960938 294.105469 260.273438 295.730469 262.226562 C 298.566406 265.632812 297.445312 271.632812 295.617188 275.730469 C 294.859375 277.4375 293.382812 280.152344 291.550781 280.464844 C 291.355469 280.496094 289.199219 280.601562 291.175781 277.515625 C 291.339844 277.265625 291.46875 277.058594 291.601562 276.855469 C 291.730469 276.660156 291.882812 276.421875 292.050781 276.148438 C 293.0625 274.566406 292.640625 275.234375 292.078125 276.101562 C 292.839844 274.867188 293.878906 272.957031 294.363281 270.792969 C 295.023438 267.855469 294.808594 265.449219 293.769531 264.199219 C 292.808594 263.050781 290.78125 262.300781 289.171875 263.097656 C 287.992188 263.679688 287.179688 264.976562 286.9375 266.566406 C 286.832031 267.269531 286.332031 267.804688 285.679688 267.8125 C 284.820312 267.816406 284.136719 266.949219 284.273438 266.019531 C 284.644531 263.476562 286.007812 261.351562 288 260.367188 " fill-opacity="1" fill-rule="nonzero"/><path fill="#c36252" d="M 291.601562 276.855469 C 291.558594 276.914062 291.53125 276.960938 291.5 277.011719 C 291.667969 276.746094 291.878906 276.410156 292.078125 276.101562 C 292.070312 276.113281 292.0625 276.136719 292.050781 276.148438 C 291.921875 276.34375 291.773438 276.585938 291.601562 276.855469 " fill-opacity="1" fill-rule="nonzero"/><path fill="#c36252" d="M 295.726562 286.519531 L 295.722656 286.519531 Z M 282.28125 255.367188 C 281.976562 256.164062 282.371094 257.101562 283.132812 257.386719 C 283.792969 257.640625 284.503906 257.3125 284.769531 256.621094 C 285.503906 254.714844 287.03125 251.914062 289.960938 250.597656 C 290.792969 250.222656 292.734375 249.351562 294.855469 250.140625 C 296.851562 250.878906 297.957031 252.707031 298.765625 254.046875 C 300.8125 257.421875 301.785156 261.535156 301.667969 266.265625 C 301.441406 275.058594 297.425781 282.769531 294.835938 283.671875 C 294.027344 283.953125 293.875 284.730469 293.691406 285.628906 C 293.199219 288.066406 292.425781 290.382812 290.097656 290.777344 C 288.933594 290.976562 288.40625 290.753906 287.859375 288.941406 C 287.628906 288.191406 286.929688 287.726562 286.242188 287.894531 L 286.238281 287.894531 C 285.472656 288.082031 285.039062 288.953125 285.296875 289.789062 C 285.933594 291.894531 287.222656 294.296875 290.597656 293.722656 C 295 292.976562 295.964844 288.179688 296.328125 286.371094 C 296.335938 286.324219 296.34375 286.28125 296.355469 286.234375 C 300.070312 284.210938 304.125 275.769531 304.363281 266.445312 C 304.53125 259.761719 302.628906 255.144531 300.996094 252.449219 C 300.082031 250.933594 298.542969 248.394531 295.636719 247.316406 C 292.558594 246.175781 289.882812 247.378906 288.871094 247.828125 C 285.121094 249.515625 283.195312 253.003906 282.28125 255.367188 " fill-opacity="1" fill-rule="nonzero"/><path fill="#c36252" d="M 288.4375 267.671875 C 289.996094 268.820312 290.261719 270.988281 290.390625 272.054688 C 290.679688 274.386719 290.0625 276.667969 289.65625 276.640625 C 289.105469 276.613281 289.769531 272.460938 287.328125 269.628906 C 286.0625 268.164062 284.640625 267.832031 284.746094 267.371094 C 284.871094 266.839844 286.949219 266.578125 288.4375 267.671875 " fill-opacity="1" fill-rule="nonzero"/><path fill="#ebf1ff" d="M 196.988281 496.226562 C 196.660156 499.695312 195.667969 509.9375 198.449219 510.824219 C 202.707031 512.183594 211.9375 490.273438 223.976562 469.953125 C 241.933594 439.628906 257.585938 427.25 272.113281 410.105469 C 286.136719 393.550781 296.4375 376.089844 308.582031 338.613281 C 304.792969 333.828125 298.597656 325.125 297.449219 329.253906 C 293.058594 345.066406 274.714844 366.253906 247.703125 372.152344 C 225.824219 376.929688 222.972656 335.828125 201.914062 343.132812 C 201.410156 364.320312 200.285156 381.957031 199.179688 395.507812 C 196.441406 428.980469 200.109375 462.792969 196.988281 496.226562 " fill-opacity="1" fill-rule="nonzero"/><path fill="#1f46b5" d="M 232.085938 383.621094 C 229.53125 383.339844 227.058594 386.902344 222.488281 395.480469 C 204.679688 428.898438 200.472656 449.140625 200.472656 449.140625 C 198.097656 460.582031 184.023438 528.28125 195.957031 532.175781 C 206.359375 535.566406 237.347656 490.773438 241.679688 441.800781 C 243.945312 416.203125 239.378906 384.417969 232.085938 383.621094 " fill-opacity="1" fill-rule="nonzero"/><path fill="#1332a3" d="M 232.085938 383.621094 C 229.53125 383.339844 227.058594 386.902344 222.488281 395.480469 C 221.722656 396.921875 220.984375 398.328125 220.269531 399.71875 C 221.332031 398.9375 222.3125 398.605469 223.304688 398.699219 C 231.910156 399.496094 237.308594 431.285156 234.632812 456.878906 C 231.871094 483.332031 219.921875 508.5625 207.582031 525.640625 C 220.820312 511.703125 238.488281 477.886719 241.679688 441.800781 C 243.945312 416.203125 239.378906 384.417969 232.085938 383.621094 " fill-opacity="1" fill-rule="nonzero"/><path fill="#1f46b5" d="M 218.535156 376.84375 C 218.390625 383.085938 222.453125 387.070312 227.570312 392.09375 C 230.476562 394.949219 233.28125 397.621094 236.597656 397.171875 C 238.640625 396.898438 240.257812 395.535156 242.8125 392.09375 C 249.21875 383.441406 252.421875 379.121094 251.277344 374.019531 C 249.367188 365.503906 236.351562 358.566406 227.003906 363.285156 C 222.019531 365.804688 218.664062 371.335938 218.535156 376.84375 " fill-opacity="1" fill-rule="nonzero"/><path fill="#1332a3" d="M 251.277344 374.019531 C 249.367188 365.503906 236.351562 358.566406 227.003906 363.285156 C 222.019531 365.804688 218.664062 371.335938 218.535156 376.84375 C 218.4375 381.039062 220.25 384.21875 223 387.378906 C 224.234375 386.980469 225.691406 386.347656 227.136719 385.292969 C 233.855469 380.375 233.800781 371.117188 236.375 371.179688 C 237.425781 371.207031 238.183594 372.769531 239.535156 375.5625 C 240.777344 378.128906 241.628906 381.066406 241.726562 382.859375 C 241.957031 387.175781 238.230469 392.277344 232.074219 395.957031 C 233.507812 396.871094 234.992188 397.390625 236.597656 397.171875 C 238.640625 396.898438 240.257812 395.535156 242.8125 392.09375 C 249.21875 383.441406 252.421875 379.121094 251.277344 374.019531 " fill-opacity="1" fill-rule="nonzero"/><path fill="#ffffff" d="M 235.972656 361.753906 C 242.054688 360.839844 269.195312 355.753906 295.722656 324.9375 C 299.011719 321.113281 309.675781 331.355469 311.113281 334.476562 C 314.96875 342.863281 277.804688 408.996094 262.566406 404.519531 C 259.933594 403.742188 256.105469 397.414062 248.457031 384.746094 C 239.367188 369.714844 233.253906 362.164062 235.972656 361.753906 " fill-opacity="1" fill-rule="nonzero"/><g clip-path="url(#978f436079)"><path fill="#081c5e" d="M 413.566406 409.320312 C 409.964844 400.75 394.242188 390.140625 387.316406 384.746094 C 379.8125 378.90625 349.058594 361.753906 330.585938 352.550781 C 322.96875 348.757812 317.457031 344.457031 316.605469 343.378906 C 304.460938 380.859375 286.136719 393.550781 272.113281 410.105469 C 257.585938 427.25 241.933594 439.628906 223.976562 469.953125 C 211.9375 490.273438 202.707031 512.183594 198.449219 510.824219 C 195.667969 509.9375 196.660156 499.695312 196.988281 496.226562 C 200.109375 462.792969 196.441406 428.980469 199.179688 395.507812 C 200.285156 381.957031 201.410156 364.320312 201.914062 343.132812 C 201.074219 343.425781 200.222656 343.734375 199.34375 344.078125 C 190.066406 347.738281 191.285156 349.539062 180.714844 353.398438 C 167.304688 358.296875 160.5 357.15625 140.074219 362.722656 C 126.6875 366.367188 122.484375 368.789062 120.597656 372.886719 C 117.777344 379.019531 121.375 386.195312 122.289062 388.136719 C 126.410156 396.855469 127.011719 422.753906 128.21875 474.558594 C 128.988281 507.609375 111.449219 612.769531 98.25 688.9375 L 368.785156 688.9375 C 365.4375 639.292969 363.140625 565.421875 368.6875 532.351562 C 370.589844 521.011719 344.480469 569.175781 349.214844 547.421875 C 353.957031 525.640625 357.695312 527.304688 369.535156 491.503906 C 382.359375 452.742188 378.460938 449.332031 388.164062 437.277344 C 397.21875 426.035156 417.359375 418.339844 413.566406 409.320312 " fill-opacity="1" fill-rule="nonzero"/></g><path fill="#eb8e6c" d="M 149.71875 571.722656 C 147.714844 569.734375 143.945312 566.609375 139.296875 563.816406 C 131.625 559.210938 129.710938 560.410156 121.683594 555.527344 C 119.574219 554.242188 117.472656 552.800781 114.164062 552.144531 C 112.804688 551.875 112.539062 551.996094 107.664062 551.367188 C 104.804688 551 103.359375 550.808594 102.675781 550.550781 C 99.765625 549.449219 99.097656 547.839844 97.113281 548.066406 C 95.992188 548.191406 95.070312 548.839844 94.316406 549.367188 C 93.371094 550.027344 92.546875 550.609375 92.195312 551.558594 C 91.378906 553.765625 93.699219 556.324219 93.925781 556.566406 C 96.070312 558.875 98.867188 558.921875 98.800781 559.4375 C 98.730469 560.015625 95.277344 559.761719 90.570312 560.265625 C 87.285156 560.621094 84.660156 560.925781 81.550781 562.265625 C 78.503906 563.582031 76.804688 565.109375 75.261719 566.535156 C 73.257812 568.375 72.804688 569.390625 72.691406 570.339844 C 72.675781 570.425781 72.4375 572.648438 73.890625 573.921875 C 74.839844 574.75 76.074219 574.789062 78.339844 574.585938 C 83.339844 574.128906 86.878906 573.066406 87.011719 573.417969 C 87.128906 573.738281 84.152344 574.417969 82.382812 577.109375 C 81.390625 578.625 81.183594 580.167969 81.089844 580.921875 C 80.914062 582.328125 80.65625 584.382812 81.789062 585.871094 C 83.296875 587.851562 86.011719 587.191406 86.371094 588.546875 C 86.652344 589.589844 85.058594 590.03125 84.292969 592.253906 C 83.523438 594.488281 84.214844 596.675781 84.648438 598.039062 C 85.171875 599.695312 85.460938 600.59375 86.289062 601.277344 C 88.804688 603.347656 93.558594 601.222656 93.777344 601.867188 C 93.929688 602.335938 91.285156 602.898438 90.328125 605.078125 C 89.472656 607.019531 90.433594 609.160156 90.734375 609.832031 C 90.90625 610.207031 91.988281 612.519531 94.527344 613.675781 C 96.816406 614.710938 98.238281 613.886719 103.390625 613.488281 C 103.390625 613.488281 106.761719 613.226562 110.488281 613.386719 C 115.449219 613.605469 119.082031 614.660156 120.460938 615.023438 C 128.375 617.097656 148.609375 622.402344 156.824219 615.109375 C 165.902344 607.054688 161.0625 582.957031 149.71875 571.722656 " fill-opacity="1" fill-rule="nonzero"/><path fill="#c36252" d="M 98.804688 559.40625 C 98.875 558.914062 99.308594 558.5625 99.800781 558.601562 C 100.589844 558.664062 101.601562 558.714844 102.527344 558.757812 C 103.398438 558.796875 104.222656 558.839844 104.796875 558.886719 C 107.15625 559.082031 109.550781 559.15625 111.9375 559.109375 C 112.445312 559.097656 112.875 559.5 112.894531 560.011719 C 112.910156 560.535156 112.5 560.96875 111.980469 560.984375 C 109.535156 561.03125 107.066406 560.957031 104.644531 560.753906 C 104.097656 560.707031 103.292969 560.667969 102.4375 560.628906 C 101.457031 560.582031 100.460938 560.53125 99.65625 560.46875 C 99.113281 560.425781 98.730469 559.9375 98.804688 559.40625 " fill-opacity="1" fill-rule="nonzero"/><path fill="#c36252" d="M 87.011719 573.410156 C 86.953125 572.902344 87.3125 572.441406 87.820312 572.375 C 87.984375 572.351562 88.15625 572.328125 88.339844 572.308594 C 89.996094 572.09375 92.054688 571.824219 93.199219 571.789062 C 95.746094 571.703125 98.324219 571.800781 100.878906 572.082031 C 101.390625 572.136719 101.757812 572.613281 101.691406 573.132812 C 101.628906 573.640625 101.171875 573.996094 100.660156 573.941406 C 98.203125 573.671875 95.714844 573.578125 93.261719 573.660156 C 92.210938 573.695312 90.109375 573.964844 88.582031 574.164062 C 88.402344 574.1875 88.222656 574.207031 88.058594 574.230469 C 87.542969 574.296875 87.066406 573.929688 87.011719 573.410156 " fill-opacity="1" fill-rule="nonzero"/><path fill="#c36252" d="M 86.371094 588.527344 C 86.300781 588.027344 86.640625 587.5625 87.136719 587.476562 C 87.699219 587.382812 88.347656 587.265625 89.019531 587.140625 C 90.8125 586.816406 92.839844 586.449219 94.1875 586.34375 C 96.148438 586.1875 98.140625 586.09375 100.117188 586.054688 C 100.632812 586.046875 101.0625 586.460938 101.066406 586.984375 C 101.074219 587.5 100.660156 587.917969 100.148438 587.925781 C 98.210938 587.964844 96.261719 588.058594 94.332031 588.210938 C 93.085938 588.308594 91.105469 588.664062 89.359375 588.984375 C 88.679688 589.109375 88.027344 589.230469 87.457031 589.320312 C 86.933594 589.410156 86.441406 589.054688 86.371094 588.527344 " fill-opacity="1" fill-rule="nonzero"/><path fill="#c36252" d="M 93.777344 601.867188 C 93.679688 601.359375 94.011719 600.867188 94.515625 600.769531 L 101.988281 599.324219 C 102.5 599.226562 102.988281 599.558594 103.085938 600.070312 C 103.179688 600.574219 102.855469 601.066406 102.34375 601.164062 L 94.871094 602.609375 C 94.363281 602.707031 93.871094 602.375 93.777344 601.867188 " fill-opacity="1" fill-rule="nonzero"/><g clip-path="url(#b2cb08f956)"><path fill="#05184c" d="M 173.761719 688.9375 C 178.496094 649.132812 187.789062 586.609375 195.195312 547.230469 C 195.566406 545.257812 194.265625 543.347656 192.292969 542.976562 C 191.335938 542.792969 190.367188 542.996094 189.558594 543.546875 C 188.753906 544.097656 188.207031 544.925781 188.027344 545.886719 C 180.53125 585.738281 171.421875 648.667969 166.597656 688.9375 L 173.761719 688.9375 " fill-opacity="1" fill-rule="nonzero"/></g><path fill="#05184c" d="M 169.027344 411.078125 L 180.699219 412.539062 L 166.597656 421.785156 C 166.597656 421.785156 168.324219 468.007812 191.21875 554.613281 C 192.125 558.046875 206.21875 523.878906 242.9375 485.035156 C 257.015625 470.148438 327.058594 411.078125 327.058594 411.078125 C 327.058594 411.078125 313.664062 396.214844 314.417969 395.023438 C 315.339844 393.554688 340.1875 402.808594 340.1875 402.808594 C 340.1875 402.808594 341.972656 379.410156 338.242188 364.367188 C 337.40625 361 336.53125 357.921875 335.671875 355.128906 C 333.898438 354.21875 332.191406 353.355469 330.585938 352.550781 C 322.96875 348.757812 317.457031 344.457031 316.605469 343.378906 C 304.460938 380.859375 286.136719 393.550781 272.113281 410.105469 C 257.585938 427.25 241.933594 439.628906 223.976562 469.953125 C 211.9375 490.273438 202.707031 512.183594 198.449219 510.824219 C 195.667969 509.9375 196.660156 499.695312 196.988281 496.226562 C 200.109375 462.792969 196.441406 428.980469 199.179688 395.507812 C 200.285156 381.957031 201.410156 364.320312 201.914062 343.132812 C 201.074219 343.425781 200.222656 343.734375 199.34375 344.078125 C 190.066406 347.738281 191.285156 349.539062 180.714844 353.398438 C 176.871094 354.804688 173.566406 355.710938 170.332031 356.421875 C 166.652344 392.34375 167.007812 409.378906 169.027344 411.078125 " fill-opacity="1" fill-rule="nonzero"/><path fill="#0d266d" d="M 192.574219 541.496094 C 192.574219 541.496094 195.015625 517.601562 201.886719 498.28125 C 214.601562 462.519531 232.070312 437.425781 260.308594 397.457031 C 286.527344 360.34375 295.75 345.832031 305.445312 328.175781 C 305.445312 328.175781 326.179688 342.554688 328.648438 348.433594 C 334 361.175781 331.65625 392.953125 331.65625 392.953125 C 331.65625 392.953125 304.484375 381.042969 300.953125 386.445312 C 298.332031 390.445312 316.96875 409.375 316.96875 409.375 C 316.96875 409.375 239.929688 472.03125 220.511719 499.976562 C 202.722656 525.582031 192.574219 541.496094 192.574219 541.496094 " fill-opacity="1" fill-rule="nonzero"/><path fill="#ffffff" d="M 235.972656 361.753906 C 238.726562 363.085938 231.382812 368.097656 227.003906 374.582031 C 217.941406 387.992188 217.804688 395.191406 214.019531 395.480469 C 208.738281 395.882812 203.816406 382.269531 203.292969 380.796875 C 200.21875 372.09375 202.644531 370.164062 200.472656 355.375 C 198.882812 344.53125 196.96875 341.386719 199.34375 337.867188 C 202.332031 333.433594 209.3125 332.539062 214.019531 333.351562 C 227.308594 335.625 221.234375 354.628906 235.972656 361.753906 " fill-opacity="1" fill-rule="nonzero"/><path fill="#0d266d" d="M 195.957031 532.175781 C 195.957031 532.175781 202.410156 511.371094 204.992188 476.820312 C 208.0625 435.699219 210.636719 409.601562 210.636719 409.601562 C 210.636719 409.601562 211.925781 396.488281 212.328125 376.84375 C 212.875 349.984375 210.886719 345.621094 207.808594 344.078125 C 202.347656 341.335938 192.558594 347.058594 188.054688 354.246094 C 185.097656 358.960938 179.988281 359.410156 179.117188 366.390625 C 176.320312 388.792969 175.632812 406.214844 175.632812 406.214844 C 175.632812 406.214844 190.890625 403.070312 192.003906 405.082031 C 193.136719 407.121094 173.941406 422.59375 173.941406 422.59375 C 173.941406 422.59375 169.941406 441.316406 185.632812 496.359375 C 192.574219 520.675781 195.957031 532.175781 195.957031 532.175781 " fill-opacity="1" fill-rule="nonzero"/><path fill="#051951" d="M 124.496094 369.550781 C 119.894531 369.40625 106.289062 391.515625 99.984375 404.738281 C 78.5 449.757812 73.539062 458.5625 67.210938 470.820312 C 43.628906 516.472656 78.6875 477.667969 80.800781 502.800781 C 81.445312 510.421875 79 531.515625 89.269531 550.8125 C 91.675781 555.335938 94.175781 558.746094 97.734375 559.285156 C 107.234375 560.726562 117.40625 540.707031 120.882812 533.867188 C 149.355469 477.816406 134.5 369.855469 124.496094 369.550781 " fill-opacity="1" fill-rule="nonzero"/><path fill="#eb8e6c" d="M 121.773438 412.660156 C 122.222656 408.058594 124.046875 407.289062 138.722656 385.523438 C 147.101562 373.097656 146.296875 373.667969 151.234375 366.738281 C 164.078125 348.730469 164.632812 351.730469 169.488281 342.734375 C 172.101562 337.890625 175.484375 330.460938 182.527344 322.90625 C 184.453125 320.839844 186.636719 318.78125 189.832031 318.207031 C 194.269531 317.410156 195.808594 320.359375 202.347656 322.382812 C 211.957031 325.359375 216.082031 321.296875 221.117188 325.511719 C 223.652344 327.640625 225.769531 331.320312 226.332031 332.296875 C 226.660156 332.867188 227.617188 334.574219 228.9375 338.035156 C 230.253906 341.484375 231.5625 345.695312 232.070312 348.472656 C 234.039062 359.273438 229.089844 369.550781 228.414062 370.914062 C 224.015625 379.851562 216.007812 387.316406 213.816406 386.046875 C 212.984375 385.5625 212.820312 383.710938 214.339844 363.347656 C 214.433594 362.0625 214.625 359.523438 213.03125 357.867188 C 211.007812 355.753906 206.6875 355.6875 204.429688 357.605469 C 202.675781 359.097656 202.960938 361.113281 202.347656 364.386719 C 200.746094 372.875 195.238281 378.507812 193.738281 380.042969 C 190.558594 383.296875 187.273438 384.960938 183.570312 386.824219 C 177.398438 389.945312 173.957031 390.097656 170.792969 393.871094 C 168.992188 396.023438 168.328125 398.105469 167.664062 400.136719 C 165.269531 407.480469 162.320312 414.648438 160.105469 422.050781 C 155.761719 436.542969 153.589844 443.785156 150.195312 445.011719 C 141.125 448.28125 120.140625 429.292969 121.773438 412.660156 " fill-opacity="1" fill-rule="nonzero"/><path fill="#d86c56" d="M 221.867188 380.503906 C 221.566406 380.378906 221.402344 380.0625 221.476562 379.746094 C 222.429688 375.882812 225.222656 355.972656 224.519531 353.640625 C 224.5 353.566406 224.453125 353.503906 224.40625 353.441406 C 218.460938 346.230469 207.714844 342.253906 205.355469 341.832031 C 203.171875 341.445312 195.550781 343.289062 193.300781 344.328125 C 193.011719 344.457031 192.679688 344.371094 192.492188 344.113281 L 192.480469 344.101562 C 192.234375 343.761719 192.359375 343.28125 192.746094 343.109375 C 195.417969 341.902344 203.082031 340.058594 205.589844 340.503906 C 208.171875 340.960938 219.269531 345.015625 225.550781 352.71875 C 227.035156 354.542969 223.738281 375.621094 222.761719 380.042969 C 222.675781 380.441406 222.25 380.664062 221.867188 380.503906 " fill-opacity="1" fill-rule="nonzero"/><path fill="#d86c56" d="M 230.074219 343.738281 C 229.941406 343.738281 229.8125 343.683594 229.65625 343.585938 L 229.652344 343.585938 C 229.640625 343.578125 229.617188 343.558594 229.585938 343.539062 C 229.511719 343.488281 229.421875 343.425781 229.324219 343.355469 L 229.328125 343.351562 C 227.699219 342.171875 220.816406 337.269531 218.742188 336.296875 C 212.976562 333.597656 207.679688 333.277344 202.5625 332.96875 C 199.972656 332.8125 197.328125 332.800781 194.691406 332.933594 C 194.332031 332.949219 194.019531 332.679688 194 332.320312 L 194 332.289062 C 193.976562 331.921875 194.261719 331.609375 194.625 331.585938 C 197.3125 331.453125 200.007812 331.464844 202.648438 331.625 C 207.644531 331.925781 213.3125 332.269531 219.316406 335.078125 C 220.367188 335.566406 222.558594 336.96875 225.847656 339.242188 C 228.558594 341.121094 229.765625 341.957031 230.304688 342.398438 C 230.382812 342.453125 230.425781 342.488281 230.441406 342.496094 L 230.433594 342.507812 C 230.734375 342.777344 230.734375 342.875 230.738281 343.039062 L 230.75 343.457031 L 230.378906 343.652344 C 230.261719 343.710938 230.167969 343.738281 230.074219 343.738281 " fill-opacity="1" fill-rule="nonzero"/><path fill="#d86c56" d="M 226.324219 332.320312 C 226.183594 332.648438 225.8125 332.808594 225.476562 332.675781 C 221.726562 331.207031 210.902344 327.675781 205.417969 327.226562 C 202.480469 326.992188 199.503906 327.050781 196.558594 327.40625 C 196.203125 327.449219 195.878906 327.199219 195.828125 326.84375 L 195.824219 326.816406 C 195.777344 326.449219 196.03125 326.109375 196.402344 326.066406 C 199.429688 325.699219 202.496094 325.640625 205.527344 325.882812 C 211.109375 326.339844 221.894531 329.8125 225.976562 331.425781 C 226.320312 331.558594 226.476562 331.949219 226.332031 332.289062 L 226.324219 332.320312 " fill-opacity="1" fill-rule="nonzero"/><path fill="#0d266d" d="M 131.46875 381.726562 C 107.648438 401.589844 61.980469 471.535156 52.570312 483.820312 C 42.757812 496.632812 38.988281 505.640625 35.640625 514.101562 C 33.570312 519.355469 23.175781 545.644531 36.773438 566.0625 C 43.269531 575.828125 52.859375 580.648438 56.527344 582.445312 C 61.113281 584.683594 68.605469 588.351562 77.417969 587.53125 C 88.480469 586.492188 96.324219 578.871094 102.25 572.277344 C 120.652344 551.816406 129.304688 531.566406 146.84375 493.203125 C 160.328125 463.722656 176.042969 414.800781 173.484375 411.636719 C 171.019531 408.582031 159.746094 406.3125 149.089844 397.222656 C 133.039062 383.53125 133.230469 380.265625 131.46875 381.726562 " fill-opacity="1" fill-rule="nonzero"/><path fill="#04174c" d="M 276.488281 583.808594 C 218.714844 634.605469 129.105469 611.679688 129.179688 623.769531 C 129.214844 629.984375 157.171875 641.816406 199.90625 650.222656 C 265.117188 663.050781 315.976562 665.953125 326.085938 663.359375 C 332.804688 661.636719 348.636719 641.15625 365.265625 616.0625 C 364.363281 584.003906 365.035156 554.117188 368.6875 532.351562 C 370.589844 521.011719 344.480469 569.175781 349.214844 547.421875 C 353.394531 528.222656 356.796875 527.230469 365.652344 502.75 C 359.503906 503.269531 353.667969 504.292969 348.695312 505.710938 C 311.0625 516.449219 313.699219 551.09375 276.488281 583.808594 " fill-opacity="1" fill-rule="nonzero"/><path fill="#0d266d" d="M 268.234375 564.832031 C 268.902344 555.25 274.867188 529.457031 282.324219 509.300781 C 296.164062 471.871094 303.644531 451.652344 322.964844 432.199219 C 324.65625 430.496094 342.28125 413.09375 367.839844 404.234375 C 372.261719 402.703125 380.375 400.234375 390.703125 400.847656 C 396.902344 401.21875 408.234375 401.890625 413.566406 409.320312 C 418.097656 415.632812 416.007812 424.019531 415.257812 428.804688 C 404.0625 500.570312 350.355469 600.792969 330.585938 620.289062 C 319.554688 631.171875 315.535156 632.070312 312.804688 632.148438 C 292.265625 632.746094 265.425781 604.957031 268.234375 564.832031 " fill-opacity="1" fill-rule="nonzero"/><path fill="#0d266d" d="M 142.613281 554.199219 C 132.804688 557.898438 118.085938 610.667969 129.179688 623.769531 C 132.976562 628.257812 303.429688 634.863281 312.804688 632.148438 C 323.914062 628.933594 324.714844 625.40625 328.046875 610.125 C 332.273438 590.75 313.429688 574.183594 298.410156 560.980469 C 292.421875 555.710938 293.46875 553.101562 285.972656 551.195312 C 280.722656 549.859375 155.253906 549.4375 142.613281 554.199219 " fill-opacity="1" fill-rule="nonzero"/><path fill="#04174c" d="M 280.863281 558.261719 C 292.722656 566.375 296.476562 579.261719 296.914062 579.0625 C 297.289062 578.890625 295.339844 568.578125 287.792969 558.992188 C 283 552.902344 277.214844 548.710938 271.597656 545.804688 C 271.21875 547.441406 270.871094 549.023438 270.550781 550.542969 C 267.738281 550.496094 264.617188 550.449219 261.253906 550.414062 C 265.355469 551.429688 269.398438 552.6875 273.210938 554.25 C 276.433594 555.570312 278.707031 556.785156 280.863281 558.261719 " fill-opacity="1" fill-rule="nonzero"/><path fill="#ff6c3c" d="M 458.734375 300.011719 C 455.261719 298.441406 452.738281 295.949219 451.164062 292.53125 C 449.585938 289.117188 449.710938 285.386719 451.527344 281.34375 C 453.144531 277.753906 455.757812 275.300781 459.363281 273.980469 C 462.96875 272.660156 466.59375 272.824219 470.238281 274.464844 C 473.824219 276.082031 476.289062 278.667969 477.636719 282.21875 C 478.976562 285.769531 478.839844 289.34375 477.226562 292.929688 C 475.429688 296.917969 472.738281 299.472656 469.152344 300.597656 C 465.566406 301.71875 462.09375 301.523438 458.734375 300.011719 Z M 459.234375 187.59375 C 461.671875 182.183594 465.875 177.484375 471.847656 173.496094 C 477.820312 169.507812 484.960938 167.195312 493.257812 166.550781 C 501.558594 165.910156 510.152344 167.589844 519.03125 171.59375 C 527.28125 175.316406 533.882812 180.121094 538.824219 186.019531 C 543.769531 191.914062 546.785156 198.257812 547.867188 205.050781 C 548.953125 211.84375 548.113281 218.316406 545.339844 224.464844 C 543.160156 229.308594 540.265625 233.105469 536.664062 235.863281 C 533.058594 238.625 529.304688 240.71875 525.410156 242.152344 C 521.515625 243.578125 514.65625 245.847656 504.835938 248.957031 C 502.105469 249.847656 499.855469 250.703125 498.085938 251.515625 C 496.316406 252.324219 494.898438 253.160156 493.824219 254.015625 C 492.757812 254.867188 491.816406 255.777344 491.003906 256.75 C 490.1875 257.714844 488.839844 259.457031 486.960938 261.964844 C 483.210938 267.398438 478.492188 268.835938 472.796875 266.269531 C 469.835938 264.933594 467.785156 262.839844 466.640625 259.996094 C 465.488281 257.148438 465.773438 253.816406 467.488281 250.003906 C 469.648438 245.214844 472.253906 241.40625 475.308594 238.574219 C 478.367188 235.734375 481.714844 233.546875 485.351562 232.003906 C 488.996094 230.457031 493.714844 228.796875 499.507812 227.027344 C 504.585938 225.480469 508.304688 224.261719 510.65625 223.371094 C 513.007812 222.480469 515.1875 221.285156 517.195312 219.792969 C 519.203125 218.296875 520.734375 216.382812 521.785156 214.050781 C 523.835938 209.492188 523.871094 204.886719 521.902344 200.226562 C 519.921875 195.570312 516.261719 192.03125 510.910156 189.617188 C 504.648438 186.792969 499.328125 186.296875 494.945312 188.125 C 490.558594 189.953125 485.960938 193.476562 481.144531 198.703125 C 476.3125 204.265625 471.1875 205.828125 465.785156 203.390625 C 462.59375 201.953125 460.410156 199.617188 459.234375 196.378906 C 458.058594 193.144531 458.058594 190.214844 459.234375 187.59375 " fill-opacity="1" fill-rule="nonzero"/><g clip-path="url(#754d66b3dc)"><path fill="#ff6c3c" d="M 485.601562 342.382812 C 484.039062 340.300781 483.347656 337.980469 483.527344 335.410156 C 483.710938 332.847656 485.011719 330.660156 487.429688 328.835938 C 489.582031 327.222656 491.949219 326.617188 494.542969 327.015625 C 497.132812 327.414062 499.246094 328.703125 500.886719 330.890625 C 502.503906 333.035156 503.125 335.398438 502.761719 337.964844 C 502.398438 340.53125 501.140625 342.625 498.996094 344.238281 C 496.605469 346.035156 494.15625 346.671875 491.640625 346.164062 C 489.125 345.652344 487.113281 344.394531 485.601562 342.382812 Z M 522.898438 275.285156 C 526.136719 272.851562 530.195312 271.429688 535.082031 271.007812 C 539.96875 270.589844 544.996094 271.558594 550.175781 273.910156 C 555.355469 276.261719 559.941406 280.097656 563.9375 285.417969 C 567.648438 290.363281 570.011719 295.414062 571.03125 300.570312 C 572.050781 305.730469 571.765625 310.519531 570.179688 314.9375 C 568.59375 319.363281 565.957031 322.953125 562.277344 325.71875 C 559.378906 327.902344 556.398438 329.21875 553.335938 329.683594 C 550.269531 330.144531 547.335938 330.164062 544.535156 329.738281 C 541.734375 329.308594 536.882812 328.402344 529.984375 327.027344 C 528.054688 326.660156 526.429688 326.429688 525.105469 326.332031 C 523.777344 326.234375 522.65625 326.265625 521.734375 326.425781 C 520.8125 326.585938 519.949219 326.820312 519.144531 327.128906 C 518.339844 327.445312 516.960938 328.039062 515.007812 328.921875 C 510.976562 330.9375 507.679688 330.238281 505.117188 326.828125 C 503.789062 325.054688 503.25 323.125 503.496094 321.042969 C 503.746094 318.964844 505.011719 317.0625 507.296875 315.347656 C 510.160156 313.191406 512.972656 311.773438 515.738281 311.085938 C 518.5 310.394531 521.222656 310.191406 523.910156 310.464844 C 526.59375 310.738281 529.964844 311.304688 534.015625 312.148438 C 537.5625 312.898438 540.1875 313.394531 541.886719 313.636719 C 543.589844 313.878906 545.285156 313.882812 546.976562 313.652344 C 548.671875 313.421875 550.21875 312.777344 551.613281 311.726562 C 554.34375 309.679688 555.878906 306.9375 556.230469 303.496094 C 556.578125 300.054688 555.550781 296.734375 553.148438 293.523438 C 550.332031 289.773438 547.3125 287.722656 544.085938 287.371094 C 540.863281 287.019531 536.953125 287.613281 532.347656 289.152344 C 527.621094 290.890625 524.046875 290.136719 521.613281 286.898438 C 520.179688 284.984375 519.640625 282.867188 520.003906 280.542969 C 520.363281 278.214844 521.328125 276.464844 522.898438 275.285156 " fill-opacity="1" fill-rule="nonzero"/></g><path fill="#ff6c3c" d="M 392.40625 282.023438 C 389.886719 281.367188 387.902344 279.984375 386.445312 277.867188 C 384.992188 275.746094 384.640625 273.222656 385.40625 270.289062 C 386.078125 267.6875 387.554688 265.734375 389.832031 264.429688 C 392.101562 263.125 394.5625 262.816406 397.207031 263.5 C 399.804688 264.175781 401.761719 265.632812 403.078125 267.867188 C 404.390625 270.101562 404.710938 272.523438 404.035156 275.125 C 403.289062 278.015625 401.769531 280.046875 399.484375 281.21875 C 397.203125 282.382812 394.839844 282.652344 392.40625 282.023438 Z M 379.789062 206.292969 C 380.808594 202.371094 383.097656 198.722656 386.65625 195.347656 C 390.21875 191.976562 394.757812 189.597656 400.273438 188.203125 C 405.785156 186.816406 411.761719 186.953125 418.199219 188.625 C 424.179688 190.175781 429.179688 192.65625 433.1875 196.050781 C 437.191406 199.453125 439.953125 203.371094 441.46875 207.824219 C 442.980469 212.269531 443.15625 216.71875 442 221.179688 C 441.09375 224.691406 439.582031 227.582031 437.472656 229.855469 C 435.363281 232.132812 433.082031 233.972656 430.621094 235.386719 C 428.164062 236.792969 423.808594 239.113281 417.558594 242.339844 C 415.820312 243.253906 414.402344 244.085938 413.308594 244.839844 C 412.210938 245.589844 411.351562 246.3125 410.730469 247.015625 C 410.109375 247.710938 409.578125 248.433594 409.144531 249.183594 C 408.710938 249.925781 408 251.253906 407.019531 253.160156 C 405.125 257.25 402.113281 258.757812 397.988281 257.691406 C 395.839844 257.132812 394.214844 255.960938 393.113281 254.175781 C 392.015625 252.390625 391.820312 250.117188 392.539062 247.351562 C 393.4375 243.878906 394.753906 241.015625 396.484375 238.753906 C 398.214844 236.492188 400.214844 234.632812 402.488281 233.171875 C 404.761719 231.714844 407.746094 230.050781 411.441406 228.195312 C 414.6875 226.5625 417.046875 225.316406 418.527344 224.445312 C 420.007812 223.570312 421.335938 222.519531 422.519531 221.28125 C 423.699219 220.046875 424.503906 218.582031 424.945312 216.890625 C 425.800781 213.585938 425.296875 210.476562 423.433594 207.570312 C 421.5625 204.660156 418.6875 202.703125 414.808594 201.695312 C 410.269531 200.515625 406.632812 200.796875 403.886719 202.527344 C 401.152344 204.265625 398.460938 207.171875 395.816406 211.246094 C 393.207031 215.550781 389.9375 217.191406 386.019531 216.175781 C 383.707031 215.570312 381.964844 214.25 380.804688 212.207031 C 379.636719 210.164062 379.300781 208.195312 379.789062 206.292969 " fill-opacity="1" fill-rule="nonzero"/></svg>