<svg xmlns="http://www.w3.org/2000/svg" xmlns:xlink="http://www.w3.org/1999/xlink" width="794" zoomAndPan="magnify" viewBox="0 0 595.5 842.249979" height="1123" preserveAspectRatio="xMidYMid meet" version="1.0"><defs><clipPath id="5902599a6c"><path d="M 42.003906 65.199219 L 555.734375 65.199219 L 555.734375 540.320312 L 42.003906 540.320312 Z M 42.003906 65.199219 " clip-rule="nonzero"/></clipPath><clipPath id="0c1a2400fa"><path d="M 85 65.199219 L 551 65.199219 L 551 540.320312 L 85 540.320312 Z M 85 65.199219 " clip-rule="nonzero"/></clipPath><clipPath id="d079203bff"><path d="M 42.003906 59.472656 L 542 59.472656 L 542 525 L 42.003906 525 Z M 42.003906 59.472656 " clip-rule="nonzero"/></clipPath><clipPath id="4b21071a36"><path d="M 79.484375 66.300781 L 555.734375 66.300781 L 555.734375 540.320312 L 79.484375 540.320312 Z M 79.484375 66.300781 " clip-rule="nonzero"/></clipPath><clipPath id="2f8b5f4fbb"><path d="M 138 186.460938 L 562.777344 186.460938 L 562.777344 526 L 138 526 Z M 138 186.460938 " clip-rule="nonzero"/></clipPath></defs><g clip-path="url(#5902599a6c)"><path fill="#f6836b" d="M 496.089844 436.71875 L 476.976562 407.980469 L 469.601562 407.980469 C 462.121094 417.960938 454.226562 427.578125 445.992188 436.71875 Z M 119.535156 113.476562 C 119.535156 113.914062 119.574219 114.351562 119.632812 114.773438 C 124.378906 111.546875 129.296875 108.488281 134.359375 105.597656 C 132.839844 104.570312 131.011719 103.96875 129.039062 103.96875 C 123.796875 103.96875 119.535156 108.230469 119.535156 113.476562 Z M 555.503906 453.894531 L 533.34375 453.894531 L 543.378906 540.320312 L 527.28125 540.320312 L 517.242188 453.894531 L 460.488281 453.894531 L 450.457031 540.320312 L 434.355469 540.320312 L 444.390625 453.894531 L 429.535156 453.894531 C 386.609375 495.929688 336.363281 524.257812 287.109375 524.257812 C 265.097656 524.257812 243.289062 519.96875 222.28125 512.246094 L 225.546875 540.320312 L 209.445312 540.320312 L 205.367188 505.203125 C 182.660156 494.648438 161.144531 480.140625 141.625 462.792969 L 132.621094 540.320312 L 116.523438 540.320312 L 126.558594 453.894531 L 105.617188 453.894531 L 105.617188 436.71875 L 115.648438 436.71875 C 71.074219 386.296875 42.003906 320.78125 42.003906 258.636719 C 42.003906 200.683594 67.285156 155.785156 106.847656 124.199219 C 106.164062 122.785156 105.609375 121.316406 105.210938 119.796875 L 97.972656 118.203125 L 97.972656 108.746094 L 105.210938 107.152344 C 105.773438 105.027344 106.613281 102.996094 107.71875 101.09375 L 103.726562 94.851562 L 110.417969 88.164062 L 116.660156 92.15625 C 118.558594 91.046875 120.589844 90.207031 122.714844 89.648438 L 124.308594 82.40625 L 133.769531 82.40625 L 135.359375 89.648438 C 137.488281 90.207031 139.519531 91.046875 141.417969 92.15625 L 147.664062 88.164062 L 154.351562 94.851562 L 153.863281 95.613281 C 157.460938 93.96875 161.117188 92.394531 164.824219 90.898438 L 164.824219 82.40625 L 188.988281 82.40625 C 208.433594 76.53125 228.953125 72.5 249.988281 70.332031 C 249.96875 70.148438 249.933594 69.972656 249.933594 69.785156 C 249.933594 67.589844 251.726562 65.800781 253.921875 65.800781 C 256.058594 65.800781 257.789062 67.488281 257.886719 69.597656 C 267.554688 68.820312 277.308594 68.425781 287.109375 68.425781 C 412.984375 68.425781 545.378906 87.449219 545.378906 213.324219 C 545.378906 271.421875 517.171875 342.125 474.425781 401.425781 L 507.832031 401.425781 L 531.300781 436.71875 L 555.503906 436.71875 Z M 100.710938 73.773438 C 102.90625 73.773438 104.695312 71.984375 104.695312 69.785156 C 104.695312 67.589844 102.90625 65.800781 100.710938 65.800781 C 98.511719 65.800781 96.722656 67.589844 96.722656 69.785156 C 96.722656 71.984375 98.511719 73.773438 100.710938 73.773438 Z M 406.652344 69.785156 C 406.652344 67.589844 408.441406 65.800781 410.640625 65.800781 C 412.839844 65.800781 414.625 67.589844 414.625 69.785156 C 414.625 71.984375 412.839844 73.773438 410.640625 73.773438 C 408.441406 73.773438 406.652344 71.984375 406.652344 69.785156 " fill-opacity="1" fill-rule="nonzero"/></g><g clip-path="url(#0c1a2400fa)"><path fill="#5ec9cc" d="M 399.71875 72.667969 C 401.3125 72.667969 402.601562 71.378906 402.601562 69.785156 C 402.601562 68.195312 401.3125 66.902344 399.71875 66.902344 C 398.125 66.902344 396.832031 68.195312 396.832031 69.785156 C 396.832031 71.378906 398.125 72.667969 399.71875 72.667969 Z M 464.964844 158.984375 L 478.390625 158.984375 L 478.390625 155.675781 L 464.964844 155.675781 Z M 459.753906 114.355469 L 441.453125 103.425781 L 441.453125 125.289062 Z M 505.472656 144.542969 L 395.734375 144.542969 L 395.734375 87.21875 L 505.472656 87.21875 Z M 484.234375 152 L 474.886719 152 L 474.886719 155.308594 L 484.234375 155.308594 Z M 464.964844 152 L 464.964844 155.308594 L 474.3125 155.308594 L 474.3125 152 Z M 484.234375 148.328125 L 464.964844 148.328125 L 464.964844 151.632812 L 484.234375 151.632812 Z M 175.652344 159.167969 L 164.4375 159.167969 L 164.4375 160.273438 L 175.652344 160.273438 Z M 181.496094 156.59375 L 181.496094 155.492188 L 174.359375 155.492188 L 174.359375 156.59375 Z M 171.574219 155.492188 L 164.4375 155.492188 L 164.4375 156.59375 L 171.574219 156.59375 Z M 181.496094 151.820312 L 164.4375 151.820312 L 164.4375 152.921875 L 181.496094 152.921875 Z M 105.265625 159.167969 L 94.046875 159.167969 L 94.046875 160.273438 L 105.265625 160.273438 Z M 111.109375 156.59375 L 111.109375 155.492188 L 103.96875 155.492188 L 103.96875 156.59375 Z M 101.1875 155.492188 L 94.046875 155.492188 L 94.046875 156.59375 L 101.1875 156.59375 Z M 111.109375 151.820312 L 94.046875 151.820312 L 94.046875 152.921875 L 111.109375 152.921875 Z M 185.550781 124.9375 L 165.925781 124.9375 L 165.925781 131.808594 L 185.550781 131.808594 Z M 185.550781 94.976562 L 165.925781 94.976562 L 165.925781 101.839844 L 185.550781 101.839844 Z M 89.789062 72.667969 C 91.378906 72.667969 92.671875 71.378906 92.671875 69.785156 C 92.671875 68.195312 91.378906 66.902344 89.789062 66.902344 C 88.195312 66.902344 86.90625 68.195312 86.90625 69.785156 C 86.90625 71.378906 88.195312 72.667969 89.789062 72.667969 Z M 112.621094 113.476562 C 112.621094 122.527344 119.984375 129.890625 129.039062 129.890625 C 138.09375 129.890625 145.457031 122.527344 145.457031 113.476562 C 145.457031 104.425781 138.09375 97.054688 129.039062 97.054688 C 119.984375 97.054688 112.621094 104.425781 112.621094 113.476562 Z M 111.519531 113.476562 C 111.519531 103.8125 119.378906 95.953125 129.039062 95.953125 C 138.699219 95.953125 146.558594 103.8125 146.558594 113.476562 C 146.558594 123.132812 138.699219 130.992188 129.039062 130.992188 C 119.378906 130.992188 111.519531 123.132812 111.519531 113.476562 Z M 320.703125 212.378906 C 319.804688 212.378906 318.980469 213.109375 318.871094 214.011719 C 318.753906 214.910156 319.394531 215.636719 320.296875 215.636719 C 321.195312 215.636719 322.019531 214.910156 322.128906 214.011719 C 322.242188 213.109375 321.605469 212.378906 320.703125 212.378906 Z M 367.503906 212.902344 L 351.085938 212.902344 C 350.480469 212.902344 349.984375 213.398438 349.984375 214.003906 C 349.984375 214.617188 350.480469 215.109375 351.085938 215.109375 L 367.503906 215.109375 C 368.109375 215.109375 368.605469 214.617188 368.605469 214.003906 C 368.605469 213.398438 368.109375 212.902344 367.503906 212.902344 Z M 243 73.773438 C 245.195312 73.773438 246.988281 71.984375 246.988281 69.785156 C 246.988281 67.589844 245.195312 65.800781 243 65.800781 C 240.804688 65.800781 239.019531 67.589844 239.019531 69.785156 C 239.019531 71.984375 240.804688 73.773438 243 73.773438 Z M 272.730469 147.925781 C 272.730469 149.664062 274.148438 151.082031 275.886719 151.082031 L 299.761719 151.082031 C 301.503906 151.082031 302.917969 149.664062 302.917969 147.925781 C 302.917969 146.1875 301.503906 144.773438 299.761719 144.773438 L 275.886719 144.773438 C 274.148438 144.773438 272.730469 146.1875 272.730469 147.925781 Z M 250.898438 131.898438 L 274.777344 131.898438 C 276.515625 131.898438 277.933594 130.484375 277.933594 128.742188 C 277.933594 127 276.515625 125.589844 274.777344 125.589844 L 250.898438 125.589844 C 249.160156 125.589844 247.742188 127 247.742188 128.742188 C 247.742188 130.484375 249.160156 131.898438 250.898438 131.898438 Z M 250.898438 112.714844 L 292.269531 112.714844 C 294.007812 112.714844 295.421875 111.296875 295.421875 109.558594 C 295.421875 107.816406 294.007812 106.40625 292.269531 106.40625 L 250.898438 106.40625 C 249.160156 106.40625 247.742188 107.816406 247.742188 109.558594 C 247.742188 111.296875 249.160156 112.714844 250.898438 112.714844 Z M 300.246094 131.898438 L 308.691406 131.898438 C 310.429688 131.898438 311.84375 130.484375 311.84375 128.742188 C 311.84375 127 310.429688 125.589844 308.691406 125.589844 L 300.246094 125.589844 C 298.503906 125.589844 297.089844 127 297.089844 128.742188 C 297.089844 130.484375 298.503906 131.898438 300.246094 131.898438 Z M 291.636719 131.898438 C 293.375 131.898438 294.792969 130.484375 294.792969 128.742188 C 294.792969 127 293.375 125.589844 291.636719 125.589844 L 283.195312 125.589844 C 281.457031 125.589844 280.039062 127 280.039062 128.742188 C 280.039062 130.484375 281.457031 131.898438 283.195312 131.898438 Z M 250.898438 103.125 L 259.34375 103.125 C 261.082031 103.125 262.5 101.707031 262.5 99.96875 C 262.5 98.226562 261.082031 96.808594 259.34375 96.808594 L 250.898438 96.808594 C 249.160156 96.808594 247.742188 98.226562 247.742188 99.96875 C 247.742188 101.707031 249.160156 103.125 250.898438 103.125 Z M 250.898438 93.527344 L 279.332031 93.527344 C 281.074219 93.527344 282.492188 92.117188 282.492188 90.375 C 282.492188 88.636719 281.074219 87.21875 279.332031 87.21875 L 250.898438 87.21875 C 249.160156 87.21875 247.742188 88.636719 247.742188 90.375 C 247.742188 92.117188 249.160156 93.527344 250.898438 93.527344 Z M 312.308594 510.402344 L 111.652344 510.402344 C 103.390625 510.402344 96.6875 517.097656 96.6875 525.363281 C 96.6875 533.625 103.390625 540.320312 111.652344 540.320312 L 312.308594 540.320312 C 320.570312 540.320312 327.269531 533.625 327.269531 525.363281 C 327.269531 517.097656 320.570312 510.402344 312.308594 510.402344 Z M 543.804688 197.84375 C 543.804688 197.238281 543.308594 196.742188 542.703125 196.742188 L 488.496094 196.742188 C 487.886719 196.742188 487.394531 197.238281 487.394531 197.84375 C 487.394531 198.457031 487.886719 198.945312 488.496094 198.945312 L 542.703125 198.945312 C 543.308594 198.945312 543.804688 198.457031 543.804688 197.84375 Z M 518.335938 215.109375 L 527.628906 215.109375 C 528.238281 215.109375 528.730469 214.617188 528.730469 214.003906 C 528.730469 213.398438 528.238281 212.902344 527.628906 212.902344 L 518.335938 212.902344 C 517.730469 212.902344 517.234375 213.398438 517.234375 214.003906 C 517.234375 214.617188 517.730469 215.109375 518.335938 215.109375 Z M 540.191406 221.210938 C 540.191406 220.601562 539.695312 220.109375 539.089844 220.109375 L 517.433594 220.109375 C 516.824219 220.109375 516.328125 220.601562 516.328125 221.210938 C 516.328125 221.816406 516.824219 222.3125 517.433594 222.3125 L 539.089844 222.3125 C 539.695312 222.3125 540.191406 221.816406 540.191406 221.210938 Z M 516.527344 229.515625 L 527.648438 229.515625 C 528.257812 229.515625 528.75 229.023438 528.75 228.414062 C 528.75 227.804688 528.257812 227.3125 527.648438 227.3125 L 516.527344 227.3125 C 515.921875 227.3125 515.425781 227.804688 515.425781 228.414062 C 515.425781 229.023438 515.921875 229.515625 516.527344 229.515625 Z M 510.011719 275.472656 C 509.402344 275.472656 508.910156 275.964844 508.910156 276.574219 C 508.910156 277.183594 509.402344 277.679688 510.011719 277.679688 L 519.300781 277.679688 C 519.90625 277.679688 520.402344 277.183594 520.402344 276.574219 C 520.402344 275.964844 519.90625 275.472656 519.300781 275.472656 Z M 531.863281 283.777344 C 531.863281 283.167969 531.367188 282.671875 530.761719 282.671875 L 509.101562 282.671875 C 508.496094 282.671875 508 283.167969 508 283.777344 C 508 284.386719 508.496094 284.878906 509.101562 284.878906 L 530.761719 284.878906 C 531.367188 284.878906 531.863281 284.386719 531.863281 283.777344 Z M 520.421875 290.980469 C 520.421875 290.367188 519.929688 289.878906 519.316406 289.878906 L 508.199219 289.878906 C 507.59375 289.878906 507.097656 290.367188 507.097656 290.980469 C 507.097656 291.585938 507.59375 292.082031 508.199219 292.082031 L 519.316406 292.082031 C 519.929688 292.082031 520.421875 291.585938 520.421875 290.980469 Z M 496.691406 222.042969 C 496.691406 221.433594 496.203125 220.9375 495.589844 220.9375 L 477.015625 220.9375 C 476.40625 220.9375 475.914062 221.433594 475.914062 222.042969 C 475.914062 222.652344 476.40625 223.144531 477.015625 223.144531 L 495.589844 223.144531 C 496.203125 223.144531 496.691406 222.652344 496.691406 222.042969 Z M 487.390625 236.449219 C 487.390625 235.839844 486.898438 235.347656 486.289062 235.347656 L 470.058594 235.347656 C 469.449219 235.347656 468.957031 235.839844 468.957031 236.449219 C 468.957031 237.058594 469.449219 237.550781 470.058594 237.550781 L 486.289062 237.550781 C 486.898438 237.550781 487.390625 237.058594 487.390625 236.449219 Z M 483.511719 326.925781 C 483.511719 326.316406 483.019531 325.820312 482.410156 325.820312 L 453.183594 325.820312 C 452.578125 325.820312 452.082031 326.316406 452.082031 326.925781 C 452.082031 327.53125 452.578125 328.027344 453.183594 328.027344 L 482.410156 328.027344 C 483.019531 328.027344 483.511719 327.53125 483.511719 326.925781 Z M 400.605469 205.972656 L 320.003906 205.972656 C 316.957031 205.972656 314.179688 208.441406 313.796875 211.488281 L 312.472656 222.042969 L 404.097656 222.042969 L 405.421875 211.488281 C 405.808594 208.441406 403.648438 205.972656 400.605469 205.972656 Z M 391.367188 288.847656 C 391.367188 288.238281 390.871094 287.746094 390.265625 287.746094 L 380.429688 287.746094 C 379.824219 287.746094 379.328125 288.238281 379.328125 288.847656 C 379.328125 289.457031 379.824219 289.949219 380.429688 289.949219 L 390.265625 289.949219 C 390.871094 289.949219 391.367188 289.457031 391.367188 288.847656 Z M 367.644531 294.140625 C 367.644531 293.53125 367.148438 293.039062 366.542969 293.039062 L 357.332031 293.039062 C 356.722656 293.039062 356.226562 293.53125 356.226562 294.140625 C 356.226562 294.75 356.722656 295.242188 357.332031 295.242188 L 366.542969 295.242188 C 367.148438 295.242188 367.644531 294.75 367.644531 294.140625 Z M 348.578125 288.847656 C 348.578125 288.238281 348.085938 287.746094 347.476562 287.746094 L 337.640625 287.746094 C 337.03125 287.746094 336.539062 288.238281 336.539062 288.847656 C 336.539062 289.457031 337.03125 289.949219 337.640625 289.949219 L 347.476562 289.949219 C 348.085938 289.949219 348.578125 289.457031 348.578125 288.847656 Z M 321.792969 331.449219 L 313.398438 331.449219 C 312.238281 331.449219 311.183594 332.390625 311.035156 333.546875 C 310.894531 334.703125 311.714844 335.640625 312.871094 335.640625 L 321.269531 335.640625 C 322.421875 335.640625 323.484375 334.703125 323.628906 333.546875 C 323.769531 332.390625 322.953125 331.449219 321.792969 331.449219 Z M 313.171875 317.097656 C 314.074219 317.097656 314.890625 316.367188 315.007812 315.464844 C 315.121094 314.566406 314.480469 313.832031 313.582031 313.832031 C 312.683594 313.832031 311.859375 314.566406 311.746094 315.464844 C 311.632812 316.367188 312.273438 317.097656 313.171875 317.097656 Z M 312.207031 294.140625 C 312.207031 294.75 312.699219 295.242188 313.3125 295.242188 L 320.074219 295.242188 C 320.683594 295.242188 321.179688 294.75 321.179688 294.140625 C 321.179688 293.53125 320.683594 293.039062 320.074219 293.039062 L 313.3125 293.039062 C 312.699219 293.039062 312.207031 293.53125 312.207031 294.140625 Z M 355.492188 236.449219 C 355.492188 235.839844 355 235.347656 354.390625 235.347656 L 333.566406 235.347656 C 332.960938 235.347656 332.464844 235.839844 332.464844 236.449219 C 332.464844 237.058594 332.960938 237.550781 333.566406 237.550781 L 354.390625 237.550781 C 355 237.550781 355.492188 237.058594 355.492188 236.449219 Z M 426.035156 355.734375 C 426.035156 356.34375 426.523438 356.835938 427.136719 356.835938 L 469.292969 356.835938 C 469.902344 356.835938 470.394531 356.34375 470.394531 355.734375 C 470.394531 355.125 469.902344 354.632812 469.292969 354.632812 L 427.136719 354.632812 C 426.523438 354.632812 426.035156 355.125 426.035156 355.734375 Z M 435.59375 279.664062 C 435.59375 280.269531 436.089844 280.765625 436.695312 280.765625 L 447.816406 280.765625 C 448.421875 280.765625 448.917969 280.269531 448.917969 279.664062 C 448.917969 279.050781 448.421875 278.5625 447.816406 278.5625 L 436.695312 278.5625 C 436.089844 278.5625 435.59375 279.050781 435.59375 279.664062 Z M 439.214844 250.855469 C 439.214844 251.460938 439.710938 251.957031 440.316406 251.957031 L 453.714844 251.957031 C 454.328125 251.957031 454.816406 251.460938 454.816406 250.855469 C 454.816406 250.242188 454.328125 249.75 453.714844 249.75 L 440.316406 249.75 C 439.710938 249.75 439.214844 250.242188 439.214844 250.855469 Z M 441.929688 229.246094 C 441.929688 229.851562 442.425781 230.347656 443.03125 230.347656 L 452.320312 230.347656 C 452.929688 230.347656 453.421875 229.851562 453.421875 229.246094 C 453.421875 228.636719 452.929688 228.144531 452.320312 228.144531 L 443.03125 228.144531 C 442.425781 228.144531 441.929688 228.636719 441.929688 229.246094 Z M 478.84375 250.855469 C 478.84375 250.242188 478.347656 249.75 477.742188 249.75 L 458.535156 249.75 C 457.925781 249.75 457.429688 250.242188 457.429688 250.855469 C 457.429688 251.460938 457.925781 251.957031 458.535156 251.957031 L 477.742188 251.957031 C 478.347656 251.957031 478.84375 251.460938 478.84375 250.855469 Z M 481.761719 273.5625 C 482.375 273.5625 482.863281 273.070312 482.863281 272.457031 C 482.863281 271.851562 482.375 271.355469 481.761719 271.355469 L 465.53125 271.355469 C 464.925781 271.355469 464.429688 271.851562 464.429688 272.457031 C 464.429688 273.070312 464.925781 273.5625 465.53125 273.5625 Z M 550.835938 201.523438 L 533.761719 355.535156 C 533.257812 360.082031 529.421875 363.515625 524.84375 363.515625 L 285.734375 363.515625 C 283.144531 363.515625 280.773438 362.457031 279.050781 360.53125 C 278.703125 360.148438 278.414062 359.738281 278.144531 359.316406 C 275.660156 376.960938 263.761719 396.867188 263.761719 412.390625 C 263.761719 429.441406 276.757812 453.894531 276.757812 453.894531 C 276.757812 453.894531 272.144531 492.070312 225.328125 492.070312 C 208.402344 492.070312 196.457031 489.101562 190.3125 487.097656 C 187.121094 486.054688 184.769531 483.371094 184.050781 480.09375 C 178.609375 455.390625 182.296875 420.316406 186.136719 407.980469 C 188.730469 399.644531 185.679688 356.945312 175.667969 326.503906 C 170.554688 310.972656 182.121094 294.992188 198.46875 294.992188 L 202.339844 282.671875 C 202.339844 282.671875 214.652344 276.722656 227.660156 279.367188 C 240.671875 282.015625 246.886719 285.589844 251.734375 286.269531 L 248.589844 295.0625 C 253.957031 295.53125 258.753906 298.726562 261.207031 303.597656 C 266.5 314.113281 274.917969 332.179688 277.679688 345.75 L 293.890625 199.546875 C 294.394531 194.992188 298.226562 191.5625 302.808594 191.5625 L 541.917969 191.5625 C 544.5 191.5625 546.878906 192.625 548.601562 194.550781 C 550.328125 196.476562 551.121094 198.949219 550.835938 201.523438 Z M 326.875 212.378906 C 325.980469 212.378906 325.15625 213.109375 325.042969 214.011719 C 324.929688 214.910156 325.566406 215.636719 326.464844 215.636719 C 327.367188 215.636719 328.1875 214.910156 328.300781 214.011719 C 328.417969 213.109375 327.78125 212.378906 326.875 212.378906 Z M 333.050781 212.378906 C 332.152344 212.378906 331.328125 213.109375 331.214844 214.011719 C 331.105469 214.910156 331.742188 215.636719 332.640625 215.636719 C 333.542969 215.636719 334.363281 214.910156 334.476562 214.011719 C 334.589844 213.109375 333.953125 212.378906 333.050781 212.378906 Z M 164.085938 207.34375 L 150.960938 207.34375 L 150.960938 235.96875 L 164.085938 235.96875 Z M 118.035156 235.96875 L 131.160156 235.96875 L 131.160156 211.308594 L 118.035156 211.308594 Z M 98.234375 235.96875 L 85.109375 235.96875 L 85.109375 219.910156 L 98.234375 219.910156 L 98.234375 235.96875 " fill-opacity="1" fill-rule="nonzero"/></g><g clip-path="url(#d079203bff)"><path fill="#f3d0d2" d="M 129.039062 124.085938 C 134.898438 124.085938 139.648438 119.335938 139.648438 113.476562 C 139.648438 107.613281 134.898438 102.863281 129.039062 102.863281 C 123.179688 102.863281 118.429688 107.613281 118.429688 113.476562 C 118.429688 119.335938 123.179688 124.085938 129.039062 124.085938 Z M 97.824219 69.785156 C 97.824219 71.378906 99.117188 72.667969 100.710938 72.667969 C 102.304688 72.667969 103.589844 71.378906 103.589844 69.785156 C 103.589844 68.195312 102.304688 66.902344 100.710938 66.902344 C 99.117188 66.902344 97.824219 68.195312 97.824219 69.785156 Z M 105.132812 95.007812 L 109.015625 101.078125 C 107.691406 103.210938 106.703125 105.570312 106.113281 108.085938 L 99.074219 109.628906 L 99.074219 117.316406 L 106.113281 118.867188 C 106.703125 121.382812 107.691406 123.742188 109.015625 125.875 L 105.132812 131.945312 L 110.566406 137.378906 L 116.644531 133.5 C 118.777344 134.820312 121.132812 135.808594 123.644531 136.398438 L 125.195312 143.4375 L 132.882812 143.4375 L 134.433594 136.398438 C 136.945312 135.808594 139.304688 134.820312 141.4375 133.5 L 147.511719 137.378906 L 152.945312 131.945312 L 149.0625 125.875 C 150.382812 123.742188 151.375 121.382812 151.964844 118.867188 L 159.003906 117.316406 L 159.003906 109.628906 L 151.964844 108.085938 C 151.375 105.570312 150.382812 103.210938 149.0625 101.078125 L 152.945312 95.007812 L 147.511719 89.566406 L 141.4375 93.453125 C 139.304688 92.128906 136.945312 91.140625 134.433594 90.554688 L 132.882812 83.507812 L 125.195312 83.507812 L 123.644531 90.554688 C 121.132812 91.140625 118.777344 92.128906 116.644531 93.453125 L 110.566406 89.566406 Z M 165.925781 120.339844 L 195.910156 120.339844 L 195.910156 113.476562 L 165.925781 113.476562 Z M 165.925781 90.375 L 195.910156 90.375 L 195.910156 83.507812 L 165.925781 83.507812 Z M 134.570312 151.820312 L 117.507812 151.820312 L 117.507812 152.921875 L 134.570312 152.921875 Z M 134.570312 155.492188 L 127.429688 155.492188 L 127.429688 156.59375 L 134.570312 156.59375 Z M 124.648438 156.59375 L 124.648438 155.492188 L 117.507812 155.492188 L 117.507812 156.59375 Z M 128.730469 159.167969 L 117.507812 159.167969 L 117.507812 160.273438 L 128.730469 160.273438 Z M 209.113281 145.324219 L 229.058594 145.324219 L 229.058594 114.90625 L 209.113281 114.90625 Z M 209.113281 113.804688 L 229.058594 113.804688 L 229.058594 83.386719 L 209.113281 83.386719 Z M 240.121094 147.925781 C 240.121094 149.0625 241.039062 149.980469 242.167969 149.980469 L 242.363281 149.980469 C 243.5 149.980469 244.417969 149.0625 244.417969 147.925781 C 244.417969 146.792969 243.5 145.875 242.363281 145.875 L 242.167969 145.875 C 241.039062 145.875 240.121094 146.792969 240.121094 147.925781 Z M 240.121094 138.335938 C 240.121094 139.46875 241.039062 140.390625 242.167969 140.390625 L 242.363281 140.390625 C 243.5 140.390625 244.417969 139.46875 244.417969 138.335938 C 244.417969 137.203125 243.5 136.28125 242.363281 136.28125 L 242.167969 136.28125 C 241.039062 136.28125 240.121094 137.203125 240.121094 138.335938 Z M 240.121094 128.746094 C 240.121094 129.878906 241.039062 130.796875 242.167969 130.796875 L 242.363281 130.796875 C 243.5 130.796875 244.417969 129.878906 244.417969 128.746094 C 244.417969 127.609375 243.5 126.691406 242.363281 126.691406 L 242.167969 126.691406 C 241.039062 126.691406 240.121094 127.609375 240.121094 128.746094 Z M 240.121094 119.152344 C 240.121094 120.285156 241.039062 121.207031 242.167969 121.207031 L 242.363281 121.207031 C 243.5 121.207031 244.417969 120.285156 244.417969 119.152344 C 244.417969 118.019531 243.5 117.097656 242.363281 117.097656 L 242.167969 117.097656 C 241.039062 117.097656 240.121094 118.019531 240.121094 119.152344 Z M 240.121094 109.558594 C 240.121094 110.695312 241.039062 111.609375 242.167969 111.609375 L 242.363281 111.609375 C 243.5 111.609375 244.417969 110.695312 244.417969 109.558594 C 244.417969 108.425781 243.5 107.507812 242.363281 107.507812 L 242.167969 107.507812 C 241.039062 107.507812 240.121094 108.425781 240.121094 109.558594 Z M 240.121094 99.96875 C 240.121094 101.097656 241.039062 102.019531 242.167969 102.019531 L 242.363281 102.019531 C 243.5 102.019531 244.417969 101.097656 244.417969 99.96875 C 244.417969 98.835938 243.5 97.914062 242.363281 97.914062 L 242.167969 97.914062 C 241.039062 97.914062 240.121094 98.835938 240.121094 99.96875 Z M 240.121094 90.375 C 240.121094 91.507812 241.039062 92.425781 242.167969 92.425781 L 242.363281 92.425781 C 243.5 92.425781 244.417969 91.507812 244.417969 90.375 C 244.417969 89.238281 243.5 88.324219 242.363281 88.324219 L 242.167969 88.324219 C 241.039062 88.324219 240.121094 89.238281 240.121094 90.375 Z M 240.121094 80.78125 C 240.121094 81.914062 241.039062 82.835938 242.167969 82.835938 L 242.363281 82.835938 C 243.5 82.835938 244.417969 81.914062 244.417969 80.78125 C 244.417969 79.648438 243.5 78.726562 242.363281 78.726562 L 242.167969 78.726562 C 241.039062 78.726562 240.121094 79.648438 240.121094 80.78125 Z M 240.121094 69.785156 C 240.121094 71.378906 241.40625 72.667969 243 72.667969 C 244.59375 72.667969 245.886719 71.378906 245.886719 69.785156 C 245.886719 68.195312 244.59375 66.902344 243 66.902344 C 241.40625 66.902344 240.121094 68.195312 240.121094 69.785156 Z M 248.84375 147.925781 C 248.84375 149.0625 249.765625 149.980469 250.898438 149.980469 L 268.308594 149.980469 C 269.441406 149.980469 270.363281 149.0625 270.363281 147.925781 C 270.363281 146.792969 269.441406 145.875 268.308594 145.875 L 250.898438 145.875 C 249.765625 145.875 248.84375 146.792969 248.84375 147.925781 Z M 248.84375 138.335938 C 248.84375 139.46875 249.765625 140.390625 250.898438 140.390625 L 288.152344 140.390625 C 289.285156 140.390625 290.207031 139.46875 290.207031 138.335938 C 290.207031 137.203125 289.285156 136.28125 288.152344 136.28125 L 250.898438 136.28125 C 249.765625 136.28125 248.84375 137.203125 248.84375 138.335938 Z M 248.84375 128.746094 C 248.84375 129.878906 249.765625 130.796875 250.898438 130.796875 L 274.777344 130.796875 C 275.910156 130.796875 276.832031 129.878906 276.832031 128.746094 C 276.832031 127.609375 275.910156 126.691406 274.777344 126.691406 L 250.898438 126.691406 C 249.765625 126.691406 248.84375 127.609375 248.84375 128.746094 Z M 248.84375 119.152344 C 248.84375 120.285156 249.765625 121.207031 250.898438 121.207031 L 282.421875 121.207031 C 283.554688 121.207031 284.472656 120.285156 284.472656 119.152344 C 284.472656 118.019531 283.554688 117.097656 282.421875 117.097656 L 250.898438 117.097656 C 249.765625 117.097656 248.84375 118.019531 248.84375 119.152344 Z M 248.84375 109.558594 C 248.84375 110.695312 249.765625 111.609375 250.898438 111.609375 L 292.269531 111.609375 C 293.402344 111.609375 294.320312 110.695312 294.320312 109.558594 C 294.320312 108.425781 293.402344 107.507812 292.269531 107.507812 L 250.898438 107.507812 C 249.765625 107.507812 248.84375 108.425781 248.84375 109.558594 Z M 248.84375 99.96875 C 248.84375 101.097656 249.765625 102.019531 250.898438 102.019531 L 259.34375 102.019531 C 260.476562 102.019531 261.398438 101.097656 261.398438 99.96875 C 261.398438 98.835938 260.476562 97.914062 259.34375 97.914062 L 250.898438 97.914062 C 249.765625 97.914062 248.84375 98.835938 248.84375 99.96875 Z M 248.84375 90.375 C 248.84375 91.507812 249.765625 92.425781 250.898438 92.425781 L 279.332031 92.425781 C 280.464844 92.425781 281.386719 91.507812 281.386719 90.375 C 281.386719 89.238281 280.464844 88.324219 279.332031 88.324219 L 250.898438 88.324219 C 249.765625 88.324219 248.84375 89.238281 248.84375 90.375 Z M 248.84375 80.78125 C 248.84375 81.914062 249.765625 82.835938 250.898438 82.835938 L 263.957031 82.835938 C 265.089844 82.835938 266.003906 81.914062 266.003906 80.78125 C 266.003906 79.648438 265.089844 78.726562 263.957031 78.726562 L 250.898438 78.726562 C 249.765625 78.726562 248.84375 79.648438 248.84375 80.78125 Z M 251.035156 69.785156 C 251.035156 71.378906 252.328125 72.667969 253.921875 72.667969 C 255.515625 72.667969 256.808594 71.378906 256.808594 69.785156 C 256.808594 68.195312 255.515625 66.902344 253.921875 66.902344 C 252.328125 66.902344 251.035156 68.195312 251.035156 69.785156 Z M 310.890625 97.914062 L 269.519531 97.914062 C 268.386719 97.914062 267.46875 98.835938 267.46875 99.96875 C 267.46875 101.097656 268.386719 102.019531 269.519531 102.019531 L 310.890625 102.019531 C 312.023438 102.019531 312.945312 101.097656 312.945312 99.96875 C 312.945312 98.835938 312.023438 97.914062 310.890625 97.914062 Z M 311.769531 109.558594 C 311.769531 108.425781 310.851562 107.507812 309.71875 107.507812 L 301.273438 107.507812 C 300.140625 107.507812 299.21875 108.425781 299.21875 109.558594 C 299.21875 110.695312 300.140625 111.609375 301.273438 111.609375 L 309.71875 111.609375 C 310.851562 111.609375 311.769531 110.695312 311.769531 109.558594 Z M 310.738281 128.746094 C 310.738281 127.609375 309.824219 126.691406 308.691406 126.691406 L 300.246094 126.691406 C 299.113281 126.691406 298.191406 127.609375 298.191406 128.746094 C 298.191406 129.878906 299.113281 130.796875 300.246094 130.796875 L 308.691406 130.796875 C 309.824219 130.796875 310.738281 129.878906 310.738281 128.746094 Z M 293.691406 128.746094 C 293.691406 127.609375 292.773438 126.691406 291.636719 126.691406 L 283.191406 126.691406 C 282.058594 126.691406 281.140625 127.609375 281.140625 128.746094 C 281.140625 129.878906 282.058594 130.796875 283.191406 130.796875 L 291.636719 130.796875 C 292.773438 130.796875 293.691406 129.878906 293.691406 128.746094 Z M 301.816406 147.925781 C 301.816406 146.792969 300.898438 145.875 299.761719 145.875 L 275.886719 145.875 C 274.75 145.875 273.835938 146.792969 273.835938 147.925781 C 273.835938 149.0625 274.75 149.980469 275.886719 149.980469 L 299.761719 149.980469 C 300.898438 149.980469 301.816406 149.0625 301.816406 147.925781 Z M 358.324219 145.324219 L 384.425781 145.324219 L 384.425781 114.90625 L 358.324219 114.90625 Z M 358.324219 113.804688 L 384.425781 113.804688 L 384.425781 83.386719 L 358.324219 83.386719 Z M 396.832031 143.4375 L 504.371094 143.4375 L 504.371094 88.324219 L 396.832031 88.324219 Z M 407.753906 69.785156 C 407.753906 71.378906 409.046875 72.667969 410.640625 72.667969 C 412.230469 72.667969 413.523438 71.378906 413.523438 69.785156 C 413.523438 68.195312 412.230469 66.902344 410.640625 66.902344 C 409.046875 66.902344 407.753906 68.195312 407.753906 69.785156 Z M 483.132812 149.429688 L 466.066406 149.429688 L 466.066406 150.53125 L 483.132812 150.53125 Z M 483.132812 153.101562 L 475.988281 153.101562 L 475.988281 154.203125 L 483.132812 154.203125 Z M 473.210938 154.203125 L 473.210938 153.101562 L 466.066406 153.101562 L 466.066406 154.203125 Z M 477.289062 156.78125 L 466.066406 156.78125 L 466.066406 157.882812 L 477.289062 157.882812 Z M 447.855469 149.429688 L 430.789062 149.429688 L 430.789062 150.53125 L 447.855469 150.53125 Z M 447.855469 153.101562 L 440.710938 153.101562 L 440.710938 154.203125 L 447.855469 154.203125 Z M 437.933594 154.203125 L 437.933594 153.101562 L 430.789062 153.101562 L 430.789062 154.203125 Z M 442.011719 156.78125 L 430.789062 156.78125 L 430.789062 157.882812 L 442.011719 157.882812 Z M 79.847656 167.582031 L 79.847656 65.199219 C 79.847656 62.152344 82.3125 59.6875 85.359375 59.6875 L 203.601562 59.6875 C 206.648438 59.6875 209.113281 62.152344 209.113281 65.199219 L 209.113281 82.285156 L 229.058594 82.285156 L 229.058594 65.199219 C 229.058594 62.152344 231.523438 59.6875 234.570312 59.6875 L 352.8125 59.6875 C 355.859375 59.6875 358.324219 62.152344 358.324219 65.199219 L 358.324219 82.285156 L 384.425781 82.285156 L 384.425781 65.199219 C 384.425781 62.152344 386.894531 59.6875 389.9375 59.6875 L 508.175781 59.6875 C 511.226562 59.6875 513.691406 62.152344 513.691406 65.199219 L 513.691406 145.324219 L 527.933594 145.324219 C 528.160156 145.6875 528.367188 146.0625 528.582031 146.425781 L 513.691406 146.425781 L 513.691406 167.582031 C 513.691406 170.628906 511.226562 173.097656 508.175781 173.097656 L 389.9375 173.097656 C 386.894531 173.097656 384.425781 170.628906 384.425781 167.582031 L 384.425781 146.425781 L 358.324219 146.425781 L 358.324219 156.117188 C 358.324219 159.160156 355.859375 161.628906 352.8125 161.628906 L 234.570312 161.628906 C 231.523438 161.628906 229.058594 159.160156 229.058594 156.117188 L 229.058594 146.425781 L 209.113281 146.425781 L 209.113281 167.582031 C 209.113281 170.628906 206.648438 173.097656 203.601562 173.097656 L 85.359375 173.097656 C 82.3125 173.097656 79.847656 170.628906 79.847656 167.582031 Z M 459.390625 196.742188 C 458.785156 196.742188 458.289062 197.238281 458.289062 197.84375 C 458.289062 198.457031 458.785156 198.945312 459.390625 198.945312 L 481.660156 198.945312 C 482.269531 198.945312 482.761719 198.457031 482.761719 197.84375 C 482.761719 197.238281 482.269531 196.742188 481.660156 196.742188 Z M 483.511719 326.925781 C 483.511719 326.316406 483.019531 325.820312 482.410156 325.820312 L 453.183594 325.820312 C 452.578125 325.820312 452.082031 326.316406 452.082031 326.925781 C 452.082031 327.53125 452.578125 328.027344 453.183594 328.027344 L 482.410156 328.027344 C 483.019531 328.027344 483.511719 327.53125 483.511719 326.925781 Z M 471.296875 348.535156 C 471.296875 347.921875 470.808594 347.429688 470.195312 347.429688 L 428.039062 347.429688 C 427.433594 347.429688 426.9375 347.921875 426.9375 348.535156 C 426.9375 349.140625 427.433594 349.636719 428.039062 349.636719 L 470.195312 349.636719 C 470.808594 349.636719 471.296875 349.140625 471.296875 348.535156 Z M 470.394531 355.734375 C 470.394531 355.125 469.902344 354.632812 469.292969 354.632812 L 427.136719 354.632812 C 426.523438 354.632812 426.035156 355.125 426.035156 355.734375 C 426.035156 356.34375 426.523438 356.835938 427.136719 356.835938 L 469.292969 356.835938 C 469.902344 356.835938 470.394531 356.34375 470.394531 355.734375 Z M 428.746094 334.125 C 428.746094 334.734375 429.242188 335.226562 429.847656 335.226562 L 463.917969 335.226562 C 464.523438 335.226562 465.019531 334.734375 465.019531 334.125 C 465.019531 333.515625 464.523438 333.023438 463.917969 333.023438 L 429.847656 333.023438 C 429.242188 333.023438 428.746094 333.515625 428.746094 334.125 Z M 429.65625 326.925781 C 429.65625 327.53125 430.144531 328.027344 430.757812 328.027344 L 445.371094 328.027344 C 445.976562 328.027344 446.472656 327.53125 446.472656 326.925781 C 446.472656 326.316406 445.976562 325.820312 445.371094 325.820312 L 430.757812 325.820312 C 430.144531 325.820312 429.65625 326.316406 429.65625 326.925781 Z M 430.558594 319.722656 C 430.558594 320.332031 431.050781 320.828125 431.664062 320.828125 L 473.816406 320.828125 C 474.429688 320.828125 474.917969 320.332031 474.917969 319.722656 C 474.917969 319.113281 474.429688 318.621094 473.816406 318.621094 L 431.664062 318.621094 C 431.050781 318.621094 430.558594 319.113281 430.558594 319.722656 Z M 422.445312 319.722656 C 422.445312 319.113281 421.953125 318.621094 421.34375 318.621094 L 413.992188 318.621094 C 413.386719 318.621094 412.890625 319.113281 412.890625 319.722656 C 412.890625 320.332031 413.386719 320.828125 413.992188 320.828125 L 421.34375 320.828125 C 421.953125 320.828125 422.445312 320.332031 422.445312 319.722656 Z M 421.539062 326.925781 C 421.539062 326.316406 421.046875 325.820312 420.4375 325.820312 L 413.089844 325.820312 C 412.476562 325.820312 411.988281 326.316406 411.988281 326.925781 C 411.988281 327.53125 412.476562 328.027344 413.089844 328.027344 L 420.4375 328.027344 C 421.046875 328.027344 421.539062 327.53125 421.539062 326.925781 Z M 420.632812 334.125 C 420.632812 333.515625 420.144531 333.023438 419.53125 333.023438 L 412.179688 333.023438 C 411.574219 333.023438 411.078125 333.515625 411.078125 334.125 C 411.078125 334.734375 411.574219 335.226562 412.179688 335.226562 L 419.53125 335.226562 C 420.144531 335.226562 420.632812 334.734375 420.632812 334.125 Z M 418.824219 348.535156 C 418.824219 347.921875 418.328125 347.429688 417.722656 347.429688 L 410.371094 347.429688 C 409.765625 347.429688 409.269531 347.921875 409.269531 348.535156 C 409.269531 349.140625 409.765625 349.636719 410.371094 349.636719 L 417.722656 349.636719 C 418.328125 349.636719 418.824219 349.140625 418.824219 348.535156 Z M 417.921875 355.734375 C 417.921875 355.125 417.425781 354.632812 416.816406 354.632812 L 409.46875 354.632812 C 408.855469 354.632812 408.363281 355.125 408.363281 355.734375 C 408.363281 356.34375 408.855469 356.835938 409.46875 356.835938 L 416.816406 356.835938 C 417.425781 356.835938 417.921875 356.34375 417.921875 355.734375 Z M 498.09375 315.292969 L 492.027344 363.515625 L 478.796875 363.515625 C 478.90625 363.347656 478.984375 363.152344 478.984375 362.9375 C 478.984375 362.328125 478.492188 361.835938 477.882812 361.835938 L 448.660156 361.835938 C 448.050781 361.835938 447.558594 362.328125 447.558594 362.9375 C 447.558594 363.152344 447.632812 363.347656 447.746094 363.515625 L 441.757812 363.515625 C 441.863281 363.347656 441.945312 363.152344 441.945312 362.9375 C 441.945312 362.328125 441.449219 361.835938 440.84375 361.835938 L 426.226562 361.835938 C 425.621094 361.835938 425.125 362.328125 425.125 362.9375 C 425.125 363.152344 425.207031 363.347656 425.316406 363.515625 L 416.824219 363.515625 C 416.933594 363.347656 417.011719 363.152344 417.011719 362.9375 C 417.011719 362.328125 416.519531 361.835938 415.910156 361.835938 L 408.5625 361.835938 C 407.953125 361.835938 407.460938 362.328125 407.460938 362.9375 C 407.460938 363.152344 407.539062 363.347656 407.648438 363.515625 L 400.402344 363.515625 L 406.464844 315.292969 C 406.847656 312.25 409.625 309.78125 412.671875 309.78125 L 493.273438 309.78125 C 496.3125 309.78125 498.476562 312.25 498.09375 315.292969 Z M 341.59375 331.449219 L 333.199219 331.449219 C 332.039062 331.449219 330.984375 332.390625 330.84375 333.546875 C 330.695312 334.703125 331.515625 335.640625 332.671875 335.640625 L 341.070312 335.640625 C 342.226562 335.640625 343.28125 334.703125 343.429688 333.546875 C 343.570312 332.390625 342.753906 331.449219 341.59375 331.449219 Z M 321.792969 331.449219 L 313.398438 331.449219 C 312.238281 331.449219 311.183594 332.390625 311.035156 333.546875 C 310.894531 334.703125 311.714844 335.640625 312.871094 335.640625 L 321.269531 335.640625 C 322.421875 335.640625 323.484375 334.703125 323.628906 333.546875 C 323.769531 332.390625 322.953125 331.449219 321.792969 331.449219 Z M 307.40625 313.832031 C 306.507812 313.832031 305.683594 314.566406 305.574219 315.464844 C 305.460938 316.367188 306.097656 317.097656 306.996094 317.097656 C 307.898438 317.097656 308.71875 316.367188 308.832031 315.464844 C 308.949219 314.566406 308.308594 313.832031 307.40625 313.832031 Z M 313.171875 317.097656 C 314.074219 317.097656 314.890625 316.367188 315.007812 315.464844 C 315.121094 314.566406 314.480469 313.832031 313.582031 313.832031 C 312.683594 313.832031 311.859375 314.566406 311.746094 315.464844 C 311.632812 316.367188 312.273438 317.097656 313.171875 317.097656 Z M 319.34375 317.097656 C 320.242188 317.097656 321.066406 316.367188 321.179688 315.464844 C 321.292969 314.566406 320.65625 313.832031 319.753906 313.832031 C 318.851562 313.832031 318.035156 314.566406 317.917969 315.464844 C 317.808594 316.367188 318.445312 317.097656 319.34375 317.097656 Z M 336.511719 323.953125 L 320.085938 323.953125 C 319.476562 323.953125 318.980469 324.449219 318.980469 325.054688 C 318.980469 325.667969 319.476562 326.15625 320.085938 326.15625 L 336.511719 326.15625 C 337.125 326.15625 337.617188 325.667969 337.617188 325.054688 C 337.617188 324.449219 337.125 323.953125 336.511719 323.953125 Z M 353.199219 309.769531 C 356.246094 309.769531 358.40625 312.238281 358.023438 315.28125 L 355.710938 333.65625 C 355.332031 336.699219 352.550781 339.167969 349.511719 339.167969 L 302.695312 339.167969 C 299.652344 339.167969 297.492188 336.699219 297.875 333.65625 L 300.183594 315.28125 C 300.566406 312.238281 303.347656 309.769531 306.390625 309.769531 Z M 328.300781 214.011719 C 328.417969 213.109375 327.78125 212.378906 326.875 212.378906 C 325.980469 212.378906 325.15625 213.109375 325.042969 214.011719 C 324.929688 214.910156 325.566406 215.636719 326.464844 215.636719 C 327.367188 215.636719 328.1875 214.910156 328.300781 214.011719 Z M 386.5 294.140625 C 386.5 293.53125 386.007812 293.039062 385.398438 293.039062 L 379.765625 293.039062 C 379.15625 293.039062 378.664062 293.53125 378.664062 294.140625 C 378.664062 294.75 379.15625 295.242188 379.765625 295.242188 L 385.398438 295.242188 C 386.007812 295.242188 386.5 294.75 386.5 294.140625 Z M 378.421875 237.550781 C 379.03125 237.550781 379.523438 237.058594 379.523438 236.449219 C 379.523438 235.839844 379.03125 235.347656 378.421875 235.347656 L 362.011719 235.347656 C 361.402344 235.347656 360.910156 235.839844 360.910156 236.449219 C 360.910156 237.058594 361.402344 237.550781 362.011719 237.550781 Z M 375.226562 246.101562 L 335.292969 246.101562 C 333.671875 246.101562 332.191406 247.417969 331.988281 249.042969 L 330.777344 258.644531 C 330.574219 260.261719 331.726562 261.582031 333.347656 261.582031 L 373.28125 261.582031 C 374.90625 261.582031 376.386719 260.261719 376.589844 258.644531 L 377.792969 249.042969 C 378 247.417969 376.847656 246.101562 375.226562 246.101562 Z M 357.996094 289.949219 L 363.628906 289.949219 C 364.238281 289.949219 364.734375 289.457031 364.734375 288.847656 C 364.734375 288.238281 364.238281 287.746094 363.628906 287.746094 L 357.996094 287.746094 C 357.386719 287.746094 356.894531 288.238281 356.894531 288.847656 C 356.894531 289.457031 357.386719 289.949219 357.996094 289.949219 Z M 367.644531 294.140625 C 367.644531 293.53125 367.148438 293.039062 366.542969 293.039062 L 357.332031 293.039062 C 356.722656 293.039062 356.226562 293.53125 356.226562 294.140625 C 356.226562 294.75 356.722656 295.242188 357.332031 295.242188 L 366.542969 295.242188 C 367.148438 295.242188 367.644531 294.75 367.644531 294.140625 Z M 348.578125 288.847656 C 348.578125 288.238281 348.085938 287.746094 347.476562 287.746094 L 337.640625 287.746094 C 337.03125 287.746094 336.539062 288.238281 336.539062 288.847656 C 336.539062 289.457031 337.03125 289.949219 337.640625 289.949219 L 347.476562 289.949219 C 348.085938 289.949219 348.578125 289.457031 348.578125 288.847656 Z M 343.714844 294.140625 C 343.714844 293.53125 343.21875 293.039062 342.609375 293.039062 L 336.972656 293.039062 C 336.367188 293.039062 335.871094 293.53125 335.871094 294.140625 C 335.871094 294.75 336.367188 295.242188 336.972656 295.242188 L 342.609375 295.242188 C 343.21875 295.242188 343.714844 294.75 343.714844 294.140625 Z M 326.34375 288.847656 C 326.34375 288.238281 325.851562 287.746094 325.238281 287.746094 L 313.972656 287.746094 C 313.367188 287.746094 312.871094 288.238281 312.871094 288.847656 C 312.871094 289.457031 313.367188 289.949219 313.972656 289.949219 L 325.238281 289.949219 C 325.851562 289.949219 326.34375 289.457031 326.34375 288.847656 Z M 321.179688 294.140625 C 321.179688 293.53125 320.683594 293.039062 320.074219 293.039062 L 313.3125 293.039062 C 312.699219 293.039062 312.207031 293.53125 312.207031 294.140625 C 312.207031 294.75 312.699219 295.242188 313.3125 295.242188 L 320.074219 295.242188 C 320.683594 295.242188 321.179688 294.75 321.179688 294.140625 Z M 332.464844 236.449219 C 332.464844 237.058594 332.960938 237.550781 333.566406 237.550781 L 354.390625 237.550781 C 355 237.550781 355.492188 237.058594 355.492188 236.449219 C 355.492188 235.839844 355 235.347656 354.390625 235.347656 L 333.566406 235.347656 C 332.960938 235.347656 332.464844 235.839844 332.464844 236.449219 Z M 379.328125 288.847656 C 379.328125 289.457031 379.824219 289.949219 380.429688 289.949219 L 390.265625 289.949219 C 390.871094 289.949219 391.367188 289.457031 391.367188 288.847656 C 391.367188 288.238281 390.871094 287.746094 390.265625 287.746094 L 380.429688 287.746094 C 379.824219 287.746094 379.328125 288.238281 379.328125 288.847656 Z M 388.574219 301.710938 L 307.972656 301.710938 C 304.925781 301.710938 302.769531 299.242188 303.152344 296.199219 L 312.472656 222.042969 L 404.097656 222.042969 L 405.421875 211.488281 L 394.773438 296.199219 C 394.394531 299.242188 391.617188 301.710938 388.574219 301.710938 Z M 511.996094 355.703125 L 500.875 355.703125 C 500.265625 355.703125 499.773438 356.199219 499.773438 356.804688 C 499.773438 357.414062 500.265625 357.90625 500.875 357.90625 L 511.996094 357.90625 C 512.605469 357.90625 513.101562 357.414062 513.101562 356.804688 C 513.101562 356.199219 512.605469 355.703125 511.996094 355.703125 Z M 517.433594 348.5 L 501.78125 348.5 C 501.171875 348.5 500.679688 348.996094 500.679688 349.601562 C 500.679688 350.210938 501.171875 350.703125 501.78125 350.703125 L 517.433594 350.703125 C 518.042969 350.703125 518.535156 350.210938 518.535156 349.601562 C 518.535156 348.996094 518.042969 348.5 517.433594 348.5 Z M 502.6875 343.503906 L 511.976562 343.503906 C 512.582031 343.503906 513.078125 343.007812 513.078125 342.402344 C 513.078125 341.792969 512.582031 341.300781 511.976562 341.300781 L 502.6875 341.300781 C 502.074219 341.300781 501.585938 341.792969 501.585938 342.402344 C 501.585938 343.007812 502.074219 343.503906 502.6875 343.503906 Z M 522.824219 259.941406 L 511.703125 259.941406 C 511.09375 259.941406 510.601562 260.4375 510.601562 261.042969 C 510.601562 261.65625 511.09375 262.144531 511.703125 262.144531 L 522.824219 262.144531 C 523.429688 262.144531 523.925781 261.65625 523.925781 261.042969 C 523.925781 260.4375 523.429688 259.941406 522.824219 259.941406 Z M 528.257812 252.742188 L 512.609375 252.742188 C 511.996094 252.742188 511.507812 253.230469 511.507812 253.84375 C 511.507812 254.449219 511.996094 254.945312 512.609375 254.945312 L 528.257812 254.945312 C 528.871094 254.945312 529.359375 254.449219 529.359375 253.84375 C 529.359375 253.230469 528.871094 252.742188 528.257812 252.742188 Z M 513.511719 245.535156 C 512.90625 245.535156 512.410156 246.03125 512.410156 246.636719 C 512.410156 247.25 512.90625 247.742188 513.511719 247.742188 L 522.800781 247.742188 C 523.414062 247.742188 523.90625 247.25 523.90625 246.636719 C 523.90625 246.03125 523.414062 245.535156 522.800781 245.535156 Z M 496.691406 222.042969 C 496.691406 221.433594 496.203125 220.9375 495.589844 220.9375 L 477.015625 220.9375 C 476.40625 220.9375 475.914062 221.433594 475.914062 222.042969 C 475.914062 222.652344 476.40625 223.144531 477.015625 223.144531 L 495.589844 223.144531 C 496.203125 223.144531 496.691406 222.652344 496.691406 222.042969 Z M 487.390625 236.449219 C 487.390625 235.839844 486.898438 235.347656 486.289062 235.347656 L 470.058594 235.347656 C 469.449219 235.347656 468.957031 235.839844 468.957031 236.449219 C 468.957031 237.058594 469.449219 237.550781 470.058594 237.550781 L 486.289062 237.550781 C 486.898438 237.550781 487.390625 237.058594 487.390625 236.449219 Z M 482.863281 272.457031 C 482.863281 271.851562 482.375 271.355469 481.761719 271.355469 L 465.53125 271.355469 C 464.925781 271.355469 464.429688 271.851562 464.429688 272.457031 C 464.429688 273.070312 464.925781 273.5625 465.53125 273.5625 L 481.761719 273.5625 C 482.375 273.5625 482.863281 273.070312 482.863281 272.457031 Z M 474.808594 279.664062 C 474.808594 279.050781 474.316406 278.5625 473.707031 278.5625 L 454.09375 278.5625 C 453.484375 278.5625 452.992188 279.050781 452.992188 279.664062 C 452.992188 280.269531 453.484375 280.765625 454.09375 280.765625 L 473.707031 280.765625 C 474.316406 280.765625 474.808594 280.269531 474.808594 279.664062 Z M 463.691406 286.863281 C 463.691406 286.257812 463.199219 285.761719 462.589844 285.761719 L 435.792969 285.761719 C 435.179688 285.761719 434.691406 286.257812 434.691406 286.863281 C 434.691406 287.476562 435.179688 287.964844 435.792969 287.964844 L 462.589844 287.964844 C 463.199219 287.964844 463.691406 287.476562 463.691406 286.863281 Z M 434.71875 222.042969 C 434.71875 221.433594 434.230469 220.9375 433.617188 220.9375 L 426.269531 220.9375 C 425.664062 220.9375 425.167969 221.433594 425.167969 222.042969 C 425.167969 222.652344 425.664062 223.144531 426.269531 223.144531 L 433.617188 223.144531 C 434.230469 223.144531 434.71875 222.652344 434.71875 222.042969 Z M 433.816406 229.246094 C 433.816406 228.636719 433.324219 228.144531 432.714844 228.144531 L 425.367188 228.144531 C 424.753906 228.144531 424.265625 228.636719 424.265625 229.246094 C 424.265625 229.851562 424.753906 230.347656 425.367188 230.347656 L 432.714844 230.347656 C 433.324219 230.347656 433.816406 229.851562 433.816406 229.246094 Z M 432.910156 236.449219 C 432.910156 235.839844 432.421875 235.347656 431.808594 235.347656 L 424.460938 235.347656 C 423.851562 235.347656 423.359375 235.839844 423.359375 236.449219 C 423.359375 237.058594 423.851562 237.550781 424.460938 237.550781 L 431.808594 237.550781 C 432.421875 237.550781 432.910156 237.058594 432.910156 236.449219 Z M 432.007812 243.648438 C 432.007812 243.042969 431.511719 242.546875 430.90625 242.546875 L 423.554688 242.546875 C 422.945312 242.546875 422.449219 243.042969 422.449219 243.648438 C 422.449219 244.257812 422.945312 244.753906 423.554688 244.753906 L 430.90625 244.753906 C 431.511719 244.753906 432.007812 244.257812 432.007812 243.648438 Z M 431.101562 250.855469 C 431.101562 250.242188 430.605469 249.75 430 249.75 L 422.648438 249.75 C 422.042969 249.75 421.546875 250.242188 421.546875 250.855469 C 421.546875 251.460938 422.042969 251.957031 422.648438 251.957031 L 430 251.957031 C 430.605469 251.957031 431.101562 251.460938 431.101562 250.855469 Z M 429.289062 265.257812 C 429.289062 264.648438 428.796875 264.15625 428.1875 264.15625 L 420.839844 264.15625 C 420.230469 264.15625 419.738281 264.648438 419.738281 265.257812 C 419.738281 265.867188 420.230469 266.359375 420.839844 266.359375 L 428.1875 266.359375 C 428.796875 266.359375 429.289062 265.867188 429.289062 265.257812 Z M 428.386719 272.457031 C 428.386719 271.851562 427.890625 271.355469 427.28125 271.355469 L 419.933594 271.355469 C 419.324219 271.355469 418.828125 271.851562 418.828125 272.457031 C 418.828125 273.070312 419.324219 273.5625 419.933594 273.5625 L 427.28125 273.5625 C 427.890625 273.5625 428.386719 273.070312 428.386719 272.457031 Z M 427.480469 279.664062 C 427.480469 279.050781 426.984375 278.5625 426.378906 278.5625 L 419.027344 278.5625 C 418.421875 278.5625 417.925781 279.050781 417.925781 279.664062 C 417.925781 280.269531 418.421875 280.765625 419.027344 280.765625 L 426.378906 280.765625 C 426.984375 280.765625 427.480469 280.269531 427.480469 279.664062 Z M 426.578125 286.863281 C 426.578125 286.257812 426.082031 285.761719 425.472656 285.761719 L 418.125 285.761719 C 417.515625 285.761719 417.019531 286.257812 417.019531 286.863281 C 417.019531 287.476562 417.515625 287.964844 418.125 287.964844 L 425.472656 287.964844 C 426.082031 287.964844 426.578125 287.476562 426.578125 286.863281 Z M 435.59375 279.664062 C 435.59375 280.269531 436.089844 280.765625 436.695312 280.765625 L 447.816406 280.765625 C 448.421875 280.765625 448.917969 280.269531 448.917969 279.664062 C 448.917969 279.050781 448.421875 278.5625 447.816406 278.5625 L 436.695312 278.5625 C 436.089844 278.5625 435.59375 279.050781 435.59375 279.664062 Z M 436.5 272.457031 C 436.5 273.070312 436.992188 273.5625 437.601562 273.5625 L 459.257812 273.5625 C 459.863281 273.5625 460.359375 273.070312 460.359375 272.457031 C 460.359375 271.851562 459.863281 271.355469 459.257812 271.355469 L 437.601562 271.355469 C 436.992188 271.355469 436.5 271.851562 436.5 272.457031 Z M 437.402344 265.257812 C 437.402344 265.867188 437.898438 266.359375 438.503906 266.359375 L 447.792969 266.359375 C 448.40625 266.359375 448.894531 265.867188 448.894531 265.257812 C 448.894531 264.648438 448.40625 264.15625 447.792969 264.15625 L 438.503906 264.15625 C 437.898438 264.15625 437.402344 264.648438 437.402344 265.257812 Z M 439.214844 250.855469 C 439.214844 251.460938 439.710938 251.957031 440.316406 251.957031 L 453.714844 251.957031 C 454.328125 251.957031 454.816406 251.460938 454.816406 250.855469 C 454.816406 250.242188 454.328125 249.75 453.714844 249.75 L 440.316406 249.75 C 439.710938 249.75 439.214844 250.242188 439.214844 250.855469 Z M 440.121094 243.648438 C 440.121094 244.257812 440.613281 244.753906 441.222656 244.753906 L 452.339844 244.753906 C 452.953125 244.753906 453.445312 244.257812 453.445312 243.648438 C 453.445312 243.042969 452.953125 242.546875 452.339844 242.546875 L 441.222656 242.546875 C 440.613281 242.546875 440.121094 243.042969 440.121094 243.648438 Z M 441.023438 236.449219 C 441.023438 237.058594 441.519531 237.550781 442.125 237.550781 L 463.785156 237.550781 C 464.390625 237.550781 464.886719 237.058594 464.886719 236.449219 C 464.886719 235.839844 464.390625 235.347656 463.785156 235.347656 L 442.125 235.347656 C 441.519531 235.347656 441.023438 235.839844 441.023438 236.449219 Z M 441.929688 229.246094 C 441.929688 229.851562 442.425781 230.347656 443.03125 230.347656 L 452.320312 230.347656 C 452.929688 230.347656 453.421875 229.851562 453.421875 229.246094 C 453.421875 228.636719 452.929688 228.144531 452.320312 228.144531 L 443.03125 228.144531 C 442.425781 228.144531 441.929688 228.636719 441.929688 229.246094 Z M 442.835938 222.042969 C 442.835938 222.652344 443.328125 223.144531 443.941406 223.144531 L 470.738281 223.144531 C 471.34375 223.144531 471.839844 222.652344 471.839844 222.042969 C 471.839844 221.433594 471.34375 220.9375 470.738281 220.9375 L 443.941406 220.9375 C 443.328125 220.9375 442.835938 221.433594 442.835938 222.042969 Z M 475.867188 230.347656 C 476.480469 230.347656 476.96875 229.851562 476.96875 229.246094 C 476.96875 228.636719 476.480469 228.144531 475.867188 228.144531 L 457.289062 228.144531 C 456.683594 228.144531 456.1875 228.636719 456.1875 229.246094 C 456.1875 229.851562 456.683594 230.347656 457.289062 230.347656 Z M 467.085938 243.648438 C 467.085938 243.042969 466.589844 242.546875 465.984375 242.546875 L 458.621094 242.546875 C 458.007812 242.546875 457.519531 243.042969 457.519531 243.648438 C 457.519531 244.257812 458.007812 244.753906 458.621094 244.753906 L 465.984375 244.753906 C 466.589844 244.753906 467.085938 244.257812 467.085938 243.648438 Z M 471.339844 264.15625 L 452.761719 264.15625 C 452.15625 264.15625 451.660156 264.648438 451.660156 265.257812 C 451.660156 265.867188 452.15625 266.359375 452.761719 266.359375 L 471.339844 266.359375 C 471.953125 266.359375 472.445312 265.867188 472.445312 265.257812 C 472.445312 264.648438 471.953125 264.15625 471.339844 264.15625 Z M 477.742188 251.957031 C 478.347656 251.957031 478.84375 251.460938 478.84375 250.855469 C 478.84375 250.242188 478.347656 249.75 477.742188 249.75 L 458.535156 249.75 C 457.925781 249.75 457.429688 250.242188 457.429688 250.855469 C 457.429688 251.460938 457.925781 251.957031 458.535156 251.957031 Z M 500.492188 296.199219 C 500.109375 299.242188 497.328125 301.710938 494.285156 301.710938 L 413.683594 301.710938 C 410.640625 301.710938 408.480469 299.242188 408.863281 296.199219 L 419.515625 211.488281 C 419.894531 208.441406 422.675781 205.972656 425.714844 205.972656 L 506.316406 205.972656 C 509.363281 205.972656 511.519531 208.441406 511.140625 211.488281 Z M 212.34375 239.882812 L 211.320312 231.425781 C 210.328125 223.210938 212.75 215.453125 217.394531 209.460938 L 172.238281 209.460938 L 172.238281 239.757812 C 172.238281 239.800781 172.226562 239.839844 172.226562 239.882812 Z M 162.984375 208.445312 L 152.0625 208.445312 L 152.0625 234.863281 L 162.984375 234.863281 Z M 146.519531 209.460938 L 146.519531 205.140625 L 135.601562 205.140625 L 135.601562 234.863281 L 146.519531 234.863281 Z M 130.058594 212.414062 L 119.136719 212.414062 L 119.136719 234.863281 L 130.058594 234.863281 Z M 113.59375 225.683594 L 102.675781 225.683594 L 102.675781 234.863281 L 113.59375 234.863281 Z M 97.132812 221.011719 L 86.210938 221.011719 L 86.210938 234.863281 L 97.132812 234.863281 Z M 208.722656 272.5 L 42.492188 272.5 C 42.46875 272.136719 42.4375 271.765625 42.414062 271.398438 L 209.03125 271.398438 L 212.054688 260.75 C 213.355469 256.160156 213.730469 251.363281 213.15625 246.625 L 212.476562 240.984375 L 172.089844 240.984375 C 171.527344 243.433594 169.34375 245.269531 166.726562 245.269531 L 85.359375 245.269531 C 82.734375 245.269531 80.550781 243.433594 79.992188 240.984375 L 42.816406 240.984375 C 42.851562 240.613281 42.894531 240.246094 42.933594 239.882812 L 79.859375 239.882812 C 79.859375 239.839844 79.847656 239.800781 79.847656 239.757812 L 79.847656 209.460938 L 48.691406 209.460938 C 48.792969 209.09375 48.910156 208.730469 49.015625 208.359375 L 79.847656 208.359375 L 79.847656 197.074219 C 79.847656 194.027344 82.3125 191.5625 85.359375 191.5625 L 166.726562 191.5625 C 169.765625 191.5625 172.238281 194.027344 172.238281 197.074219 L 172.238281 208.359375 L 218.296875 208.359375 C 223.765625 201.960938 231.890625 197.84375 241.085938 197.84375 C 250.15625 197.84375 258.363281 201.894531 263.886719 208.359375 L 292.910156 208.359375 L 292.792969 209.460938 L 264.785156 209.460938 C 268.117188 213.753906 270.316406 218.992188 270.90625 224.75 L 271.207031 227.664062 L 277.484375 239.882812 L 289.417969 239.882812 L 289.292969 240.984375 L 277.890625 240.984375 C 277.917969 241.683594 277.480469 242.359375 276.753906 242.570312 L 274.289062 243.292969 C 273.570312 243.5 273.101562 244.179688 273.160156 244.925781 C 273.539062 249.828125 274.640625 267.320312 271.207031 269.167969 C 267.210938 271.320312 248.128906 267.464844 248.128906 267.464844 C 247.769531 268.765625 247.472656 270.078125 247.222656 271.398438 L 285.921875 271.398438 L 285.800781 272.5 L 247.03125 272.5 C 246.355469 276.59375 246.1875 280.75 246.539062 284.875 C 242.265625 283.414062 236.550781 281.175781 227.660156 279.367188 C 219.144531 277.636719 210.929688 279.589844 206.273438 281.144531 Z M 183.722656 361.269531 C 182.367188 352.707031 180.582031 343.871094 178.34375 335.542969 L 178.351562 335.542969 C 178.3125 335.394531 178.273438 335.253906 178.234375 335.109375 C 177.433594 332.164062 176.578125 329.28125 175.667969 326.503906 C 172.613281 317.21875 175.515625 307.78125 181.835938 301.683594 C 181.53125 301.824219 181.222656 301.945312 180.921875 302.09375 C 180.402344 302.351562 179.914062 302.632812 179.425781 302.917969 L 46.691406 302.917969 C 46.769531 303.289062 46.84375 303.652344 46.917969 304.019531 L 177.730469 304.019531 C 168.195312 310.863281 165.121094 323.964844 171.015625 334.4375 L 55.367188 334.4375 C 55.492188 334.804688 55.609375 335.175781 55.738281 335.542969 L 171.632812 335.542969 Z M 287.109375 524.257812 C 291.609375 524.257812 296.121094 524.015625 300.632812 523.554688 L 271.792969 523.554688 C 276.882812 524.003906 281.992188 524.257812 287.109375 524.257812 Z M 225.328125 492.070312 C 224.257812 492.070312 223.21875 492.058594 222.191406 492.035156 L 180.875 492.035156 C 181.480469 492.40625 182.09375 492.769531 182.699219 493.136719 L 380.9375 493.136719 C 381.507812 492.773438 382.070312 492.402344 382.632812 492.035156 L 226.671875 492.035156 C 226.21875 492.039062 225.789062 492.070312 225.328125 492.070312 Z M 181.5625 460.515625 L 139.082031 460.515625 C 139.484375 460.882812 139.890625 461.25 140.292969 461.617188 L 181.625 461.617188 C 181.605469 461.25 181.582031 460.882812 181.5625 460.515625 Z M 274.691406 461.617188 L 421.398438 461.617188 C 421.796875 461.25 422.191406 460.882812 422.589844 460.515625 L 275.082031 460.515625 C 274.957031 460.875 274.828125 461.238281 274.691406 461.617188 Z M 182.433594 428.996094 L 109.023438 428.996094 C 109.332031 429.367188 109.644531 429.726562 109.957031 430.097656 L 182.320312 430.097656 C 182.355469 429.726562 182.394531 429.363281 182.433594 428.996094 Z M 187.011719 397.472656 L 86.039062 397.472656 C 86.277344 397.84375 86.511719 398.210938 86.75 398.578125 L 187.011719 398.578125 C 187.011719 398.21875 187.011719 397.851562 187.011719 397.472656 Z M 356.878906 413.285156 C 359.460938 413.703125 362.003906 414.105469 364.460938 414.480469 L 364.183594 414.042969 L 357.640625 412.65625 Z M 414.503906 428.996094 L 431.097656 428.996094 L 425.847656 425.335938 L 416.460938 427.480469 Z M 287.207031 365.957031 L 497.472656 365.957031 C 497.257812 366.324219 497.046875 366.691406 496.832031 367.058594 L 287.765625 367.058594 C 294.75 380.589844 301.152344 391.835938 305.015625 397.472656 L 477.238281 397.472656 C 476.976562 397.84375 476.71875 398.210938 476.460938 398.578125 L 305.792969 398.578125 C 306.796875 399.972656 307.582031 400.886719 308.097656 401.226562 C 312.191406 403.957031 322.316406 406.695312 334.140625 409.148438 L 352.898438 402.070312 C 354.816406 401.351562 356.960938 401.59375 358.660156 402.730469 L 367.929688 408.925781 L 371.796875 415.574219 C 379.03125 416.621094 384.976562 417.402344 388.289062 417.824219 L 398.558594 417.4375 L 420.585938 409.828125 C 422.5625 409.148438 424.75 409.457031 426.457031 410.671875 L 435.742188 417.261719 L 442.125 428.996094 L 452.773438 428.996094 C 452.457031 429.363281 452.144531 429.734375 451.828125 430.097656 L 442.726562 430.097656 L 442.941406 430.496094 C 443.351562 431.25 443.039062 432.191406 442.261719 432.546875 C 440.707031 432.441406 438.925781 431.664062 437.480469 430.585938 L 437.855469 433.121094 C 438.027344 434.28125 437.078125 435.304688 435.914062 435.21875 C 434.089844 435.089844 432.59375 433.738281 432.277344 431.9375 L 431.957031 430.097656 L 413.082031 430.097656 L 408.566406 433.589844 C 406.441406 435.230469 403.964844 436.328125 401.351562 436.808594 C 399.648438 437.117188 397.894531 437.066406 396.183594 436.832031 L 385.765625 435.394531 L 308.222656 434.84375 C 298.859375 434.453125 291.964844 432.671875 286.71875 430.097656 L 266.941406 430.097656 C 266.882812 429.921875 266.832031 429.746094 266.78125 429.566406 L 266.777344 429.566406 C 266.734375 429.417969 266.691406 429.273438 266.648438 429.121094 C 266.632812 429.082031 266.621094 429.039062 266.609375 428.996094 L 266.613281 428.996094 C 264.953125 423.371094 263.761719 417.542969 263.761719 412.390625 C 263.761719 409.457031 264.195312 406.367188 264.902344 403.164062 C 265.082031 403.195312 265.269531 403.230469 265.453125 403.265625 L 253.824219 380.8125 C 253.210938 380.941406 252.585938 381.011719 251.949219 381.011719 C 246.160156 381.011719 240.453125 375.585938 236.164062 367.058594 L 68.941406 367.058594 C 68.765625 366.691406 68.582031 366.328125 68.398438 365.957031 L 235.625 365.957031 C 232.476562 359.316406 230.164062 350.964844 229.277344 341.882812 C 228.566406 334.601562 228.863281 327.789062 229.960938 321.949219 C 229.875 314.316406 231.933594 307.648438 237.625 304.996094 C 238.082031 304.78125 238.542969 304.613281 239 304.4375 C 240.628906 303.347656 242.402344 302.757812 244.304688 302.757812 C 245.082031 302.757812 245.851562 302.867188 246.617188 303.050781 C 254.253906 303.222656 261.042969 308.097656 264.261719 316.1875 C 270.695312 332.371094 279.28125 350.558594 287.195312 365.957031 Z M 278.8125 335.542969 L 278.933594 334.4375 L 274.523438 334.4375 C 274.648438 334.804688 274.773438 335.175781 274.894531 335.542969 Z M 282.429688 302.917969 L 260.839844 302.917969 C 260.960938 303.144531 261.09375 303.371094 261.207031 303.597656 C 261.277344 303.734375 261.351562 303.882812 261.417969 304.019531 L 282.308594 304.019531 Z M 541.078125 176.84375 L 62.046875 176.84375 C 61.851562 177.207031 61.65625 177.578125 61.460938 177.945312 L 541.34375 177.945312 C 541.253906 177.578125 541.167969 177.207031 541.078125 176.84375 " fill-opacity="1" fill-rule="nonzero"/></g><g clip-path="url(#4b21071a36)"><path fill="#393a3f" d="M 421.078125 400.875 L 390.023438 400.972656 L 374.5 401.023438 L 358.976562 401.175781 L 358.976562 401.675781 L 374.5 401.828125 L 390.023438 401.878906 L 421.078125 401.972656 L 452.125 401.859375 L 467.65625 401.796875 L 483.179688 401.636719 L 483.179688 401.214844 L 467.65625 401.058594 L 452.125 400.992188 Z M 408.054688 156.78125 L 396.835938 156.78125 L 396.835938 157.882812 L 408.054688 157.882812 Z M 413.898438 154.203125 L 413.898438 153.101562 L 406.757812 153.101562 L 406.757812 154.203125 Z M 403.976562 153.101562 L 396.835938 153.101562 L 396.835938 154.203125 L 403.976562 154.203125 Z M 413.898438 149.429688 L 396.835938 149.429688 L 396.835938 150.53125 L 413.898438 150.53125 Z M 421.558594 72.667969 C 423.152344 72.667969 424.445312 71.378906 424.445312 69.785156 C 424.445312 68.195312 423.152344 66.902344 421.558594 66.902344 C 419.964844 66.902344 418.679688 68.195312 418.679688 69.785156 C 418.679688 71.378906 419.964844 72.667969 421.558594 72.667969 Z M 264.84375 72.667969 C 266.4375 72.667969 267.726562 71.378906 267.726562 69.785156 C 267.726562 68.195312 266.4375 66.902344 264.84375 66.902344 C 263.25 66.902344 261.957031 68.195312 261.957031 69.785156 C 261.957031 71.378906 263.25 72.667969 264.84375 72.667969 Z M 152.191406 159.167969 L 140.96875 159.167969 L 140.96875 160.273438 L 152.191406 160.273438 Z M 158.035156 156.59375 L 158.035156 155.492188 L 150.890625 155.492188 L 150.890625 156.59375 Z M 148.113281 155.492188 L 140.96875 155.492188 L 140.96875 156.59375 L 148.113281 156.59375 Z M 158.035156 151.820312 L 140.96875 151.820312 L 140.96875 152.921875 L 158.035156 152.921875 Z M 111.632812 72.667969 C 113.21875 72.667969 114.511719 71.378906 114.511719 69.785156 C 114.511719 68.195312 113.21875 66.902344 111.632812 66.902344 C 110.039062 66.902344 108.746094 68.195312 108.746094 69.785156 C 108.746094 71.378906 110.039062 72.667969 111.632812 72.667969 Z M 91.121094 240.15625 L 92.222656 240.15625 L 92.222656 238.980469 L 107.582031 238.980469 L 107.582031 240.15625 L 108.6875 240.15625 L 108.6875 238.980469 L 124.046875 238.980469 L 124.046875 240.15625 L 125.148438 240.15625 L 125.148438 238.980469 L 140.511719 238.980469 L 140.511719 240.15625 L 141.613281 240.15625 L 141.613281 238.980469 L 156.972656 238.980469 L 156.972656 240.15625 L 158.074219 240.15625 L 158.074219 238.980469 L 163.09375 238.980469 L 163.09375 237.878906 L 158.074219 237.878906 L 158.074219 236.703125 L 156.972656 236.703125 L 156.972656 237.878906 L 141.613281 237.878906 L 141.613281 236.703125 L 140.511719 236.703125 L 140.511719 237.878906 L 125.148438 237.878906 L 125.148438 236.703125 L 124.046875 236.703125 L 124.046875 237.878906 L 108.6875 237.878906 L 108.6875 236.703125 L 107.582031 236.703125 L 107.582031 237.878906 L 92.222656 237.878906 L 92.222656 236.703125 L 91.121094 236.703125 L 91.121094 237.878906 L 86.210938 237.878906 L 86.210938 238.980469 L 91.121094 238.980469 Z M 449.027344 197.84375 C 449.027344 197.238281 448.53125 196.742188 447.921875 196.742188 L 305.496094 196.742188 C 304.882812 196.742188 304.390625 197.238281 304.390625 197.84375 C 304.390625 198.457031 304.882812 198.945312 305.496094 198.945312 L 447.921875 198.945312 C 448.53125 198.945312 449.027344 198.457031 449.027344 197.84375 Z M 416.816406 354.632812 L 409.46875 354.632812 C 408.855469 354.632812 408.363281 355.125 408.363281 355.734375 C 408.363281 356.34375 408.855469 356.835938 409.46875 356.835938 L 416.816406 356.835938 C 417.425781 356.835938 417.921875 356.34375 417.921875 355.734375 C 417.921875 355.125 417.425781 354.632812 416.816406 354.632812 Z M 418.824219 348.535156 C 418.824219 347.921875 418.328125 347.429688 417.722656 347.429688 L 410.371094 347.429688 C 409.765625 347.429688 409.269531 347.921875 409.269531 348.535156 C 409.269531 349.140625 409.765625 349.636719 410.371094 349.636719 L 417.722656 349.636719 C 418.328125 349.636719 418.824219 349.140625 418.824219 348.535156 Z M 420.632812 334.125 C 420.632812 333.515625 420.144531 333.023438 419.53125 333.023438 L 412.179688 333.023438 C 411.574219 333.023438 411.078125 333.515625 411.078125 334.125 C 411.078125 334.734375 411.574219 335.226562 412.179688 335.226562 L 419.53125 335.226562 C 420.144531 335.226562 420.632812 334.734375 420.632812 334.125 Z M 421.539062 326.925781 C 421.539062 326.316406 421.046875 325.820312 420.4375 325.820312 L 413.089844 325.820312 C 412.476562 325.820312 411.988281 326.316406 411.988281 326.925781 C 411.988281 327.53125 412.476562 328.027344 413.089844 328.027344 L 420.4375 328.027344 C 421.046875 328.027344 421.539062 327.53125 421.539062 326.925781 Z M 422.445312 319.722656 C 422.445312 319.113281 421.953125 318.621094 421.34375 318.621094 L 413.992188 318.621094 C 413.386719 318.621094 412.890625 319.113281 412.890625 319.722656 C 412.890625 320.332031 413.386719 320.828125 413.992188 320.828125 L 421.34375 320.828125 C 421.953125 320.828125 422.445312 320.332031 422.445312 319.722656 Z M 317.917969 315.464844 C 317.808594 316.367188 318.445312 317.097656 319.34375 317.097656 C 320.242188 317.097656 321.066406 316.367188 321.179688 315.464844 C 321.292969 314.566406 320.65625 313.832031 319.753906 313.832031 C 318.851562 313.832031 318.035156 314.566406 317.917969 315.464844 Z M 331.214844 214.011719 C 331.105469 214.910156 331.742188 215.636719 332.640625 215.636719 C 333.542969 215.636719 334.363281 214.910156 334.476562 214.011719 C 334.589844 213.109375 333.953125 212.378906 333.050781 212.378906 C 332.152344 212.378906 331.328125 213.109375 331.214844 214.011719 Z M 347.535156 252.742188 C 346.925781 252.742188 346.429688 253.230469 346.429688 253.84375 C 346.429688 254.449219 346.925781 254.945312 347.535156 254.945312 L 361.042969 254.945312 C 361.648438 254.945312 362.144531 254.449219 362.144531 253.84375 C 362.144531 253.230469 361.648438 252.742188 361.042969 252.742188 Z M 426.578125 286.863281 C 426.578125 286.257812 426.082031 285.761719 425.472656 285.761719 L 418.125 285.761719 C 417.515625 285.761719 417.019531 286.257812 417.019531 286.863281 C 417.019531 287.476562 417.515625 287.964844 418.125 287.964844 L 425.472656 287.964844 C 426.082031 287.964844 426.578125 287.476562 426.578125 286.863281 Z M 427.480469 279.664062 C 427.480469 279.050781 426.984375 278.5625 426.378906 278.5625 L 419.027344 278.5625 C 418.421875 278.5625 417.925781 279.050781 417.925781 279.664062 C 417.925781 280.269531 418.421875 280.765625 419.027344 280.765625 L 426.378906 280.765625 C 426.984375 280.765625 427.480469 280.269531 427.480469 279.664062 Z M 428.386719 272.457031 C 428.386719 271.851562 427.890625 271.355469 427.28125 271.355469 L 419.933594 271.355469 C 419.324219 271.355469 418.828125 271.851562 418.828125 272.457031 C 418.828125 273.070312 419.324219 273.5625 419.933594 273.5625 L 427.28125 273.5625 C 427.890625 273.5625 428.386719 273.070312 428.386719 272.457031 Z M 429.289062 265.257812 C 429.289062 264.648438 428.796875 264.15625 428.1875 264.15625 L 420.839844 264.15625 C 420.230469 264.15625 419.738281 264.648438 419.738281 265.257812 C 419.738281 265.867188 420.230469 266.359375 420.839844 266.359375 L 428.1875 266.359375 C 428.796875 266.359375 429.289062 265.867188 429.289062 265.257812 Z M 431.101562 250.855469 C 431.101562 250.242188 430.605469 249.75 430 249.75 L 422.648438 249.75 C 422.042969 249.75 421.546875 250.242188 421.546875 250.855469 C 421.546875 251.460938 422.042969 251.957031 422.648438 251.957031 L 430 251.957031 C 430.605469 251.957031 431.101562 251.460938 431.101562 250.855469 Z M 432.007812 243.648438 C 432.007812 243.042969 431.511719 242.546875 430.90625 242.546875 L 423.554688 242.546875 C 422.945312 242.546875 422.449219 243.042969 422.449219 243.648438 C 422.449219 244.257812 422.945312 244.753906 423.554688 244.753906 L 430.90625 244.753906 C 431.511719 244.753906 432.007812 244.257812 432.007812 243.648438 Z M 432.910156 236.449219 C 432.910156 235.839844 432.421875 235.347656 431.808594 235.347656 L 424.460938 235.347656 C 423.851562 235.347656 423.359375 235.839844 423.359375 236.449219 C 423.359375 237.058594 423.851562 237.550781 424.460938 237.550781 L 431.808594 237.550781 C 432.421875 237.550781 432.910156 237.058594 432.910156 236.449219 Z M 433.816406 229.246094 C 433.816406 228.636719 433.324219 228.144531 432.714844 228.144531 L 425.367188 228.144531 C 424.753906 228.144531 424.265625 228.636719 424.265625 229.246094 C 424.265625 229.851562 424.753906 230.347656 425.367188 230.347656 L 432.714844 230.347656 C 433.324219 230.347656 433.816406 229.851562 433.816406 229.246094 Z M 434.71875 222.042969 C 434.71875 221.433594 434.230469 220.9375 433.617188 220.9375 L 426.269531 220.9375 C 425.664062 220.9375 425.167969 221.433594 425.167969 222.042969 C 425.167969 222.652344 425.664062 223.144531 426.269531 223.144531 L 433.617188 223.144531 C 434.230469 223.144531 434.71875 222.652344 434.71875 222.042969 Z M 265.808594 227.210938 L 270.992188 226.953125 C 271.246094 223.929688 272.121094 221.144531 273.550781 220.4375 C 272.027344 220.28125 270.542969 220.324219 269.417969 220.816406 C 269.34375 216.992188 267.832031 214.957031 266.882812 212.554688 C 266.867188 215.300781 267.617188 214.457031 267.328125 218.140625 C 267.167969 220.179688 267.582031 222.273438 267.105469 224.261719 C 266.855469 225.316406 266.363281 226.277344 265.808594 227.210938 Z M 272.097656 226.898438 L 276.417969 226.683594 C 276.089844 223.382812 275.035156 221.371094 274.269531 221.371094 C 273.484375 221.371094 272.402344 223.476562 272.097656 226.898438 Z M 276.5 227.78125 L 272.027344 228.003906 C 272.015625 228.261719 272.011719 228.527344 272.011719 228.796875 C 272.011719 233.332031 273.347656 236.226562 274.269531 236.226562 C 275.1875 236.226562 276.527344 233.332031 276.527344 228.796875 C 276.527344 228.449219 276.511719 228.113281 276.5 227.78125 Z M 172.550781 272.09375 C 171.351562 264.210938 173.652344 255.867188 178.71875 249.71875 C 180.574219 247.460938 182.871094 245.320312 183.445312 242.457031 C 184.03125 239.503906 182.628906 236.566406 181.988281 233.625 C 180.769531 228.007812 182.503906 221.835938 186.476562 217.679688 C 189.519531 214.492188 193.734375 212.46875 196.308594 208.886719 C 198.464844 205.882812 199.222656 202.136719 200.699219 198.753906 C 204.847656 189.261719 215.332031 182.945312 225.660156 183.710938 C 228.53125 180.136719 234.085938 178.460938 238.601562 179.257812 C 243.113281 180.054688 247.125 182.617188 250.636719 185.5625 C 261.683594 183.871094 275.566406 194.40625 279.425781 221.75 C 278.386719 221.4375 276.9375 221.023438 275.414062 220.722656 C 276.859375 221.949219 277.628906 225.460938 277.628906 228.796875 C 277.628906 232.929688 276.449219 237.328125 274.269531 237.328125 C 272.085938 237.328125 270.910156 232.929688 270.910156 228.796875 C 270.910156 228.550781 270.914062 228.308594 270.921875 228.0625 L 268.425781 228.1875 C 268.902344 228.441406 269.261719 229.382812 269.261719 230.515625 C 269.261719 231.84375 268.769531 232.917969 268.167969 232.917969 C 267.558594 232.917969 267.074219 231.84375 267.074219 230.515625 C 267.074219 229.417969 267.410156 228.5 267.867188 228.210938 L 265.101562 228.351562 C 264.445312 229.378906 263.785156 230.40625 263.335938 231.535156 C 261.289062 236.707031 264.1875 242.574219 263.375 248.082031 C 262.863281 251.535156 260.929688 254.601562 259.882812 257.933594 C 258.402344 262.660156 259.441406 269.203125 261.617188 273.65625 L 246.320312 273.65625 C 245.363281 270.050781 244.132812 266.78125 243.996094 263.058594 C 242.980469 266.957031 242.53125 270.507812 242.191406 274.527344 C 240.308594 269.445312 239.066406 264.5 238.941406 259.085938 C 238.402344 263.421875 238.214844 267.757812 237.679688 272.09375 Z M 275.925781 420.871094 C 277.621094 422.996094 279.476562 425.007812 281.507812 426.839844 C 283.527344 428.671875 285.773438 430.300781 288.246094 431.550781 C 289.492188 432.148438 290.804688 432.628906 292.15625 432.972656 C 293.539062 433.273438 294.871094 433.417969 296.210938 433.609375 C 298.898438 433.949219 301.585938 434.285156 304.277344 434.523438 C 309.664062 435.039062 315.0625 435.375 320.476562 435.472656 C 320.609375 435.472656 320.726562 435.371094 320.730469 435.234375 C 320.738281 435.097656 320.632812 434.980469 320.492188 434.972656 C 317.800781 434.824219 315.109375 434.601562 312.429688 434.359375 C 309.742188 434.125 307.058594 433.863281 304.378906 433.554688 C 301.699219 433.238281 299.023438 432.933594 296.351562 432.5625 C 295.023438 432.367188 293.664062 432.203125 292.410156 431.921875 C 291.144531 431.59375 289.914062 431.132812 288.730469 430.558594 C 283.980469 428.207031 280.078125 424.363281 276.648438 420.28125 C 274.925781 418.226562 273.328125 416.058594 271.828125 413.828125 C 270.3125 411.605469 268.882812 409.316406 267.601562 406.957031 L 267.597656 406.949219 C 267.542969 406.847656 267.421875 406.808594 267.320312 406.863281 C 267.214844 406.914062 267.171875 407.039062 267.222656 407.140625 C 269.636719 412.003906 272.535156 416.617188 275.925781 420.871094 Z M 239.03125 354.234375 C 238.417969 353.867188 237.855469 353.441406 237.3125 352.980469 C 236.773438 352.511719 236.277344 351.984375 235.785156 351.425781 C 235.722656 351.363281 235.628906 351.335938 235.542969 351.371094 C 235.433594 351.414062 235.378906 351.539062 235.421875 351.648438 C 235.996094 353.09375 237.113281 354.328125 238.445312 355.167969 C 239.117188 355.585938 239.828125 355.925781 240.566406 356.160156 C 241.191406 356.359375 241.824219 356.492188 242.46875 356.574219 C 244.589844 361.410156 246.792969 366.210938 249.011719 371.003906 C 251.542969 376.335938 254.09375 381.65625 256.710938 386.945312 C 259.335938 392.234375 262.007812 397.492188 264.808594 402.695312 C 264.867188 402.8125 265.019531 402.863281 265.136719 402.800781 C 265.261719 402.742188 265.3125 402.589844 265.25 402.464844 C 263.945312 399.820312 262.675781 397.160156 261.410156 394.5 L 257.589844 386.519531 L 250.007812 370.535156 C 247.476562 365.210938 245.003906 359.855469 242.5625 354.492188 C 241.339844 351.808594 240.144531 349.113281 238.988281 346.410156 C 237.84375 343.703125 236.660156 340.988281 235.804688 338.191406 L 235.800781 338.175781 C 235.769531 338.070312 235.65625 338.007812 235.542969 338.039062 C 235.429688 338.070312 235.367188 338.183594 235.398438 338.296875 C 237.03125 344.011719 239.398438 349.4375 241.710938 354.867188 C 241.84375 355.167969 241.980469 355.472656 242.113281 355.773438 C 241.714844 355.601562 241.308594 355.433594 240.925781 355.25 C 240.269531 354.9375 239.628906 354.613281 239.03125 354.234375 Z M 267.964844 249.558594 C 268.382812 249.824219 268.851562 249.992188 269.328125 250.109375 C 269.8125 250.203125 270.300781 250.25 270.78125 250.203125 C 271.023438 250.1875 271.253906 250.140625 271.492188 250.105469 C 271.722656 250.035156 271.953125 249.976562 272.171875 249.886719 C 272.242188 249.855469 272.292969 249.789062 272.304688 249.71875 C 272.324219 249.597656 272.242188 249.484375 272.121094 249.46875 C 271.210938 249.324219 270.378906 249.230469 269.574219 249.035156 C 269.175781 248.941406 268.789062 248.816406 268.394531 248.683594 C 268.011719 248.550781 267.621094 248.367188 267.257812 248.1875 L 267.210938 248.164062 C 267.136719 248.128906 267.050781 248.128906 266.972656 248.175781 C 266.855469 248.246094 266.816406 248.398438 266.882812 248.515625 C 267.160156 248.984375 267.542969 249.292969 267.964844 249.558594 Z M 496.066406 436.683594 L 476.976562 407.980469 L 476.976562 407.730469 L 463.171875 407.578125 L 449.367188 407.53125 L 421.75 407.429688 L 394.132812 407.550781 L 380.328125 407.609375 L 366.515625 407.769531 L 366.515625 408.191406 L 366.839844 408.195312 L 367.929688 408.925781 L 371.585938 415.210938 L 365.144531 414.292969 C 365.183594 414.277344 365.226562 414.265625 365.265625 414.242188 C 365.515625 414.117188 365.726562 413.929688 365.917969 413.726562 C 366.09375 413.511719 366.253906 413.277344 366.347656 413.015625 C 366.441406 412.753906 366.507812 412.476562 366.476562 412.183594 C 366.46875 412.132812 366.445312 412.078125 366.414062 412.035156 C 366.3125 411.917969 366.136719 411.90625 366.019531 412.003906 L 366.007812 412.011719 C 365.804688 412.183594 365.660156 412.355469 365.503906 412.519531 C 365.347656 412.679688 365.21875 412.847656 365.082031 413.011719 C 364.949219 413.179688 364.804688 413.339844 364.675781 413.523438 C 364.539062 413.703125 364.398438 413.886719 364.257812 414.113281 L 364.25 414.121094 C 364.25 414.132812 364.25 414.136719 364.246094 414.144531 L 364.183594 414.042969 L 357.835938 412.703125 C 357.871094 412.546875 357.917969 412.394531 357.945312 412.246094 C 358.058594 411.714844 358.089844 411.175781 358.09375 410.636719 C 358.078125 410.097656 358.035156 409.558594 357.917969 409.03125 C 357.804688 408.507812 357.648438 407.984375 357.398438 407.503906 C 357.355469 407.421875 357.269531 407.367188 357.175781 407.367188 C 357.035156 407.363281 356.914062 407.476562 356.914062 407.621094 C 356.902344 408.144531 356.933594 408.648438 356.945312 409.152344 L 356.988281 410.65625 L 357.019531 412.160156 C 357.023438 412.480469 357.035156 412.8125 357.039062 413.140625 L 353.871094 412.6875 C 342.855469 411.039062 331.832031 409.363281 320.914062 407.210938 C 318.195312 406.667969 315.460938 406.117188 312.828125 405.339844 C 312.183594 405.140625 311.519531 404.925781 310.96875 404.640625 C 310.671875 404.476562 310.621094 404.441406 310.398438 404.089844 L 309.839844 403.246094 C 309.109375 402.066406 308.378906 400.878906 307.667969 399.683594 C 304.820312 394.902344 302.027344 390.074219 299.242188 385.253906 L 289.378906 368.128906 L 407.152344 368.128906 L 413.636719 392.929688 L 460.363281 392.929688 L 453.882812 368.128906 L 524.84375 368.128906 C 531.769531 368.128906 537.582031 362.921875 538.34375 356.042969 L 555.417969 202.03125 C 556.308594 193.984375 550.015625 186.949219 541.917969 186.949219 L 302.808594 186.949219 C 295.882812 186.949219 290.070312 192.15625 289.308594 199.035156 L 274.351562 333.945312 C 275.765625 338.074219 276.925781 342.101562 277.675781 345.800781 L 293.890625 199.546875 C 294.394531 194.992188 298.226562 191.5625 302.808594 191.5625 L 541.917969 191.5625 C 544.5 191.5625 546.878906 192.625 548.601562 194.550781 C 550.328125 196.476562 551.121094 198.949219 550.835938 201.523438 L 533.761719 355.535156 C 533.257812 360.082031 529.421875 363.515625 524.84375 363.515625 L 416.824219 363.515625 C 416.933594 363.347656 417.011719 363.152344 417.011719 362.9375 C 417.011719 362.328125 416.519531 361.835938 415.910156 361.835938 L 408.5625 361.835938 C 407.953125 361.835938 407.460938 362.328125 407.460938 362.9375 C 407.460938 363.152344 407.539062 363.347656 407.648438 363.515625 L 286.722656 363.515625 L 282.550781 356.277344 C 282.496094 356.179688 282.371094 356.144531 282.265625 356.199219 C 282.167969 356.253906 282.128906 356.382812 282.183594 356.488281 L 286.074219 363.515625 L 285.949219 363.515625 C 286.746094 365.082031 287.539062 366.621094 288.320312 368.128906 L 288.617188 368.128906 L 290.273438 371.121094 L 298.492188 385.683594 C 301.25 390.527344 304 395.371094 306.824219 400.183594 C 307.527344 401.386719 308.25 402.585938 308.984375 403.78125 L 309.570312 404.679688 C 309.695312 404.84375 309.703125 404.945312 309.9375 405.164062 C 310.136719 405.363281 310.304688 405.441406 310.480469 405.542969 C 311.171875 405.902344 311.84375 406.117188 312.523438 406.335938 C 315.230469 407.15625 317.964844 407.722656 320.703125 408.289062 C 331.671875 410.398438 342.710938 412 353.742188 413.589844 L 370.3125 415.863281 L 386.910156 417.898438 C 387.042969 417.910156 387.171875 417.816406 387.1875 417.683594 C 387.207031 417.546875 387.109375 417.421875 386.976562 417.402344 L 380.84375 416.53125 L 386.265625 408.378906 L 394.132812 408.414062 L 421.75 408.527344 L 449.367188 408.433594 L 463.171875 408.386719 L 469.847656 408.308594 L 488.71875 436.683594 L 481.726562 436.683594 L 471.710938 425.347656 L 467.089844 428.382812 L 475.648438 436.683594 L 447.910156 436.683594 L 473.132812 420.675781 L 437.597656 420.675781 L 442.941406 430.496094 C 443.351562 431.25 443.039062 432.191406 442.261719 432.546875 C 440.816406 432.445312 439.183594 431.765625 437.800781 430.804688 C 437.800781 430.769531 437.8125 430.746094 437.800781 430.714844 C 437.203125 429.316406 437.191406 427.769531 437.003906 426.179688 C 436.917969 425.378906 436.742188 424.5625 436.429688 423.769531 C 436.113281 422.976562 435.667969 422.257812 435.144531 421.605469 C 434.074219 420.335938 432.78125 419.332031 431.476562 418.445312 C 430.171875 417.550781 428.867188 416.710938 427.695312 415.683594 C 427.621094 415.617188 427.507812 415.613281 427.425781 415.679688 C 427.335938 415.753906 427.320312 415.882812 427.394531 415.972656 C 428.410156 417.234375 429.699219 418.222656 430.925781 419.195312 C 432.152344 420.164062 433.371094 421.117188 434.292969 422.300781 C 434.761719 422.875 435.171875 423.496094 435.453125 424.164062 C 435.746094 424.832031 435.882812 425.566406 436.039062 426.320312 C 436.265625 427.550781 436.40625 428.90625 436.941406 430.140625 C 436.265625 429.558594 435.679688 428.921875 435.28125 428.253906 L 431.765625 422.382812 L 425.519531 420.875 C 425.507812 420.855469 425.5 420.839844 425.488281 420.828125 C 425.429688 420.761719 425.339844 420.726562 425.253906 420.757812 C 425.234375 420.765625 425.222656 420.789062 425.207031 420.796875 L 425.125 420.78125 L 416.339844 427.574219 C 416.347656 427.523438 416.359375 427.476562 416.363281 427.429688 C 416.414062 426.96875 416.382812 426.507812 416.316406 426.050781 C 416.238281 425.59375 416.117188 425.144531 415.925781 424.722656 C 415.738281 424.304688 415.507812 423.902344 415.195312 423.558594 C 415.132812 423.496094 415.042969 423.460938 414.957031 423.480469 C 414.816406 423.5 414.722656 423.640625 414.746094 423.78125 C 414.816406 424.214844 414.917969 424.621094 414.996094 425.027344 C 415.070312 425.433594 415.164062 425.832031 415.230469 426.234375 C 415.3125 426.636719 415.363281 427.042969 415.433594 427.449219 C 415.46875 427.691406 415.507812 427.941406 415.546875 428.191406 L 408.566406 433.589844 C 406.582031 435.125 404.285156 436.15625 401.867188 436.683594 L 395.085938 436.683594 L 386.488281 435.496094 C 387.015625 435.023438 387.488281 434.476562 387.820312 433.832031 C 388.246094 433.042969 388.449219 432.113281 388.316406 431.242188 C 388.296875 431.140625 388.210938 431.050781 388.097656 431.03125 C 387.960938 431.015625 387.835938 431.109375 387.816406 431.25 C 387.699219 432.023438 387.421875 432.726562 387 433.339844 C 386.820312 433.59375 386.609375 433.832031 386.394531 434.066406 C 386.382812 433.554688 386.316406 433.058594 386.195312 432.566406 C 385.96875 431.617188 385.570312 430.714844 384.976562 429.964844 C 384.921875 429.890625 384.820312 429.863281 384.734375 429.894531 C 384.625 429.9375 384.574219 430.058594 384.609375 430.171875 C 384.929688 431.019531 385.164062 431.867188 385.261719 432.734375 C 385.359375 433.597656 385.355469 434.464844 385.222656 435.308594 C 385.21875 435.339844 385.226562 435.363281 385.226562 435.394531 L 326.011719 434.96875 L 323.417969 436.683594 L 269.171875 436.683594 C 269.308594 437.054688 269.445312 437.417969 269.585938 437.785156 L 555.503906 437.785156 L 555.503906 436.683594 Z M 105.617188 436.683594 L 105.617188 437.785156 L 228.890625 437.785156 C 236.359375 437.785156 238.507812 436.683594 238.507812 436.683594 C 239.484375 436.421875 240.414062 436.066406 241.296875 435.636719 C 247.621094 432.539062 251.433594 425.335938 249.628906 417.910156 L 228.53125 331.117188 C 226.828125 324.109375 220.550781 319.175781 213.34375 319.175781 L 95.484375 319.175781 C 85.359375 319.175781 77.902344 328.660156 80.292969 338.5 L 101.390625 425.292969 C 102.761719 430.929688 107.09375 435.214844 112.484375 436.683594 Z M 276.757812 453.894531 C 276.757812 453.894531 276.734375 454.097656 276.671875 454.445312 L 276.675781 454.445312 C 275.90625 459.050781 268.886719 492.070312 225.328125 492.070312 C 209.382812 492.070312 197.851562 489.433594 191.4375 487.449219 C 193.714844 500.488281 205.082031 510.402344 218.773438 510.402344 L 302.566406 510.402344 C 323.316406 510.402344 343.558594 501.757812 343.558594 501.757812 L 337.050781 540.320312 L 379.769531 540.320312 C 379.769531 540.320312 384.714844 501.757812 386.847656 475.886719 C 388.09375 460.738281 376.9375 455.875 367.472656 454.445312 L 444.328125 454.445312 L 439.335938 497.410156 L 455.132812 500.027344 L 460.429688 454.445312 L 517.308594 454.445312 L 523.921875 511.425781 L 540.335938 514.144531 L 533.410156 454.445312 L 555.503906 454.445312 L 555.503906 453.34375 L 276.472656 453.34375 C 276.65625 453.695312 276.757812 453.894531 276.757812 453.894531 Z M 181.324219 453.34375 L 105.617188 453.34375 L 105.617188 454.445312 L 142.039062 454.445312 C 142.003906 454.609375 142.019531 454.78125 141.972656 454.945312 L 141.828125 456.058594 C 141.714844 456.796875 141.675781 457.546875 141.605469 458.292969 L 141.417969 461.65625 L 141.386719 462.21875 C 141.402344 462.410156 141.261719 462.582031 141.621094 462.808594 C 142.027344 462.667969 141.925781 462.46875 141.988281 462.289062 L 142.085938 461.730469 L 142.285156 460.625 L 142.679688 458.417969 C 142.773438 457.671875 142.910156 456.933594 142.972656 456.191406 L 143.085938 455.074219 C 143.070312 454.863281 143.164062 454.660156 143.125 454.445312 L 181.34375 454.445312 C 181.335938 454.082031 181.328125 453.714844 181.324219 453.34375 Z M 368.605469 214.003906 C 368.605469 213.398438 368.109375 212.902344 367.503906 212.902344 L 351.085938 212.902344 C 350.480469 212.902344 349.984375 213.398438 349.984375 214.003906 C 349.984375 214.617188 350.480469 215.109375 351.085938 215.109375 L 367.503906 215.109375 C 368.109375 215.109375 368.605469 214.617188 368.605469 214.003906 Z M 325.042969 214.011719 C 324.929688 214.910156 325.566406 215.636719 326.464844 215.636719 C 327.367188 215.636719 328.1875 214.910156 328.300781 214.011719 C 328.417969 213.109375 327.78125 212.378906 326.875 212.378906 C 325.980469 212.378906 325.15625 213.109375 325.042969 214.011719 Z M 320.296875 215.636719 C 319.394531 215.636719 318.753906 214.910156 318.871094 214.011719 C 318.980469 213.109375 319.804688 212.378906 320.703125 212.378906 C 321.605469 212.378906 322.242188 213.109375 322.128906 214.011719 C 322.019531 214.910156 321.195312 215.636719 320.296875 215.636719 " fill-opacity="1" fill-rule="nonzero"/></g><g clip-path="url(#2f8b5f4fbb)"><path fill="#777b85" d="M 474.683594 392.929688 L 465.804688 392.929688 L 459.320312 368.128906 L 453.882812 368.128906 L 460.363281 392.929688 L 367.46875 392.929688 C 362.777344 392.929688 358.976562 396.734375 358.976562 401.425781 L 483.179688 401.425781 C 483.179688 396.734375 479.375 392.929688 474.683594 392.929688 Z M 174.253906 392.351562 L 155.953125 392.351562 C 154.78125 392.351562 153.789062 393.226562 153.65625 394.390625 L 138.839844 522.785156 C 138.683594 524.15625 139.757812 525.363281 141.132812 525.363281 L 159.441406 525.363281 C 160.613281 525.363281 161.597656 524.484375 161.734375 523.316406 L 176.550781 394.925781 C 176.710938 393.550781 175.636719 392.351562 174.253906 392.351562 Z M 447.078125 437.207031 L 454.507812 437.207031 L 471.417969 426.09375 L 481.246094 437.207031 L 486.730469 437.207031 L 473.132812 420.675781 Z M 549.195312 186.949219 L 541.917969 186.949219 C 550.015625 186.949219 556.308594 193.984375 555.417969 202.03125 L 538.34375 356.042969 C 537.582031 362.921875 531.769531 368.128906 524.84375 368.128906 L 532.121094 368.128906 C 539.042969 368.128906 544.859375 362.921875 545.621094 356.042969 L 562.695312 202.03125 C 563.585938 193.984375 557.289062 186.949219 549.195312 186.949219 Z M 368.605469 214.003906 C 368.605469 213.398438 368.109375 212.902344 367.503906 212.902344 L 351.085938 212.902344 C 350.480469 212.902344 349.984375 213.398438 349.984375 214.003906 C 349.984375 214.617188 350.480469 215.109375 351.085938 215.109375 L 367.503906 215.109375 C 368.109375 215.109375 368.605469 214.617188 368.605469 214.003906 Z M 326.875 212.378906 C 325.980469 212.378906 325.15625 213.109375 325.042969 214.011719 C 324.929688 214.910156 325.566406 215.636719 326.464844 215.636719 C 327.367188 215.636719 328.1875 214.910156 328.300781 214.011719 C 328.417969 213.109375 327.78125 212.378906 326.875 212.378906 Z M 320.703125 212.378906 C 319.804688 212.378906 318.980469 213.109375 318.871094 214.011719 C 318.753906 214.910156 319.394531 215.636719 320.296875 215.636719 C 321.195312 215.636719 322.019531 214.910156 322.128906 214.011719 C 322.242188 213.109375 321.605469 212.378906 320.703125 212.378906 Z M 334.476562 214.011719 C 334.363281 214.910156 333.542969 215.636719 332.640625 215.636719 C 331.742188 215.636719 331.105469 214.910156 331.214844 214.011719 C 331.328125 213.109375 332.152344 212.378906 333.050781 212.378906 C 333.953125 212.378906 334.589844 213.109375 334.476562 214.011719 " fill-opacity="1" fill-rule="nonzero"/></g></svg>