<svg xmlns="http://www.w3.org/2000/svg" xmlns:xlink="http://www.w3.org/1999/xlink" width="794" zoomAndPan="magnify" viewBox="0 0 594.95996 842.24997" height="1123" preserveAspectRatio="xMidYMid meet" version="1.0"><defs><clipPath id="e39d06fa79"><path d="M 63 380 L 558 380 L 558 823.175781 L 63 823.175781 Z M 63 380 " clip-rule="nonzero"/></clipPath></defs><path fill="#789ec4" d="M 286.027344 385.257812 C 286.027344 385.257812 157.363281 378.171875 117.445312 406.542969 C 77.53125 434.941406 59.71875 482.242188 66.886719 577.421875 C 66.886719 577.421875 91.703125 588.5 143.929688 577.421875 L 132.054688 692.1875 L 150.277344 805.097656 C 151.753906 814.261719 159.660156 820.992188 168.933594 820.992188 L 457.101562 820.992188 C 466.703125 820.992188 474.773438 813.796875 475.867188 804.273438 L 485.800781 718.808594 L 443.667969 629.867188 C 443.667969 629.867188 507.769531 641.136719 555.835938 626.3125 C 555.835938 626.3125 547.984375 516.769531 526.644531 461.914062 C 505.304688 407.0625 481.832031 372.179688 286.027344 385.257812 Z M 286.027344 385.257812 " fill-opacity="1" fill-rule="nonzero"/><g clip-path="url(#e39d06fa79)"><path fill="#789ec4" d="M 457.101562 823.097656 L 168.933594 823.097656 C 158.566406 823.097656 149.839844 815.683594 148.195312 805.453125 L 129.976562 692.542969 C 129.949219 692.351562 129.949219 692.1875 129.949219 691.996094 L 141.519531 580.074219 C 91.152344 590.199219 67.023438 579.800781 66.011719 579.363281 C 65.300781 579.0625 64.835938 578.378906 64.78125 577.613281 C 61.25 530.585938 63.769531 494.199219 72.496094 466.347656 C 80.839844 439.671875 94.738281 420.140625 116.214844 404.875 C 133.09375 392.863281 166.882812 385.558594 216.59375 383.207031 C 252.242188 381.511719 283.703125 383.070312 286 383.207031 C 333.960938 380.003906 372.34375 379.59375 403.394531 381.976562 C 432.449219 384.191406 455.101562 388.871094 472.585938 396.257812 C 506.617188 410.621094 518.082031 434.175781 528.613281 461.230469 C 549.816406 515.757812 557.859375 625.132812 557.945312 626.226562 C 558.027344 627.214844 557.394531 628.089844 556.464844 628.390625 C 531.351562 636.132812 501.914062 636.707031 481.640625 635.832031 C 466.074219 635.148438 453.378906 633.53125 447.25 632.628906 L 487.6875 717.988281 C 487.851562 718.34375 487.933594 718.726562 487.878906 719.136719 L 477.949219 804.601562 C 476.742188 815.109375 467.769531 823.097656 457.101562 823.097656 Z M 134.160156 692.132812 L 152.328125 804.765625 C 153.640625 812.949219 160.617188 818.910156 168.933594 818.910156 L 457.101562 818.910156 C 465.636719 818.910156 472.804688 812.507812 473.789062 804.054688 L 483.636719 719.191406 L 441.753906 630.796875 C 441.425781 630.085938 441.507812 629.265625 441.972656 628.636719 C 442.4375 628.007812 443.230469 627.707031 443.996094 627.84375 C 444.625 627.953125 506.726562 638.621094 553.59375 624.832031 C 552.5 610.851562 544.210938 512.992188 524.675781 462.738281 C 514.144531 435.679688 503.5 413.875 470.945312 400.113281 C 436.035156 385.367188 377.296875 381.320312 286.164062 387.417969 C 286.082031 387.417969 286 387.417969 285.917969 387.417969 C 284.632812 387.335938 157.554688 380.691406 118.675781 408.320312 C 77.367188 437.703125 62.457031 487.878906 68.882812 576 C 74.273438 577.886719 98.789062 584.917969 143.492188 575.425781 C 144.148438 575.289062 144.832031 575.480469 145.324219 575.917969 C 145.816406 576.355469 146.0625 577.039062 146.007812 577.695312 Z M 134.160156 692.132812 " fill-opacity="1" fill-rule="nonzero"/></g><path fill="#ffd2a9" d="M 538.765625 630.441406 C 538.765625 630.441406 548.667969 714.675781 510.339844 742.636719 C 472.039062 770.597656 265.863281 748.109375 222.089844 742.636719 C 178.316406 737.164062 179.414062 742.472656 168.140625 758.695312 C 156.867188 774.945312 153.367188 779.734375 146.71875 777.519531 C 140.070312 775.300781 146.882812 751.691406 153.695312 740.75 C 153.695312 740.75 132.300781 764.988281 123.738281 770.542969 C 115.175781 776.097656 106.476562 771.335938 109.949219 760.089844 C 109.949219 760.089844 89.511719 766.109375 91.097656 754.375 C 92.6875 742.636719 115.503906 709.835938 115.503906 709.835938 C 115.503906 709.835938 93.945312 725.429688 82.5625 729.011719 C 71.183594 732.597656 70.609375 724.253906 79.226562 711.996094 C 87.84375 699.738281 113.699219 674.1875 113.699219 674.1875 C 113.699219 674.1875 155.773438 662.777344 196.867188 661.4375 C 237.960938 660.097656 377.351562 665.023438 403.695312 664.121094 C 430.042969 663.214844 443.640625 629.8125 443.640625 629.8125 C 443.640625 629.8125 501.804688 638.265625 538.765625 630.441406 Z M 538.765625 630.441406 " fill-opacity="1" fill-rule="nonzero"/><path fill="#3f2c27" d="M 149.644531 780.171875 C 148.523438 780.171875 147.347656 779.953125 146.0625 779.542969 C 144.941406 779.160156 143.464844 778.230469 142.589844 775.878906 C 140.78125 770.84375 142.78125 761.105469 145.980469 752.375 C 139.03125 759.789062 129.921875 769.09375 124.886719 772.347656 C 119.851562 775.605469 114.464844 775.90625 110.769531 773.113281 C 107.871094 770.925781 106.640625 767.3125 107.1875 762.9375 C 102.78125 763.839844 95.257812 764.714844 91.371094 761.378906 C 90.003906 760.199219 88.5 757.984375 89.019531 754.128906 C 90.140625 745.921875 100.730469 728.519531 107.707031 717.769531 C 100.347656 722.609375 90.085938 728.875 83.191406 731.039062 C 76.707031 733.089844 73.753906 731.339844 72.414062 729.53125 C 69.761719 725.894531 71.566406 719.246094 77.503906 710.792969 C 86.121094 698.507812 111.179688 673.75 112.21875 672.710938 C 112.464844 672.464844 112.792969 672.273438 113.148438 672.191406 C 113.5625 672.082031 155.9375 660.726562 196.8125 659.386719 C 219.574219 658.648438 272.59375 659.824219 319.40625 660.863281 C 356.695312 661.683594 391.90625 662.476562 403.640625 662.066406 C 428.320312 661.21875 441.589844 629.402344 441.699219 629.074219 C 442.054688 628.171875 442.984375 627.652344 443.941406 627.789062 C 444.515625 627.871094 502.132812 636.050781 538.300781 628.390625 C 538.875 628.28125 539.476562 628.390625 539.96875 628.746094 C 540.460938 629.101562 540.761719 629.621094 540.816406 630.195312 C 540.84375 630.414062 543.28125 651.753906 540.980469 676.238281 C 539.613281 690.683594 536.90625 703.40625 532.882812 714.046875 C 527.792969 727.507812 520.625 737.710938 511.542969 744.332031 C 494.882812 756.507812 446.648438 760.859375 368.128906 757.273438 C 297.984375 754.074219 229.367188 745.675781 221.789062 744.714844 C 183.1875 739.902344 180.945312 743.265625 172.601562 755.796875 C 171.726562 757.109375 170.847656 758.449219 169.835938 759.898438 C 160.316406 773.6875 155.828125 780.171875 149.644531 780.171875 Z M 153.695312 738.671875 C 154.132812 738.671875 154.570312 738.808594 154.953125 739.082031 C 155.828125 739.738281 156.046875 740.941406 155.472656 741.871094 C 149.867188 750.84375 144.449219 768.601562 146.554688 774.425781 C 146.882812 775.359375 147.265625 775.496094 147.402344 775.523438 C 152.273438 777.136719 154.953125 774.042969 166.445312 757.492188 C 167.429688 756.070312 168.332031 754.730469 169.179688 753.445312 C 173.585938 746.824219 176.757812 742.0625 184.226562 739.847656 C 191.203125 737.765625 201.902344 737.957031 222.390625 740.53125 C 229.96875 741.488281 298.421875 749.886719 368.402344 753.0625 C 444.84375 756.535156 493.515625 752.347656 509.136719 740.914062 C 528.285156 726.933594 534.769531 697.851562 536.851562 675.882812 C 538.683594 656.40625 537.480469 638.976562 536.933594 632.902344 C 503.0625 639.359375 454.5 633.394531 444.980469 632.109375 C 443.667969 634.957031 440.4375 641.386719 435.269531 647.921875 C 426.128906 659.496094 415.242188 665.816406 403.832031 666.199219 C 391.988281 666.609375 358.308594 665.84375 319.351562 664.996094 C 272.621094 663.957031 219.65625 662.777344 197.003906 663.519531 C 159.085938 664.75 119.824219 674.734375 114.847656 676.046875 C 111.5625 679.304688 88.828125 702.011719 81.003906 713.171875 C 75.859375 720.476562 74.738281 725.484375 75.859375 727.015625 C 76.570312 727.972656 78.898438 727.945312 81.988281 726.988281 C 92.90625 723.542969 114.109375 708.25 114.328125 708.113281 C 115.148438 707.507812 116.296875 707.589844 117.035156 708.304688 C 117.773438 709.015625 117.882812 710.164062 117.28125 710.984375 C 117.0625 711.3125 94.738281 743.511719 93.234375 754.59375 C 92.933594 756.753906 93.617188 757.628906 94.164062 758.09375 C 96.925781 760.476562 104.996094 759.296875 109.429688 758.011719 C 110.167969 757.792969 110.960938 758.011719 111.507812 758.558594 C 112.054688 759.105469 112.246094 759.898438 112.027344 760.640625 C 110.742188 764.769531 111.234375 768.054688 113.371094 769.667969 C 115.558594 771.335938 119.222656 770.953125 122.671875 768.710938 C 130.878906 763.375 151.972656 739.519531 152.191406 739.300781 C 152.546875 738.917969 153.121094 738.671875 153.695312 738.671875 Z M 153.695312 738.671875 " fill-opacity="1" fill-rule="nonzero"/><path fill="#3f2c27" d="M 113.617188 758.175781 C 113.175781 758.175781 112.738281 758.039062 112.355469 757.765625 C 111.425781 757.082031 111.234375 755.769531 111.917969 754.839844 L 130.25 730.242188 C 130.933594 729.3125 132.246094 729.121094 133.175781 729.804688 C 134.105469 730.488281 134.296875 731.804688 133.613281 732.734375 L 115.285156 757.328125 C 114.875 757.875 114.246094 758.175781 113.617188 758.175781 Z M 113.617188 758.175781 " fill-opacity="1" fill-rule="nonzero"/><path fill="#ffd2a9" d="M 228.246094 238.589844 C 228.246094 239.515625 228.199219 240.4375 228.105469 241.355469 C 228.011719 242.277344 227.875 243.1875 227.6875 244.09375 C 227.5 245 227.269531 245.894531 226.992188 246.78125 C 226.714844 247.664062 226.394531 248.53125 226.027344 249.386719 C 225.664062 250.238281 225.257812 251.074219 224.808594 251.886719 C 224.355469 252.703125 223.867188 253.492188 223.335938 254.261719 C 222.804688 255.03125 222.238281 255.769531 221.632812 256.484375 C 221.027344 257.199219 220.386719 257.882812 219.714844 258.535156 C 219.039062 259.191406 218.332031 259.808594 217.59375 260.394531 C 216.855469 260.980469 216.089844 261.53125 215.296875 262.042969 C 214.503906 262.558594 213.6875 263.03125 212.84375 263.46875 C 212.003906 263.902344 211.140625 264.296875 210.261719 264.652344 C 209.378906 265.003906 208.480469 265.316406 207.566406 265.582031 C 206.65625 265.851562 205.730469 266.074219 204.792969 266.253906 C 203.859375 266.4375 202.914062 266.570312 201.964844 266.660156 C 201.015625 266.753906 200.066406 266.796875 199.109375 266.796875 C 198.15625 266.796875 197.203125 266.753906 196.253906 266.660156 C 195.304688 266.570312 194.363281 266.4375 193.425781 266.253906 C 192.488281 266.074219 191.566406 265.851562 190.652344 265.582031 C 189.738281 265.316406 188.84375 265.003906 187.960938 264.652344 C 187.078125 264.296875 186.21875 263.902344 185.375 263.46875 C 184.535156 263.03125 183.714844 262.558594 182.921875 262.042969 C 182.128906 261.53125 181.363281 260.980469 180.625 260.394531 C 179.886719 259.808594 179.183594 259.191406 178.507812 258.535156 C 177.832031 257.882812 177.191406 257.199219 176.585938 256.484375 C 175.980469 255.769531 175.414062 255.03125 174.882812 254.261719 C 174.355469 253.492188 173.863281 252.703125 173.414062 251.886719 C 172.964844 251.074219 172.558594 250.238281 172.191406 249.386719 C 171.828125 248.53125 171.503906 247.664062 171.226562 246.78125 C 170.953125 245.894531 170.71875 245 170.535156 244.09375 C 170.347656 243.1875 170.207031 242.277344 170.113281 241.355469 C 170.019531 240.4375 169.972656 239.515625 169.972656 238.589844 C 169.972656 237.667969 170.019531 236.746094 170.113281 235.828125 C 170.207031 234.90625 170.347656 233.996094 170.535156 233.089844 C 170.71875 232.183594 170.953125 231.289062 171.226562 230.402344 C 171.503906 229.519531 171.828125 228.652344 172.191406 227.796875 C 172.558594 226.945312 172.964844 226.109375 173.414062 225.296875 C 173.863281 224.480469 174.355469 223.6875 174.882812 222.921875 C 175.414062 222.152344 175.980469 221.410156 176.585938 220.699219 C 177.191406 219.984375 177.832031 219.300781 178.507812 218.648438 C 179.183594 217.992188 179.886719 217.375 180.625 216.789062 C 181.363281 216.203125 182.128906 215.652344 182.921875 215.140625 C 183.714844 214.625 184.535156 214.152344 185.375 213.714844 C 186.21875 213.28125 187.078125 212.886719 187.960938 212.53125 C 188.84375 212.179688 189.738281 211.867188 190.652344 211.601562 C 191.566406 211.332031 192.488281 211.109375 193.425781 210.925781 C 194.363281 210.746094 195.304688 210.613281 196.253906 210.519531 C 197.203125 210.429688 198.15625 210.386719 199.109375 210.386719 C 200.066406 210.386719 201.015625 210.429688 201.964844 210.519531 C 202.914062 210.613281 203.859375 210.746094 204.792969 210.925781 C 205.730469 211.109375 206.65625 211.332031 207.566406 211.601562 C 208.480469 211.867188 209.378906 212.179688 210.261719 212.53125 C 211.140625 212.886719 212.003906 213.28125 212.84375 213.714844 C 213.6875 214.152344 214.503906 214.625 215.296875 215.140625 C 216.089844 215.652344 216.855469 216.203125 217.59375 216.789062 C 218.332031 217.375 219.039062 217.992188 219.714844 218.648438 C 220.386719 219.300781 221.027344 219.984375 221.632812 220.699219 C 222.238281 221.410156 222.804688 222.152344 223.335938 222.921875 C 223.867188 223.6875 224.355469 224.480469 224.808594 225.296875 C 225.257812 226.109375 225.664062 226.945312 226.027344 227.796875 C 226.394531 228.652344 226.714844 229.519531 226.992188 230.402344 C 227.269531 231.289062 227.5 232.183594 227.6875 233.089844 C 227.875 233.996094 228.011719 234.90625 228.105469 235.828125 C 228.199219 236.746094 228.246094 237.667969 228.246094 238.589844 Z M 228.246094 238.589844 " fill-opacity="1" fill-rule="nonzero"/><path fill="#3f2c27" d="M 199.109375 268.878906 C 181.875 268.878906 167.867188 255.28125 167.867188 238.589844 C 167.867188 221.902344 181.902344 208.304688 199.109375 208.304688 C 216.320312 208.304688 230.355469 221.902344 230.355469 238.589844 C 230.355469 255.28125 216.347656 268.878906 199.109375 268.878906 Z M 199.109375 212.492188 C 184.199219 212.492188 172.054688 224.203125 172.054688 238.589844 C 172.054688 252.980469 184.199219 264.691406 199.109375 264.691406 C 214.019531 264.691406 226.167969 252.980469 226.167969 238.589844 C 226.167969 224.203125 214.046875 212.492188 199.109375 212.492188 Z M 199.109375 212.492188 " fill-opacity="1" fill-rule="nonzero"/><path fill="#3f2c27" d="M 386.570312 88.640625 C 386.570312 88.640625 355.765625 57.316406 301.976562 41.640625 C 248.191406 25.964844 263.621094 56.824219 263.621094 56.824219 C 263.621094 56.824219 215.003906 58.628906 180.179688 76.414062 C 145.351562 94.195312 180.179688 110.882812 180.179688 110.882812 C 180.179688 110.882812 149.699219 137.011719 151.152344 150.0625 C 152.601562 163.109375 172.191406 177.992188 172.191406 177.992188 C 172.191406 177.992188 155.5 206.664062 187.429688 221.164062 C 219.355469 235.664062 408.757812 223.707031 408.757812 223.707031 C 408.757812 223.707031 421.808594 204.832031 416.007812 171.097656 C 416.007812 171.097656 429.796875 177.253906 431.984375 156.953125 C 434.175781 136.683594 421.34375 108.09375 386.570312 88.640625 Z M 386.570312 88.640625 " fill-opacity="1" fill-rule="nonzero"/><path fill="#3f2c27" d="M 272.703125 230.519531 C 233.992188 230.519531 198.972656 228.769531 186.554688 223.132812 C 176.265625 218.457031 169.699219 211.863281 167.046875 203.492188 C 163.652344 192.820312 167.675781 182.507812 169.535156 178.621094 C 164.914062 174.847656 150.386719 162.179688 149.070312 150.335938 C 148.386719 144.289062 153.285156 135.507812 163.570312 124.207031 C 168.632812 118.652344 173.722656 113.894531 176.566406 111.320312 C 171.863281 108.53125 162.722656 102.019531 162.613281 93.429688 C 162.53125 86.589844 168.113281 80.242188 179.25 74.578125 C 209.179688 59.3125 249.53125 55.648438 260.640625 54.9375 C 259.464844 51.296875 258.285156 44.976562 262.171875 40.328125 C 267.78125 33.597656 281.019531 33.378906 302.578125 39.644531 C 330.621094 47.824219 352.34375 60.273438 365.640625 69.300781 C 378.910156 78.300781 386.488281 85.605469 387.855469 86.972656 C 404.050781 96.082031 416.855469 107.984375 424.953125 121.445312 C 432.066406 133.261719 435.324219 145.984375 434.09375 157.257812 C 433.269531 165.027344 430.671875 170.195312 426.402344 172.660156 C 423.640625 174.246094 420.742188 174.328125 418.605469 174.027344 C 423.175781 206.226562 411.027344 224.230469 410.507812 224.996094 C 410.152344 225.515625 409.550781 225.84375 408.921875 225.898438 C 404.160156 226.144531 333.851562 230.519531 272.703125 230.519531 Z M 277.21875 39.34375 C 269.996094 39.34375 266.796875 41.3125 265.371094 43.007812 C 261.515625 47.605469 265.453125 55.839844 265.507812 55.921875 C 265.835938 56.550781 265.808594 57.316406 265.425781 57.917969 C 265.070312 58.519531 264.414062 58.929688 263.703125 58.957031 C 263.210938 58.984375 215.140625 60.957031 181.136719 78.328125 C 171.558594 83.226562 166.746094 88.285156 166.800781 93.402344 C 166.910156 102.128906 180.945312 108.96875 181.082031 109.050781 C 181.710938 109.351562 182.148438 109.953125 182.257812 110.664062 C 182.339844 111.375 182.09375 112.058594 181.546875 112.527344 C 173.3125 119.582031 152.136719 140.074219 153.230469 149.898438 C 154.570312 161.933594 173.285156 176.242188 173.449219 176.40625 C 174.296875 177.035156 174.515625 178.210938 173.996094 179.140625 C 173.941406 179.25 167.375 190.796875 171.039062 202.289062 C 173.339844 209.457031 179.140625 215.199219 188.277344 219.359375 C 218.125 232.929688 392.097656 222.722656 407.527344 221.792969 C 409.824219 217.855469 418.851562 200.097656 413.929688 171.5625 C 413.792969 170.796875 414.09375 170.03125 414.722656 169.539062 C 415.324219 169.074219 416.144531 168.964844 416.855469 169.292969 C 416.882812 169.292969 420.90625 171.015625 424.324219 169.019531 C 427.308594 167.296875 429.222656 163.082031 429.90625 156.816406 C 431.027344 146.449219 427.964844 134.660156 421.34375 123.632812 C 413.601562 110.746094 401.207031 99.3125 385.558594 90.53125 C 385.394531 90.421875 385.230469 90.3125 385.09375 90.175781 C 384.792969 89.871094 353.988281 59.039062 301.429688 43.71875 C 290.40625 40.464844 282.664062 39.34375 277.21875 39.34375 Z M 277.21875 39.34375 " fill-opacity="1" fill-rule="nonzero"/><path fill="#ffd2a9" d="M 382.957031 206.746094 C 402 187.40625 434.886719 205.132812 425.527344 241.902344 C 416.171875 278.671875 380.769531 269.671875 380.769531 269.671875 C 380.769531 269.671875 370.921875 344.605469 288.105469 341.429688 C 205.292969 338.285156 205.019531 269.207031 203.050781 200.78125 C 201.082031 132.386719 222.886719 117.121094 222.886719 117.121094 C 222.886719 117.121094 247.207031 146.421875 275.578125 161.25 C 303.949219 176.078125 304.277344 159.636719 299.761719 148.335938 C 299.761719 148.335938 326.21875 172.195312 370.703125 180.921875 C 370.703125 180.949219 370.375 219.332031 382.957031 206.746094 Z M 382.957031 206.746094 " fill-opacity="1" fill-rule="nonzero"/><path fill="#3f2c27" d="M 293.085938 343.648438 C 291.417969 343.648438 289.722656 343.621094 288.023438 343.539062 C 268.136719 342.769531 252.324219 338.339844 239.710938 329.996094 C 228.410156 322.5 220.011719 312.046875 213.992188 298.011719 C 202.996094 272.296875 202.011719 238.097656 201.082031 205.023438 L 200.972656 200.890625 C 198.972656 132.140625 220.75 116.109375 221.679688 115.453125 C 222.582031 114.824219 223.789062 114.988281 224.5 115.835938 C 224.746094 116.136719 248.875 144.972656 276.5625 159.445312 C 291.007812 166.996094 296.179688 165.382812 297.984375 163.738281 C 300.855469 161.140625 299.980469 154.546875 297.820312 149.183594 C 297.464844 148.28125 297.765625 147.242188 298.558594 146.695312 C 299.351562 146.148438 300.445312 146.203125 301.15625 146.859375 C 301.429688 147.105469 327.75 170.441406 371.113281 178.921875 C 372.097656 179.113281 372.808594 179.992188 372.808594 181.003906 C 372.726562 192.492188 374.667969 205.761719 377.953125 207.128906 C 379.019531 207.59375 380.769531 206.007812 381.480469 205.296875 C 390.457031 196.160156 403.148438 194.132812 413.820312 200.152344 C 419.785156 203.519531 424.460938 209.179688 427.007812 216.074219 C 429.824219 223.734375 430.015625 232.847656 427.582031 242.449219 C 422.492188 262.449219 409.851562 269.371094 400.140625 271.640625 C 392.671875 273.390625 385.859375 272.734375 382.492188 272.160156 C 381.425781 277.714844 377.761719 292.871094 367.226562 307.945312 C 359.59375 318.859375 349.9375 327.449219 338.5 333.414062 C 325.507812 340.199219 310.269531 343.648438 293.085938 343.648438 Z M 222.664062 120.160156 C 220.777344 122.101562 217.277344 126.476562 213.910156 134.65625 C 209.34375 145.738281 204.117188 166.175781 205.128906 200.753906 L 205.238281 204.886719 C 206.167969 237.550781 207.125 271.367188 217.824219 296.34375 C 229.804688 324.304688 252.160156 337.984375 288.160156 339.351562 C 321.675781 340.636719 347.066406 329.3125 363.644531 305.671875 C 376.066406 287.972656 378.636719 269.589844 378.664062 269.398438 C 378.746094 268.796875 379.074219 268.273438 379.566406 267.945312 C 380.058594 267.617188 380.6875 267.507812 381.261719 267.644531 C 381.34375 267.671875 389.851562 269.753906 399.292969 267.507812 C 411.683594 264.554688 419.839844 255.773438 423.476562 241.382812 C 428.566406 221.410156 420.742188 208.851562 411.738281 203.792969 C 402.765625 198.730469 392.070312 200.480469 384.4375 208.222656 C 381.5625 211.097656 378.828125 212 376.339844 210.960938 C 372.78125 209.484375 370.484375 203.984375 369.363281 194.191406 C 368.816406 189.511719 368.679688 185.023438 368.625 182.671875 C 346.132812 178.019531 328.460938 169.566406 317.492188 163.21875 C 311.472656 159.746094 306.820312 156.515625 303.59375 154.136719 C 304.386719 158.433594 304.304688 163.628906 300.773438 166.832031 C 296.125 171.042969 287.3125 169.785156 274.59375 163.136719 C 249.722656 150.144531 228.328125 126.640625 222.664062 120.160156 Z M 382.957031 206.746094 Z M 382.957031 206.746094 " fill-opacity="1" fill-rule="nonzero"/><path fill="#3f2c27" d="M 387.445312 249.699219 C 387.253906 249.699219 387.0625 249.671875 386.871094 249.617188 C 385.75 249.289062 385.121094 248.140625 385.421875 247.019531 C 391.769531 224.75 410.480469 218.019531 411.273438 217.746094 C 412.371094 217.363281 413.574219 217.9375 413.957031 219.03125 C 414.339844 220.125 413.765625 221.328125 412.671875 221.710938 C 412.507812 221.765625 395.1875 228.085938 389.441406 248.195312 C 389.195312 249.097656 388.347656 249.699219 387.445312 249.699219 Z M 387.445312 249.699219 " fill-opacity="1" fill-rule="nonzero"/><path fill="#3f2c27" d="M 263.347656 227.839844 C 262.636719 234.433594 259.519531 239.414062 255.769531 239.414062 C 251.5 239.414062 248.027344 232.929688 248.027344 224.941406 C 248.027344 216.953125 251.472656 210.46875 255.769531 210.46875 C 259.519531 210.46875 262.636719 215.445312 263.347656 222.039062 L 258.339844 224.941406 Z M 263.347656 227.839844 " fill-opacity="1" fill-rule="nonzero"/><path fill="#3f2c27" d="M 331.742188 227.839844 C 331.03125 234.433594 327.914062 239.414062 324.164062 239.414062 C 319.898438 239.414062 316.421875 232.929688 316.421875 224.941406 C 316.421875 216.953125 319.871094 210.46875 324.164062 210.46875 C 327.914062 210.46875 331.03125 215.445312 331.742188 222.039062 L 326.738281 224.941406 Z M 331.742188 227.839844 " fill-opacity="1" fill-rule="nonzero"/><path fill="#3f2c27" d="M 229.230469 198.785156 C 228.738281 198.785156 228.246094 198.621094 227.863281 198.265625 C 226.988281 197.5 226.90625 196.1875 227.644531 195.3125 C 237.386719 184.066406 247.152344 182.398438 253.609375 183 C 260.640625 183.65625 265.34375 187.023438 265.535156 187.160156 C 266.46875 187.84375 266.6875 189.15625 266 190.085938 C 265.316406 191.015625 264.003906 191.234375 263.074219 190.550781 C 262.417969 190.085938 247.015625 179.363281 230.820312 198.074219 C 230.410156 198.539062 229.832031 198.785156 229.230469 198.785156 Z M 229.230469 198.785156 " fill-opacity="1" fill-rule="nonzero"/><path fill="#3f2c27" d="M 321.046875 198.59375 C 313.085938 198.59375 308.023438 195.859375 307.667969 195.667969 C 306.65625 195.09375 306.300781 193.832031 306.847656 192.820312 C 307.421875 191.808594 308.679688 191.453125 309.691406 192 C 310.214844 192.300781 322.714844 198.894531 339.542969 188.9375 C 340.527344 188.335938 341.8125 188.664062 342.414062 189.675781 C 343.015625 190.660156 342.6875 191.945312 341.675781 192.546875 C 333.824219 197.199219 326.710938 198.59375 321.046875 198.59375 Z M 321.046875 198.59375 " fill-opacity="1" fill-rule="nonzero"/><path fill="#3f2c27" d="M 277.929688 265.757812 C 277.628906 265.757812 277.328125 265.703125 277.027344 265.539062 C 276.371094 265.238281 270.707031 262.394531 269.722656 258.097656 C 269.3125 256.320312 269.777344 254.542969 271.007812 252.953125 C 274.15625 249.042969 278.230469 249.863281 280.664062 250.328125 C 281.078125 250.410156 281.597656 250.519531 281.953125 250.546875 C 282.445312 248.605469 282.554688 242.339844 282.308594 237.113281 C 282.253906 235.964844 283.15625 234.980469 284.304688 234.925781 C 285.453125 234.871094 286.4375 235.773438 286.492188 236.921875 C 286.683594 240.835938 286.957031 250.246094 285.507812 252.925781 C 284.25 255.308594 281.597656 254.789062 279.84375 254.433594 C 277.328125 253.941406 275.714844 253.746094 274.265625 255.554688 C 273.691406 256.292969 273.691406 256.785156 273.773438 257.140625 C 274.183594 258.972656 277.328125 261.023438 278.804688 261.738281 C 279.84375 262.230469 280.28125 263.488281 279.789062 264.527344 C 279.460938 265.320312 278.695312 265.757812 277.929688 265.757812 Z M 277.929688 265.757812 " fill-opacity="1" fill-rule="nonzero"/><path fill="#3f2c27" d="M 300.5 294.457031 C 299.980469 294.457031 299.488281 294.265625 299.078125 293.910156 C 298.230469 293.117188 298.175781 291.804688 298.941406 290.953125 C 299.132812 290.761719 303.457031 286.113281 309.691406 282.964844 C 318.3125 278.644531 326.382812 279.300781 332.976562 284.882812 C 333.851562 285.621094 333.960938 286.960938 333.222656 287.835938 C 332.484375 288.710938 331.140625 288.820312 330.265625 288.082031 C 324.988281 283.621094 318.75 283.128906 311.664062 286.660156 C 306.082031 289.449219 302.058594 293.746094 302.03125 293.800781 C 301.648438 294.238281 301.074219 294.457031 300.5 294.457031 Z M 300.5 294.457031 " fill-opacity="1" fill-rule="nonzero"/><path fill="#ffd2a9" d="M 66.886719 577.421875 C 66.886719 577.421875 69.484375 690.65625 125.515625 712.242188 C 181.546875 733.828125 143.929688 577.421875 143.929688 577.421875 C 143.929688 577.421875 103.109375 587.816406 66.886719 577.421875 Z M 66.886719 577.421875 " fill-opacity="1" fill-rule="nonzero"/><path fill="#3f2c27" d="M 135.253906 716.402344 C 132.054688 716.402344 128.554688 715.660156 124.75 714.210938 C 111.507812 709.125 100.128906 698.671875 90.90625 683.160156 C 83.601562 670.902344 77.640625 655.472656 73.152344 637.253906 C 65.519531 606.367188 64.808594 577.777344 64.78125 577.476562 C 64.753906 576.820312 65.082031 576.164062 65.601562 575.78125 C 66.121094 575.371094 66.832031 575.234375 67.460938 575.425781 C 102.699219 585.546875 143 575.507812 143.410156 575.398438 C 143.957031 575.261719 144.53125 575.34375 144.996094 575.644531 C 145.488281 575.945312 145.816406 576.410156 145.953125 576.957031 C 146.007812 577.230469 152.710938 605.191406 156.210938 635.503906 C 161 676.730469 157.855469 702.503906 146.882812 712.132812 C 143.65625 714.949219 139.742188 716.402344 135.253906 716.402344 Z M 69.101562 580.210938 C 69.484375 588.117188 71.101562 611.484375 77.257812 636.324219 C 84.121094 664.09375 98.210938 699.492188 126.28125 710.300781 C 133.914062 713.253906 139.769531 712.789062 144.148438 708.960938 C 153.886719 700.421875 156.621094 675.199219 152.054688 635.96875 C 149.097656 610.605469 143.929688 586.886719 142.339844 579.964844 C 133.722656 581.882812 100.429688 588.28125 69.101562 580.210938 Z M 69.101562 580.210938 " fill-opacity="1" fill-rule="nonzero"/><path fill="#3f2c27" d="M 443.667969 631.972656 C 443.667969 631.972656 443.640625 631.972656 443.640625 631.972656 C 442.492188 631.945312 441.5625 631.015625 441.589844 629.839844 C 441.589844 629.15625 442.65625 559.941406 441.589844 545.359375 C 440.464844 530.121094 444.023438 511.761719 450.617188 498.546875 C 451.136719 497.507812 452.394531 497.097656 453.433594 497.617188 C 454.472656 498.136719 454.882812 499.394531 454.363281 500.4375 C 448.070312 513.019531 444.707031 530.53125 445.773438 545.058594 C 446.867188 559.832031 445.828125 627.078125 445.773438 629.921875 C 445.746094 631.042969 444.816406 631.972656 443.667969 631.972656 Z M 443.667969 631.972656 " fill-opacity="1" fill-rule="nonzero"/><path fill="#3f2c27" d="M 343.945312 665.597656 C 343.5625 665.597656 343.179688 665.488281 342.851562 665.296875 C 322.140625 652.546875 302.46875 629.59375 289.613281 612.605469 C 275.714844 594.246094 266.550781 578.652344 266.46875 578.488281 C 265.890625 577.476562 266.21875 576.21875 267.207031 575.617188 C 268.21875 575.042969 269.476562 575.371094 270.078125 576.355469 C 270.433594 576.957031 306.410156 637.882812 345.066406 661.683594 C 346.050781 662.285156 346.351562 663.570312 345.75 664.558594 C 345.339844 665.242188 344.65625 665.597656 343.945312 665.597656 Z M 343.945312 665.597656 " fill-opacity="1" fill-rule="nonzero"/><path fill="#3f2c27" d="M 149.042969 532.0625 C 147.894531 532.0625 146.964844 531.160156 146.9375 530.011719 C 146.9375 529.65625 146.171875 493.160156 143.65625 481.011719 C 143.410156 479.890625 144.148438 478.769531 145.296875 478.523438 C 146.417969 478.277344 147.539062 479.015625 147.785156 480.164062 C 150.386719 492.667969 151.125 528.421875 151.152344 529.929688 C 151.179688 531.078125 150.25 532.035156 149.097656 532.0625 C 149.070312 532.0625 149.042969 532.0625 149.042969 532.0625 Z M 149.042969 532.0625 " fill-opacity="1" fill-rule="nonzero"/><path fill="#ffd2a9" d="M 130.222656 714.621094 C 103.21875 703.925781 83.300781 647.128906 118.648438 582.210938 C 153.996094 517.289062 230.492188 403.507812 238.207031 377.789062 C 245.921875 352.074219 242.910156 320.171875 242.910156 304.140625 C 242.910156 288.109375 259.683594 287.78125 264.058594 304.140625 C 268.410156 320.5 269.667969 341.074219 269.667969 341.074219 C 269.667969 341.074219 291.171875 313.03125 324.796875 307.125 C 358.445312 301.214844 372.835938 316.371094 371.113281 325.316406 C 368.707031 337.820312 356.175781 329.804688 331.742188 341.539062 C 331.742188 341.539062 353.878906 340.0625 358.253906 354.835938 C 360.878906 363.699219 348.023438 371.441406 348.023438 371.441406 C 348.023438 371.441406 362.058594 379.675781 354.316406 393.765625 C 354.316406 393.765625 362.550781 411.988281 351.742188 419.757812 C 340.9375 427.527344 298.804688 432.066406 298.804688 432.066406 C 298.804688 432.066406 258.832031 573.480469 228.929688 633.753906 C 199.027344 693.996094 173.722656 731.859375 130.222656 714.621094 Z M 130.222656 714.621094 " fill-opacity="1" fill-rule="nonzero"/><path fill="#3f2c27" d="M 150.277344 720.914062 C 143.65625 720.914062 136.761719 719.464844 129.457031 716.566406 C 118.375 712.1875 108.773438 700.695312 103.136719 685.101562 C 98.210938 671.480469 96.488281 655.472656 98.210938 638.785156 C 100.183594 619.664062 106.449219 600.265625 116.816406 581.195312 C 132.136719 553.074219 154.898438 516.195312 176.949219 480.519531 C 205.210938 434.75 231.914062 391.523438 236.207031 377.1875 C 242.335938 356.777344 241.597656 332.703125 241.050781 315.140625 C 240.914062 310.925781 240.804688 307.289062 240.804688 304.140625 C 240.804688 294.621094 246.058594 290.570312 250.570312 289.96875 C 256.097656 289.257812 263.292969 293.199219 266.054688 303.59375 C 269.148438 315.222656 270.679688 328.710938 271.335938 335.878906 C 273.9375 333.058594 277.957031 328.984375 283.265625 324.6875 C 292.210938 317.464844 306.574219 308.191406 324.410156 305.042969 C 351.933594 300.203125 364.382812 309.285156 368.429688 313.441406 C 372.207031 317.273438 373.902344 321.734375 373.136719 325.726562 C 371.523438 334.070312 365.804688 334.945312 357.898438 336.125 C 353.4375 336.78125 347.777344 337.628906 340.9375 340.007812 C 348.160156 341.183594 357.378906 344.632812 360.222656 354.234375 C 362.496094 361.894531 355.519531 368.460938 351.578125 371.496094 C 352.863281 372.589844 354.453125 374.152344 355.765625 376.148438 C 358.308594 379.976562 360.441406 386.078125 356.558594 393.847656 C 358.199219 397.953125 363.5625 413.765625 352.890625 421.425781 C 342.769531 428.675781 307.941406 433.082031 300.363281 433.957031 C 296.152344 448.648438 258.804688 578.050781 230.738281 634.628906 C 217.332031 661.65625 202.640625 688.851562 186.058594 704.71875 C 177.6875 712.734375 169.234375 717.660156 160.207031 719.738281 C 156.976562 720.53125 153.667969 720.914062 150.277344 720.914062 Z M 130.988281 712.652344 C 150.6875 720.449219 167.292969 716.976562 183.214844 701.710938 C 199.328125 686.28125 213.800781 659.46875 227.015625 632.792969 C 256.480469 573.398438 296.34375 432.890625 296.753906 431.464844 C 297 430.644531 297.683594 430.042969 298.53125 429.960938 C 298.941406 429.90625 340.226562 425.367188 350.484375 418.035156 C 359.757812 411.386719 352.453125 394.777344 352.371094 394.613281 C 352.097656 394.011719 352.125 393.328125 352.453125 392.753906 C 359.101562 380.664062 347.449219 373.550781 346.929688 373.25 C 346.296875 372.863281 345.886719 372.179688 345.886719 371.441406 C 345.886719 370.703125 346.269531 370.019531 346.902344 369.636719 C 347.011719 369.582031 358.335938 362.605469 356.203125 355.410156 C 352.34375 342.441406 332.046875 343.59375 331.851562 343.621094 C 330.839844 343.675781 329.9375 343.015625 329.691406 342.058594 C 329.445312 341.074219 329.910156 340.0625 330.8125 339.625 C 342.085938 334.207031 350.867188 332.894531 357.296875 331.9375 C 365.421875 330.734375 368.046875 330.078125 369.035156 324.90625 C 369.527344 322.335938 368.183594 319.132812 365.449219 316.371094 C 362.632812 313.527344 351.414062 304.550781 325.125 309.175781 C 292.648438 314.894531 271.5 342.058594 271.28125 342.332031 C 270.761719 343.015625 269.832031 343.320312 269.011719 343.070312 C 268.164062 342.824219 267.589844 342.058594 267.535156 341.183594 C 267.535156 340.992188 266.246094 320.636719 261.980469 304.660156 C 259.875 296.726562 254.839844 293.636719 251.089844 294.128906 C 247.316406 294.621094 244.964844 298.449219 244.964844 304.140625 C 244.964844 307.207031 245.074219 310.816406 245.210938 315.003906 C 245.730469 331.855469 246.496094 357.324219 240.175781 378.390625 C 235.714844 393.246094 208.878906 436.71875 180.453125 482.734375 C 158.457031 518.355469 135.722656 555.179688 120.453125 583.222656 C 93.453125 632.792969 102.070312 670 107.023438 683.707031 C 112.300781 698.152344 121.03125 708.714844 130.988281 712.652344 Z M 130.988281 712.652344 " fill-opacity="1" fill-rule="nonzero"/><path fill="#3f2c27" d="M 307.859375 379.8125 C 306.875 379.8125 306.027344 379.128906 305.808594 378.144531 C 305.5625 377.023438 306.300781 375.902344 307.421875 375.65625 C 308.132812 375.519531 324.960938 372.015625 334.835938 372.261719 C 335.984375 372.289062 336.914062 373.25 336.886719 374.425781 C 336.859375 375.574219 335.902344 376.503906 334.726562 376.476562 C 325.34375 376.230469 308.433594 379.730469 308.269531 379.757812 C 308.132812 379.785156 307.996094 379.8125 307.859375 379.8125 Z M 307.859375 379.8125 " fill-opacity="1" fill-rule="nonzero"/><path fill="#3f2c27" d="M 314.78125 400.195312 C 313.742188 400.195312 312.839844 399.402344 312.703125 398.335938 C 312.566406 397.1875 313.386719 396.148438 314.535156 396.011719 C 315.328125 395.929688 334.070312 393.683594 340.117188 394.203125 C 341.265625 394.3125 342.113281 395.324219 342.03125 396.476562 C 341.921875 397.625 340.910156 398.472656 339.761719 398.390625 C 334.152344 397.898438 315.246094 400.167969 315.054688 400.167969 C 314.945312 400.195312 314.863281 400.195312 314.78125 400.195312 Z M 314.78125 400.195312 " fill-opacity="1" fill-rule="nonzero"/><path fill="#ffd2a9" d="M 303.539062 352.238281 C 303.539062 352.238281 315.300781 346.464844 323.589844 344.632812 " fill-opacity="1" fill-rule="nonzero"/><path fill="#3f2c27" d="M 303.566406 354.316406 C 302.796875 354.316406 302.03125 353.878906 301.675781 353.140625 C 301.15625 352.101562 301.59375 350.84375 302.632812 350.320312 C 303.128906 350.074219 314.699219 344.441406 323.152344 342.550781 C 324.273438 342.304688 325.398438 343.015625 325.644531 344.140625 C 325.890625 345.261719 325.179688 346.382812 324.054688 346.628906 C 316.09375 348.40625 304.605469 354.015625 304.46875 354.070312 C 304.167969 354.261719 303.867188 354.316406 303.566406 354.316406 Z M 303.566406 354.316406 " fill-opacity="1" fill-rule="nonzero"/><path fill="#789ec4" d="M 467.824219 318.722656 C 472.914062 318.503906 477.289062 314.566406 477.261719 309.285156 C 477.261719 309.121094 477.261719 308.929688 477.261719 308.765625 C 477.316406 308.546875 477.371094 308.355469 477.425781 308.136719 C 477.5625 307.890625 477.703125 307.5625 477.785156 307.425781 C 477.8125 307.371094 477.839844 307.34375 477.867188 307.289062 C 478.167969 307.015625 478.578125 306.6875 478.90625 306.332031 C 478.960938 306.304688 479.042969 306.25 479.097656 306.222656 C 479.097656 306.222656 479.234375 306.167969 479.371094 306.113281 C 479.535156 306.085938 479.699219 306.027344 479.863281 305.972656 C 480.519531 306.027344 481.175781 305.972656 481.832031 306 C 482.1875 306.027344 482.515625 306.054688 482.84375 306.085938 C 482.925781 306.085938 483.007812 306.085938 483.0625 306.113281 C 485.035156 306.359375 487.003906 306.714844 489 306.742188 C 493.050781 306.796875 496.90625 305.726562 500.546875 303.976562 C 507.113281 300.804688 512.417969 293.992188 513.59375 286.742188 C 514.882812 278.808594 512.882812 271.039062 507.441406 264.992188 C 501.449219 258.34375 491.871094 255.964844 483.308594 257.824219 C 478.46875 258.863281 475.128906 264.609375 476.578125 269.34375 C 478.140625 274.402344 482.953125 277.195312 488.097656 276.070312 C 488.207031 276.042969 488.34375 276.015625 488.453125 276.015625 C 488.535156 276.015625 488.617188 276.015625 488.753906 275.988281 C 489.164062 275.988281 489.574219 275.988281 489.984375 276.015625 C 490.066406 276.015625 490.121094 276.015625 490.175781 276.042969 C 490.640625 276.179688 491.214844 276.347656 491.542969 276.457031 C 491.789062 276.59375 492.0625 276.703125 492.3125 276.867188 C 492.53125 277.003906 492.75 277.140625 492.96875 277.277344 C 493.296875 277.632812 493.871094 278.34375 494.253906 278.671875 C 494.363281 278.890625 494.5 279.082031 494.609375 279.300781 C 494.664062 279.410156 494.71875 279.519531 494.773438 279.628906 C 494.800781 279.683594 494.800781 279.710938 494.828125 279.765625 C 494.855469 279.929688 495.046875 281.050781 495.210938 281.652344 C 495.210938 281.980469 495.210938 282.308594 495.210938 282.609375 C 495.210938 282.636719 495.210938 282.664062 495.210938 282.71875 C 495.101562 283.101562 494.773438 284.0625 494.664062 284.554688 C 494.527344 284.800781 494.390625 285.046875 494.226562 285.292969 C 494.199219 285.347656 494.144531 285.402344 494.117188 285.457031 C 494.035156 285.539062 493.980469 285.621094 493.898438 285.703125 C 493.707031 285.921875 493.488281 286.113281 493.269531 286.304688 C 492.722656 286.605469 491.679688 287.34375 491.488281 287.453125 C 491.460938 287.453125 491.460938 287.480469 491.433594 287.480469 C 491.269531 287.535156 491.078125 287.589844 490.914062 287.644531 C 490.53125 287.753906 490.121094 287.863281 489.738281 287.917969 C 489.65625 287.945312 489.574219 287.945312 489.519531 287.945312 C 488.808594 287.917969 487.824219 287.808594 487.660156 287.808594 C 487.222656 287.78125 486.785156 287.726562 486.375 287.671875 C 482.078125 287.125 477.839844 286.6875 473.625 288.164062 C 464.707031 291.3125 458.332031 299.710938 458.414062 309.285156 C 458.441406 314.238281 462.707031 318.941406 467.824219 318.722656 Z M 467.824219 318.722656 " fill-opacity="1" fill-rule="nonzero"/><path fill="#789ec4" d="M 468.808594 338.777344 C 469.328125 338.09375 469.820312 337.4375 470.339844 336.753906 C 471.164062 335.300781 471.574219 333.742188 471.574219 332.101562 C 471.464844 331.308594 471.382812 330.515625 471.273438 329.722656 C 470.835938 328.078125 470.011719 326.65625 468.808594 325.453125 L 468.589844 325.234375 C 467.714844 324.277344 466.648438 323.621094 465.445312 323.238281 C 464.351562 322.691406 463.175781 322.417969 461.914062 322.472656 C 460.65625 322.417969 459.480469 322.691406 458.386719 323.238281 C 457.183594 323.621094 456.117188 324.277344 455.238281 325.234375 C 454.71875 325.917969 454.226562 326.574219 453.707031 327.257812 C 452.886719 328.710938 452.476562 330.269531 452.476562 331.910156 C 452.585938 332.703125 452.667969 333.496094 452.777344 334.289062 C 453.214844 335.933594 454.035156 337.355469 455.238281 338.558594 L 455.457031 338.777344 C 456.335938 339.734375 457.402344 340.390625 458.605469 340.773438 C 459.699219 341.320312 460.875 341.59375 462.132812 341.539062 C 463.394531 341.59375 464.570312 341.320312 465.664062 340.773438 C 466.867188 340.390625 467.90625 339.734375 468.808594 338.777344 Z M 468.808594 338.777344 " fill-opacity="1" fill-rule="nonzero"/><path fill="#789ec4" d="M 133.039062 313.554688 C 136.488281 309.804688 136.789062 303.921875 133.039062 300.203125 C 132.929688 300.09375 132.792969 299.957031 132.683594 299.820312 C 132.574219 299.628906 132.464844 299.4375 132.355469 299.246094 C 132.273438 298.972656 132.136719 298.671875 132.109375 298.476562 C 132.109375 298.421875 132.082031 298.367188 132.082031 298.3125 C 132.109375 297.902344 132.164062 297.355469 132.136719 296.890625 C 132.164062 296.808594 132.164062 296.753906 132.191406 296.671875 C 132.191406 296.671875 132.246094 296.535156 132.300781 296.398438 C 132.382812 296.261719 132.464844 296.097656 132.546875 295.960938 C 133.039062 295.550781 133.476562 295.03125 133.96875 294.59375 C 134.214844 294.375 134.488281 294.15625 134.761719 293.9375 C 134.816406 293.882812 134.871094 293.828125 134.925781 293.800781 C 136.488281 292.597656 138.15625 291.421875 139.550781 290.023438 C 142.449219 287.179688 144.421875 283.707031 145.761719 279.902344 C 148.140625 273.007812 147.101562 264.445312 142.808594 258.507812 C 138.101562 251.996094 131.179688 247.921875 123.082031 247.484375 C 114.136719 247.019531 105.679688 252.105469 100.949219 259.464844 C 98.265625 263.625 99.964844 270.054688 104.339844 272.378906 C 109.019531 274.839844 114.382812 273.417969 117.253906 268.988281 C 117.308594 268.878906 117.390625 268.792969 117.445312 268.683594 C 117.5 268.628906 117.554688 268.546875 117.636719 268.464844 C 117.910156 268.164062 118.210938 267.890625 118.511719 267.617188 C 118.566406 267.5625 118.621094 267.535156 118.648438 267.480469 C 119.085938 267.234375 119.605469 266.960938 119.90625 266.796875 C 120.179688 266.714844 120.453125 266.605469 120.730469 266.523438 C 120.976562 266.441406 121.222656 266.414062 121.496094 266.332031 C 121.960938 266.359375 122.890625 266.441406 123.382812 266.414062 C 123.601562 266.46875 123.847656 266.523438 124.066406 266.605469 C 124.175781 266.632812 124.285156 266.6875 124.394531 266.714844 C 124.449219 266.742188 124.476562 266.769531 124.53125 266.796875 C 124.667969 266.878906 125.597656 267.535156 126.144531 267.863281 C 126.390625 268.082031 126.609375 268.300781 126.828125 268.546875 C 126.855469 268.574219 126.882812 268.601562 126.910156 268.601562 C 127.101562 268.960938 127.566406 269.863281 127.839844 270.300781 C 127.925781 270.574219 128.007812 270.847656 128.0625 271.121094 C 128.089844 271.203125 128.089844 271.257812 128.089844 271.3125 C 128.089844 271.421875 128.089844 271.53125 128.117188 271.640625 C 128.117188 271.941406 128.117188 272.214844 128.117188 272.515625 C 127.953125 273.117188 127.730469 274.347656 127.675781 274.566406 C 127.675781 274.59375 127.675781 274.59375 127.648438 274.621094 C 127.566406 274.785156 127.484375 274.949219 127.402344 275.113281 C 127.210938 275.46875 126.992188 275.824219 126.773438 276.152344 C 126.71875 276.238281 126.691406 276.292969 126.636719 276.347656 C 126.117188 276.839844 125.351562 277.441406 125.214844 277.578125 C 124.886719 277.851562 124.558594 278.125 124.203125 278.398438 C 120.757812 281.050781 117.472656 283.734375 115.53125 287.753906 C 111.453125 296.289062 112.902344 306.742188 119.714844 313.445312 C 123.21875 317.027344 129.59375 317.328125 133.039062 313.554688 Z M 133.039062 313.554688 " fill-opacity="1" fill-rule="nonzero"/><path fill="#789ec4" d="M 147.894531 327.039062 C 147.785156 326.191406 147.675781 325.371094 147.566406 324.523438 C 147.128906 322.9375 146.308594 321.542969 145.132812 320.363281 C 144.503906 319.871094 143.847656 319.378906 143.21875 318.886719 C 141.738281 318.039062 140.152344 317.601562 138.457031 317.601562 L 138.15625 317.601562 C 136.871094 317.546875 135.640625 317.820312 134.515625 318.421875 C 133.339844 318.804688 132.328125 319.460938 131.480469 320.363281 C 130.550781 321.214844 129.921875 322.226562 129.539062 323.402344 C 128.9375 324.523438 128.691406 325.726562 128.71875 327.039062 C 128.828125 327.886719 128.9375 328.710938 129.046875 329.558594 C 129.484375 331.144531 130.304688 332.539062 131.480469 333.714844 C 132.109375 334.207031 132.765625 334.699219 133.394531 335.191406 C 134.871094 336.042969 136.460938 336.480469 138.15625 336.480469 L 138.457031 336.480469 C 139.742188 336.535156 140.972656 336.261719 142.09375 335.65625 C 143.273438 335.273438 144.285156 334.617188 145.132812 333.714844 C 146.0625 332.867188 146.691406 331.855469 147.074219 330.679688 C 147.675781 329.558594 147.949219 328.355469 147.894531 327.039062 Z M 147.894531 327.039062 " fill-opacity="1" fill-rule="nonzero"/></svg>