<svg xmlns="http://www.w3.org/2000/svg" xmlns:xlink="http://www.w3.org/1999/xlink" width="1053" zoomAndPan="magnify" viewBox="0 0 789.75 347.249998" height="463" preserveAspectRatio="xMidYMid meet" version="1.0"><defs><g/><clipPath id="5714a1ae81"><path d="M 29.640625 109 L 39 109 L 39 113 L 29.640625 113 Z M 29.640625 109 " clip-rule="nonzero"/></clipPath><clipPath id="7915eb63ed"><path d="M 778 233 L 787.753906 233 L 787.753906 237 L 778 237 Z M 778 233 " clip-rule="nonzero"/></clipPath></defs><path fill="#aad2ca" d="M 63.128906 209.628906 C 60.648438 211.515625 67.101562 207.839844 68.160156 206.925781 C 59.246094 205.59375 60.558594 201.253906 66.902344 200.625 C 61.820312 199.660156 63.9375 198.589844 66.902344 197.023438 C 54.960938 198.550781 62.496094 190.25 55.585938 188.921875 C 51.738281 194.613281 63.996094 202.6875 53.070312 199.726562 C 54.820312 204.183594 63.574219 203.605469 63.128906 209.628906 Z M 63.128906 209.628906 " fill-opacity="1" fill-rule="nonzero"/><path fill="#aad2ca" d="M 94.042969 155.167969 C 91.59375 151.46875 77.441406 151.628906 71.417969 154.269531 C 81.015625 156.777344 85.371094 154.261719 94.042969 155.167969 Z M 94.042969 155.167969 " fill-opacity="1" fill-rule="nonzero"/><path fill="#aad2ca" d="M 52.550781 144.375 C 55.550781 148.773438 69.3125 147.789062 71.414062 144.375 C 65.085938 143.644531 58.613281 142.9375 52.550781 144.375 Z M 52.550781 144.375 " fill-opacity="1" fill-rule="nonzero"/><path fill="#aad2ca" d="M 74.445312 193.417969 C 75.121094 189.316406 75.527344 190.160156 71.933594 188.921875 C 72.488281 190.628906 70.21875 194.34375 74.445312 193.417969 Z M 74.445312 193.417969 " fill-opacity="1" fill-rule="nonzero"/><path fill="#aad2ca" d="M 66.90625 160.117188 C 67.523438 163.980469 76.289062 165.535156 78.21875 163.714844 C 74.148438 162.730469 70.976562 161.105469 66.90625 160.117188 Z M 66.90625 160.117188 " fill-opacity="1" fill-rule="nonzero"/><path fill="#aad2ca" d="M 68.890625 164.179688 C 65.125 166.519531 61.46875 161.179688 58.84375 163.273438 C 62.210938 163.675781 68.980469 169.855469 68.890625 166.875 C 63.601562 167.023438 68.027344 164.863281 68.890625 164.179688 Z M 68.890625 164.179688 " fill-opacity="1" fill-rule="nonzero"/><path fill="#aad2ca" d="M 231.582031 332.042969 C 227.308594 331.804688 221.390625 332.734375 219.015625 331.136719 C 217.699219 334.628906 234.96875 332.871094 231.582031 332.042969 Z M 231.582031 332.042969 " fill-opacity="1" fill-rule="nonzero"/><path fill="#aad2ca" d="M 70.679688 216.824219 C 71.121094 219.230469 65.460938 224.863281 70.679688 224.929688 C 68.90625 221.488281 73.960938 218.367188 70.679688 216.824219 Z M 70.679688 216.824219 " fill-opacity="1" fill-rule="nonzero"/><path fill="#aad2ca" d="M 281.855469 314.039062 C 283.203125 311.484375 295.90625 316.507812 293.167969 314.039062 C 290.734375 312.824219 279.027344 311.027344 281.855469 314.039062 Z M 281.855469 314.039062 " fill-opacity="1" fill-rule="nonzero"/><path fill="#aad2ca" d="M 211.460938 314.9375 C 207.308594 315.082031 206.445312 315.996094 203.921875 317.632812 C 209.898438 318.074219 208.703125 317.644531 211.460938 314.9375 Z M 211.460938 314.9375 " fill-opacity="1" fill-rule="nonzero"/><path fill="#aad2ca" d="M 304.492188 317.636719 C 302.660156 318.128906 298 316.589844 298.199219 318.542969 C 301.644531 318.488281 306.898438 323.394531 304.492188 317.636719 Z M 304.492188 317.636719 " fill-opacity="1" fill-rule="nonzero"/><path fill="#aad2ca" d="M 182.550781 322.136719 C 180.03125 320.996094 169.382812 320.027344 168.726562 323.035156 C 173.644531 322.683594 178.820312 325.890625 182.550781 322.136719 Z M 182.550781 322.136719 " fill-opacity="1" fill-rule="nonzero"/><path fill="#aad2ca" d="M 134.792969 325.730469 C 156.421875 319.386719 135 321.800781 123.476562 323.9375 C 129.207031 323.132812 130.59375 325.433594 134.792969 325.730469 Z M 134.792969 325.730469 " fill-opacity="1" fill-rule="nonzero"/><path fill="#aad2ca" d="M 75.707031 267.230469 C 75.640625 274.832031 69.351562 269.308594 66.902344 273.527344 C 69.515625 274.539062 69.566406 274.496094 68.164062 272.628906 C 71.804688 272.285156 75.023438 273.144531 71.933594 276.226562 C 76.171875 278.132812 77.539062 271.941406 75.707031 267.230469 Z M 75.707031 267.230469 " fill-opacity="1" fill-rule="nonzero"/><path fill="#aad2ca" d="M 195.125 331.136719 C 183.875 331.824219 186.199219 333.648438 171.234375 334.746094 C 165.332031 337.441406 194.371094 333.664062 195.125 333.835938 C 191.292969 332.9375 193.519531 332.355469 195.125 331.136719 Z M 195.125 331.136719 " fill-opacity="1" fill-rule="nonzero"/><path fill="#aad2ca" d="M 59.363281 289.738281 C 62.617188 291.339844 70.648438 294.226562 74.441406 292.4375 C 70.082031 291.632812 63.070312 288.019531 59.363281 289.738281 Z M 59.363281 289.738281 " fill-opacity="1" fill-rule="nonzero"/><path fill="#aad2ca" d="M 226.027344 3.941406 C 221.503906 2.371094 211.453125 0.015625 205.917969 2.152344 C 213.039062 2.617188 221.835938 6.734375 226.027344 3.941406 Z M 226.027344 3.941406 " fill-opacity="1" fill-rule="nonzero"/><path fill="#aad2ca" d="M 77.695312 60.652344 C 67.726562 62.097656 74.753906 66.761719 78.953125 62.457031 C 75.851562 62.074219 76.808594 62.222656 77.695312 60.652344 Z M 77.695312 60.652344 " fill-opacity="1" fill-rule="nonzero"/><path fill="#aad2ca" d="M 219.75 17.453125 C 215.683594 12.933594 200.597656 16.71875 199.636719 15.660156 C 202.195312 18.484375 217.128906 14.632812 219.75 17.453125 Z M 219.75 17.453125 " fill-opacity="1" fill-rule="nonzero"/><path fill="#aad2ca" d="M 56.324219 112.867188 C 55.855469 107.863281 59.367188 111.449219 63.863281 107.460938 C 54.074219 105.417969 49.121094 114.5625 56.324219 112.867188 Z M 56.324219 112.867188 " fill-opacity="1" fill-rule="nonzero"/><g clip-path="url(#5714a1ae81)"><path fill="#aad2ca" d="M 38.730469 109.265625 C 34.121094 109.273438 31.988281 111.042969 29.929688 112.867188 C 34.074219 112.53125 36.203125 110.765625 38.730469 109.265625 Z M 38.730469 109.265625 " fill-opacity="1" fill-rule="nonzero"/></g><path fill="#aad2ca" d="M 334.453125 318.246094 C 309.957031 315.558594 342.570312 322.308594 350.042969 319.4375 C 346.105469 319.609375 340.238281 318.878906 334.453125 318.246094 Z M 334.453125 318.246094 " fill-opacity="1" fill-rule="nonzero"/><path fill="#aad2ca" d="M 42.496094 135.367188 C 44.785156 131.601562 53.523438 132.457031 57.582031 129.964844 C 50.898438 129.761719 41.542969 131.355469 42.496094 135.367188 Z M 42.496094 135.367188 " fill-opacity="1" fill-rule="nonzero"/><path fill="#aad2ca" d="M 267.515625 17.453125 C 259.421875 17.621094 252.695312 17.359375 248.664062 18.355469 C 254.417969 19.585938 264.890625 19.484375 267.515625 17.453125 Z M 267.515625 17.453125 " fill-opacity="1" fill-rule="nonzero"/><path fill="#aad2ca" d="M 242.367188 35.453125 C 245.164062 32.050781 257.421875 35.429688 259.96875 31.855469 C 254.828125 34.304688 243.34375 28.996094 243.628906 30.960938 C 248.269531 32.078125 237.941406 34.488281 242.367188 35.453125 Z M 242.367188 35.453125 " fill-opacity="1" fill-rule="nonzero"/><path fill="#aad2ca" d="M 301.453125 17.453125 C 287.671875 18.433594 279.703125 16.644531 271.289062 19.257812 C 281.328125 17.453125 293.503906 21.558594 301.453125 17.453125 Z M 301.453125 17.453125 " fill-opacity="1" fill-rule="nonzero"/><path fill="#aad2ca" d="M 247.394531 17.453125 C 238.46875 17.660156 233.730469 15.339844 223.507812 17.453125 C 230.558594 17.53125 241.066406 19.867188 247.394531 17.453125 Z M 247.394531 17.453125 " fill-opacity="1" fill-rule="nonzero"/><path fill="#aad2ca" d="M 352.332031 30.960938 C 374.722656 29.980469 343.441406 27.4375 343.558594 30.960938 C 349.339844 29.441406 346.722656 31.152344 352.332031 30.960938 Z M 352.332031 30.960938 " fill-opacity="1" fill-rule="nonzero"/><path fill="#aad2ca" d="M 71.933594 212.320312 C 76.34375 212.578125 68.78125 215.671875 73.191406 215.917969 C 74.351562 214.585938 82.242188 214.480469 74.441406 214.117188 C 75.886719 212.28125 72.46875 209.832031 71.933594 212.320312 Z M 71.933594 212.320312 " fill-opacity="1" fill-rule="nonzero"/><path fill="#aad2ca" d="M 208.433594 24.652344 C 208.851562 26.746094 209.246094 28.871094 213.457031 28.25 C 214.71875 23.035156 234.773438 33.277344 234.824219 26.457031 C 229.746094 29.441406 217.46875 24.5625 208.433594 24.652344 Z M 208.433594 24.652344 " fill-opacity="1" fill-rule="nonzero"/><path fill="#aad2ca" d="M 285.109375 21.054688 C 269.484375 22.253906 247.042969 20.679688 227.289062 22.855469 C 242.808594 21.953125 270.226562 25.042969 285.109375 21.054688 Z M 285.109375 21.054688 " fill-opacity="1" fill-rule="nonzero"/><path fill="#aad2ca" d="M 300.199219 32.761719 C 288.191406 34.117188 277.75 27.941406 268.761719 33.652344 C 282.441406 33.148438 288.976562 35.59375 300.199219 32.761719 Z M 300.199219 32.761719 " fill-opacity="1" fill-rule="nonzero"/><path fill="#aad2ca" d="M 259.96875 43.554688 C 256.089844 43.21875 249.742188 39.046875 248.660156 45.359375 C 252.898438 45.085938 257.242188 44.910156 259.96875 43.554688 Z M 259.96875 43.554688 " fill-opacity="1" fill-rule="nonzero"/><path fill="#aad2ca" d="M 92.046875 266.332031 C 84.550781 267.085938 84.296875 266.652344 80.730469 263.632812 C 79.324219 268.542969 89.726562 269.339844 92.046875 266.332031 Z M 92.046875 266.332031 " fill-opacity="1" fill-rule="nonzero"/><path fill="#aad2ca" d="M 72.664062 76.851562 C 66.328125 79.785156 82.195312 80.148438 77.691406 76.851562 C 73.386719 77.574219 77.800781 79.390625 72.664062 76.851562 Z M 72.664062 76.851562 " fill-opacity="1" fill-rule="nonzero"/><path fill="#aad2ca" d="M 73.191406 258.21875 C 75.015625 258.617188 77.871094 258.386719 80.714844 258.171875 C 80.085938 255.375 73.972656 254.847656 73.191406 258.21875 Z M 73.191406 258.21875 " fill-opacity="1" fill-rule="nonzero"/><path fill="#aad2ca" d="M 94.042969 78.667969 C 89.941406 77.859375 82.691406 75.472656 80.207031 78.667969 C 85.363281 77.726562 90.488281 81.433594 94.042969 78.667969 Z M 94.042969 78.667969 " fill-opacity="1" fill-rule="nonzero"/><path fill="#aad2ca" d="M 343.582031 316.742188 C 327.207031 317.332031 374.148438 320.152344 366.507812 318.542969 C 360.050781 317.351562 349.890625 317.917969 343.582031 316.742188 Z M 343.582031 316.742188 " fill-opacity="1" fill-rule="nonzero"/><path fill="#aad2ca" d="M 80.730469 258.21875 C 80.773438 258.199219 80.824219 258.183594 80.863281 258.164062 C 80.808594 258.179688 80.6875 258.140625 80.730469 258.21875 Z M 80.730469 258.21875 " fill-opacity="1" fill-rule="nonzero"/><path fill="#aad2ca" d="M 68.890625 120.976562 C 66.425781 120.5625 61.125 117.625 58.84375 120.070312 C 63.050781 119.222656 66.769531 123.300781 68.890625 120.976562 Z M 68.890625 120.976562 " fill-opacity="1" fill-rule="nonzero"/><path fill="#aad2ca" d="M 411.519531 323.519531 C 363.226562 324.03125 437.625 326.433594 435.746094 323.933594 C 427.742188 324.566406 419.054688 323.898438 411.519531 323.519531 Z M 411.519531 323.519531 " fill-opacity="1" fill-rule="nonzero"/><path fill="#aad2ca" d="M 375.988281 314.9375 C 383.140625 315.09375 388.953125 314.691406 391.648438 313.132812 C 384.796875 313.085938 377.566406 312.855469 375.988281 314.9375 Z M 375.988281 314.9375 " fill-opacity="1" fill-rule="nonzero"/><path fill="#aad2ca" d="M 586.097656 14.007812 C 590.367188 14.25 596.285156 13.320312 598.664062 14.917969 C 599.980469 11.417969 582.707031 13.179688 586.097656 14.007812 Z M 586.097656 14.007812 " fill-opacity="1" fill-rule="nonzero"/><path fill="#aad2ca" d="M 606.207031 31.117188 C 610.359375 30.980469 611.226562 30.054688 613.75 28.417969 C 607.777344 27.980469 608.976562 28.410156 606.207031 31.117188 Z M 606.207031 31.117188 " fill-opacity="1" fill-rule="nonzero"/><path fill="#aad2ca" d="M 441.6875 31.117188 C 434.535156 30.960938 428.71875 31.359375 426.023438 32.917969 C 432.878906 32.972656 440.105469 33.199219 441.6875 31.117188 Z M 441.6875 31.117188 " fill-opacity="1" fill-rule="nonzero"/><path fill="#aad2ca" d="M 483.226562 27.808594 C 507.722656 30.496094 475.109375 23.742188 467.636719 26.613281 C 471.570312 26.441406 477.4375 27.175781 483.226562 27.808594 Z M 483.226562 27.808594 " fill-opacity="1" fill-rule="nonzero"/><path fill="#aad2ca" d="M 474.09375 29.3125 C 490.46875 28.722656 443.53125 25.898438 451.164062 27.511719 C 457.625 28.703125 467.789062 28.132812 474.09375 29.3125 Z M 474.09375 29.3125 " fill-opacity="1" fill-rule="nonzero"/><path fill="#aad2ca" d="M 513.1875 28.414062 C 515.015625 27.921875 519.675781 29.464844 519.480469 27.511719 C 516.027344 27.5625 510.777344 22.65625 513.1875 28.414062 Z M 513.1875 28.414062 " fill-opacity="1" fill-rule="nonzero"/><path fill="#aad2ca" d="M 406.152344 22.535156 C 454.449219 22.023438 380.046875 19.613281 381.929688 22.117188 C 389.933594 21.484375 398.621094 22.152344 406.152344 22.535156 Z M 406.152344 22.535156 " fill-opacity="1" fill-rule="nonzero"/><path fill="#aad2ca" d="M 743.230469 152.632812 C 742.554688 156.738281 742.152344 155.894531 745.746094 157.128906 C 745.183594 155.425781 747.460938 151.707031 743.230469 152.632812 Z M 743.230469 152.632812 " fill-opacity="1" fill-rule="nonzero"/><g clip-path="url(#7915eb63ed)"><path fill="#aad2ca" d="M 778.945312 236.789062 C 783.554688 236.78125 785.691406 235.011719 787.746094 233.1875 C 783.597656 233.523438 781.472656 235.285156 778.945312 236.789062 Z M 778.945312 236.789062 " fill-opacity="1" fill-rule="nonzero"/></g><path fill="#aad2ca" d="M 723.636719 190.878906 C 726.085938 194.582031 740.234375 194.421875 746.261719 191.78125 C 736.664062 189.273438 732.300781 191.789062 723.636719 190.878906 Z M 723.636719 190.878906 " fill-opacity="1" fill-rule="nonzero"/><path fill="#aad2ca" d="M 748.785156 181.878906 C 752.550781 179.539062 756.207031 184.875 758.832031 182.78125 C 755.460938 182.382812 748.691406 176.199219 748.785156 179.175781 C 754.078125 179.023438 749.640625 181.195312 748.785156 181.878906 Z M 748.785156 181.878906 " fill-opacity="1" fill-rule="nonzero"/><path fill="#aad2ca" d="M 750.773438 185.929688 C 750.152344 182.070312 741.386719 180.511719 739.460938 182.332031 C 743.523438 183.320312 746.695312 184.945312 750.773438 185.929688 Z M 750.773438 185.929688 " fill-opacity="1" fill-rule="nonzero"/><path fill="#aad2ca" d="M 746.996094 129.234375 C 746.554688 126.828125 752.21875 121.191406 746.996094 121.125 C 748.769531 124.5625 743.714844 127.683594 746.996094 129.234375 Z M 746.996094 129.234375 " fill-opacity="1" fill-rule="nonzero"/><path fill="#aad2ca" d="M 745.746094 133.730469 C 741.335938 133.46875 748.898438 130.375 744.488281 130.128906 C 743.328125 131.460938 735.433594 131.570312 743.234375 131.933594 C 741.789062 133.769531 745.207031 136.21875 745.746094 133.730469 Z M 745.746094 133.730469 " fill-opacity="1" fill-rule="nonzero"/><path fill="#aad2ca" d="M 741.972656 78.824219 C 742.03125 71.222656 748.324219 76.742188 750.773438 72.523438 C 748.15625 71.511719 748.109375 71.554688 749.507812 73.417969 C 745.871094 73.761719 742.652344 72.902344 745.742188 69.820312 C 741.507812 67.917969 740.136719 74.109375 741.972656 78.824219 Z M 741.972656 78.824219 " fill-opacity="1" fill-rule="nonzero"/><path fill="#aad2ca" d="M 635.128906 23.910156 C 637.644531 25.054688 648.296875 26.023438 648.949219 23.015625 C 644.035156 23.371094 638.855469 20.160156 635.128906 23.910156 Z M 635.128906 23.910156 " fill-opacity="1" fill-rule="nonzero"/><path fill="#aad2ca" d="M 682.886719 20.316406 C 661.253906 26.664062 682.671875 24.246094 694.199219 22.109375 C 688.46875 22.921875 687.085938 20.617188 682.886719 20.316406 Z M 682.886719 20.316406 " fill-opacity="1" fill-rule="nonzero"/><path fill="#aad2ca" d="M 622.550781 14.917969 C 633.804688 14.226562 631.476562 12.402344 646.4375 11.308594 C 652.339844 8.609375 623.300781 12.386719 622.550781 12.21875 C 626.382812 13.117188 624.15625 13.695312 622.550781 14.917969 Z M 622.550781 14.917969 " fill-opacity="1" fill-rule="nonzero"/><path fill="#aad2ca" d="M 765.128906 201.675781 C 762.132812 197.28125 748.363281 198.269531 746.269531 201.675781 C 752.59375 202.410156 759.058594 203.117188 765.128906 201.675781 Z M 765.128906 201.675781 " fill-opacity="1" fill-rule="nonzero"/><path fill="#aad2ca" d="M 754.542969 136.421875 C 757.023438 134.539062 750.578125 138.214844 749.507812 139.125 C 758.421875 140.457031 757.105469 144.800781 750.769531 145.425781 C 755.851562 146.390625 753.734375 147.460938 750.769531 149.027344 C 762.707031 147.5 755.175781 155.796875 762.082031 157.128906 C 765.933594 151.441406 753.671875 143.363281 764.601562 146.332031 C 762.859375 141.871094 754.09375 142.445312 754.542969 136.421875 Z M 754.542969 136.421875 " fill-opacity="1" fill-rule="nonzero"/><path fill="#aad2ca" d="M 758.3125 56.316406 C 755.058594 54.710938 747.023438 51.828125 743.230469 53.617188 C 747.589844 54.417969 754.597656 58.035156 758.3125 56.316406 Z M 758.3125 56.316406 " fill-opacity="1" fill-rule="nonzero"/><path fill="#aad2ca" d="M 535.820312 32.015625 C 534.472656 34.566406 521.769531 29.542969 524.503906 32.015625 C 526.941406 33.226562 538.652344 35.027344 535.820312 32.015625 Z M 535.820312 32.015625 " fill-opacity="1" fill-rule="nonzero"/><path fill="#aad2ca" d="M 550.160156 328.601562 C 558.253906 328.429688 564.980469 328.691406 569.011719 327.695312 C 563.257812 326.464844 552.785156 326.566406 550.160156 328.601562 Z M 550.160156 328.601562 " fill-opacity="1" fill-rule="nonzero"/><path fill="#aad2ca" d="M 517.476562 313.289062 C 529.480469 311.9375 539.925781 318.109375 548.914062 312.402344 C 535.230469 312.902344 528.703125 310.460938 517.476562 313.289062 Z M 517.476562 313.289062 " fill-opacity="1" fill-rule="nonzero"/><path fill="#aad2ca" d="M 609.242188 321.394531 C 608.824219 319.300781 608.429688 317.175781 604.214844 317.796875 C 602.957031 323.015625 582.898438 312.773438 582.851562 319.589844 C 587.933594 316.609375 600.210938 321.488281 609.242188 321.394531 Z M 609.242188 321.394531 " fill-opacity="1" fill-rule="nonzero"/><path fill="#aad2ca" d="M 570.277344 328.601562 C 579.207031 328.390625 583.945312 330.710938 594.164062 328.601562 C 587.121094 328.519531 576.609375 326.1875 570.277344 328.601562 Z M 570.277344 328.601562 " fill-opacity="1" fill-rule="nonzero"/><path fill="#aad2ca" d="M 591.644531 342.105469 C 596.167969 343.683594 606.214844 346.035156 611.753906 343.894531 C 604.636719 343.433594 595.84375 339.316406 591.644531 342.105469 Z M 591.644531 342.105469 " fill-opacity="1" fill-rule="nonzero"/><path fill="#aad2ca" d="M 575.308594 310.601562 C 572.515625 314 560.253906 310.625 557.707031 314.195312 C 562.847656 311.75 574.328125 317.058594 574.050781 315.09375 C 569.40625 313.972656 579.734375 311.566406 575.308594 310.601562 Z M 575.308594 310.601562 " fill-opacity="1" fill-rule="nonzero"/><path fill="#aad2ca" d="M 532.5625 324.996094 C 548.1875 323.796875 570.628906 325.367188 590.386719 323.195312 C 574.867188 324.101562 547.449219 321.011719 532.5625 324.996094 Z M 532.5625 324.996094 " fill-opacity="1" fill-rule="nonzero"/><path fill="#aad2ca" d="M 516.222656 328.601562 C 530.007812 327.621094 537.976562 329.40625 546.390625 326.796875 C 536.347656 328.601562 524.167969 324.496094 516.222656 328.601562 Z M 516.222656 328.601562 " fill-opacity="1" fill-rule="nonzero"/><path fill="#aad2ca" d="M 465.347656 315.09375 C 442.953125 316.070312 474.234375 318.613281 474.121094 315.09375 C 468.332031 316.609375 470.953125 314.898438 465.347656 315.09375 Z M 465.347656 315.09375 " fill-opacity="1" fill-rule="nonzero"/><path fill="#aad2ca" d="M 597.925781 328.601562 C 601.996094 333.121094 617.082031 329.332031 618.042969 330.390625 C 615.480469 327.566406 600.546875 331.421875 597.925781 328.601562 Z M 597.925781 328.601562 " fill-opacity="1" fill-rule="nonzero"/><path fill="#aad2ca" d="M 736.945312 87.828125 C 736.898438 87.847656 736.855469 87.867188 736.816406 87.886719 C 736.867188 87.875 736.992188 87.910156 736.945312 87.828125 Z M 736.945312 87.828125 " fill-opacity="1" fill-rule="nonzero"/><path fill="#aad2ca" d="M 723.636719 267.382812 C 727.738281 268.1875 734.984375 270.578125 737.46875 267.382812 C 732.308594 268.324219 727.183594 264.621094 723.636719 267.382812 Z M 723.636719 267.382812 " fill-opacity="1" fill-rule="nonzero"/><path fill="#aad2ca" d="M 725.632812 79.71875 C 733.125 78.96875 733.382812 79.398438 736.945312 82.421875 C 738.355469 77.511719 727.949219 76.710938 725.632812 79.71875 Z M 725.632812 79.71875 " fill-opacity="1" fill-rule="nonzero"/><path fill="#aad2ca" d="M 748.785156 225.078125 C 751.25 225.488281 756.546875 228.425781 758.832031 225.980469 C 754.621094 226.828125 750.902344 222.757812 748.785156 225.078125 Z M 748.785156 225.078125 " fill-opacity="1" fill-rule="nonzero"/><path fill="#aad2ca" d="M 745.007812 269.199219 C 751.339844 266.265625 735.480469 265.90625 739.984375 269.199219 C 744.289062 268.476562 739.867188 266.664062 745.007812 269.199219 Z M 745.007812 269.199219 " fill-opacity="1" fill-rule="nonzero"/><path fill="#aad2ca" d="M 761.351562 233.1875 C 761.820312 238.1875 758.308594 234.601562 753.808594 238.589844 C 763.601562 240.636719 768.554688 231.496094 761.351562 233.1875 Z M 761.351562 233.1875 " fill-opacity="1" fill-rule="nonzero"/><path fill="#aad2ca" d="M 760.089844 216.085938 C 766.777344 216.296875 776.128906 214.699219 775.175781 210.6875 C 772.890625 214.453125 764.15625 213.59375 760.089844 216.085938 Z M 760.089844 216.085938 " fill-opacity="1" fill-rule="nonzero"/><path fill="#aad2ca" d="M 739.984375 285.398438 C 749.957031 283.957031 742.921875 279.289062 738.722656 283.59375 C 741.820312 283.980469 740.867188 283.828125 739.984375 285.398438 Z M 739.984375 285.398438 " fill-opacity="1" fill-rule="nonzero"/><path fill="#aad2ca" d="M 744.484375 87.828125 C 742.660156 87.433594 739.804688 87.660156 736.957031 87.878906 C 737.585938 90.675781 743.695312 91.203125 744.484375 87.828125 Z M 744.484375 87.828125 " fill-opacity="1" fill-rule="nonzero"/><path fill="#aad2ca" d="M 557.703125 302.496094 C 561.582031 302.832031 567.933594 307 569.011719 300.691406 C 564.78125 300.960938 560.429688 301.140625 557.703125 302.496094 Z M 557.703125 302.496094 " fill-opacity="1" fill-rule="nonzero"/><path fill="#aad2ca" d="M 750.027344 242.191406 C 755.378906 237.84375 748.859375 240.273438 745.007812 238.589844 C 759.382812 234.226562 746.503906 237.007812 741.230469 233.1875 C 743.699219 229.066406 771.792969 233.566406 760.09375 225.980469 C 750.953125 232.648438 734.898438 221.011719 726.15625 218.792969 C 742.535156 218.003906 750.339844 222.089844 756.324219 216.085938 C 753.804688 218.238281 755.992188 214.453125 757.582031 214.277344 C 745.996094 214.558594 751.542969 211.441406 758.832031 212.492188 C 759.640625 209.210938 752.851562 211.367188 752.550781 208.882812 C 775.242188 210.222656 744.078125 207.535156 741.230469 200.773438 C 743.976562 200.210938 745.234375 203.335938 745.007812 199.878906 C 740.289062 198.199219 732.300781 204.296875 737.46875 197.183594 C 733.003906 195.785156 736.707031 200.242188 733.691406 199.878906 C 731.785156 197.042969 722.914062 199.195312 721.125 196.285156 C 722.890625 196.351562 725.941406 196.078125 723.640625 195.386719 C 711.125 197.375 708.605469 190.632812 698.121094 186.929688 C 704.527344 187.125 712.0625 186.023438 703.007812 185.039062 C 705.445312 184.949219 713.035156 182.152344 713.066406 185.035156 C 725.148438 179.46875 752.054688 179.207031 723.644531 178.285156 C 728.996094 175.464844 714.21875 175.140625 713.066406 173.339844 C 712.714844 169.015625 718.90625 172.535156 719.351562 173.339844 C 723.101562 170.738281 724.632812 164.707031 718.09375 163.429688 C 726.152344 172.863281 709.433594 170.535156 705.523438 173.339844 C 706.128906 170.574219 715.128906 171.125 709.296875 168.839844 C 721.664062 164.398438 691.230469 175.894531 700.496094 168.839844 C 695.777344 167.027344 693.585938 171.523438 691.699219 167.027344 C 689.699219 167.691406 691.992188 171.441406 687.929688 170.621094 C 693.542969 161.007812 683.710938 170.066406 682.898438 163.429688 C 684.425781 165.644531 686.917969 162.902344 687.929688 164.328125 C 693.433594 163.679688 686.914062 166.128906 690.445312 166.132812 C 700.832031 159.363281 706.007812 168.660156 718.617188 164.777344 C 697.726562 162.398438 715.042969 162.070312 730.664062 160.730469 C 731.386719 162.3125 729.152344 166.019531 731.921875 166.132812 C 732.890625 164.023438 744.851562 161.554688 740.722656 161.628906 C 728.378906 165.054688 736.65625 156.820312 740.722656 155.335938 C 738.832031 152.351562 737.648438 157.207031 734.433594 156.226562 C 734.554688 153.921875 739.335938 154.945312 739.460938 152.632812 C 737.058594 152.25 734.050781 152.300781 734.433594 149.933594 C 738.644531 149.15625 738.605469 148.59375 740.71875 151.722656 C 742.261719 145.511719 735.121094 149.011719 733.175781 147.226562 C 730.421875 143.070312 743.203125 145.496094 739.464844 143.621094 C 718.8125 142.871094 718.371094 154.890625 703.003906 157.125 C 705.296875 150.675781 697.832031 157.820312 695.464844 156.222656 C 700.007812 153.855469 694.359375 153.195312 696.722656 150.828125 C 705.441406 156.632812 705.851562 148.382812 715.574219 149.929688 C 709.855469 139.808594 737.796875 138.347656 718.09375 137.320312 C 730.078125 132.074219 737.53125 147.445312 745.742188 135.519531 C 739.726562 137.136719 740.222656 134.171875 735.691406 132.8125 C 732.441406 136.207031 728.308594 137.996094 726.890625 132.8125 C 736.578125 130.898438 725.300781 126.898438 723.113281 122.921875 C 727.21875 122.625 731.257812 124.300781 728.144531 126.519531 C 739.855469 122.480469 719.511719 122.445312 716.832031 120.207031 C 722.964844 119.132812 719.3125 117.910156 715.578125 119.316406 C 720.003906 114.96875 716.09375 118.300781 714.320312 111.222656 C 722.824219 115.234375 730.988281 106.542969 736.945312 112.109375 C 729.480469 109.609375 737.59375 114.992188 731.917969 115.714844 C 729.539062 115.621094 731.046875 112.742188 728.144531 113.011719 C 732.546875 118.480469 716.09375 113.765625 720.605469 117.523438 C 738.035156 112.972656 718.125 125.761719 736.945312 121.113281 C 734.074219 121.375 732.21875 120.894531 731.914062 119.3125 C 738.859375 120.984375 733.15625 113.597656 738.199219 113.914062 C 744.511719 116.222656 742.929688 121.058594 739.457031 122.917969 C 748.09375 123.304688 744.058594 116.132812 744.484375 114.8125 C 745.492188 116.703125 754.363281 114.195312 749.507812 113.011719 C 765.042969 112.519531 748.414062 114.082031 745.742188 106.722656 C 745.300781 107.992188 739.335938 109.777344 738.195312 107.621094 C 746.53125 107.710938 738.84375 106.550781 743.226562 103.117188 C 738.007812 102.996094 742.96875 102.523438 743.226562 101.308594 C 737.003906 101.003906 744.269531 98.949219 743.226562 96.808594 C 736.566406 96.8125 737.515625 104.671875 734.425781 94.105469 C 726.101562 90.664062 721.109375 95.292969 716.828125 89.601562 C 723.0625 91.222656 730.90625 90.847656 736.8125 87.875 C 731.257812 88.292969 725.800781 88.632812 728.140625 84.199219 C 731.152344 83.851562 727.449219 88.304688 731.914062 86.90625 C 730.214844 83.304688 731.523438 84.523438 735.691406 85.113281 C 710.375 75.53125 740.996094 79.433594 723.113281 73.402344 C 734.394531 75.503906 726.023438 68.476562 735.691406 68.902344 C 731.679688 73.289062 737.703125 72.804688 736.945312 67.996094 C 728.417969 67.515625 731.15625 67.105469 723.113281 68 C 717.398438 62.152344 737.195312 63.339844 735.691406 60.804688 C 727.351562 62.15625 729.199219 58.222656 728.144531 56.300781 C 720.472656 61.113281 720.082031 57.613281 715.578125 54.492188 C 726.027344 53.109375 735.917969 55.351562 739.460938 50.898438 C 734.722656 45.953125 727.941406 51.425781 710.554688 48.203125 C 715.238281 46.765625 717.925781 49.109375 718.09375 46.394531 C 724.109375 51.734375 724.816406 41.449219 729.410156 46.394531 C 725.585938 38.90625 712.613281 43.929688 699.242188 39.199219 C 708.46875 40.082031 743.722656 34.488281 734.445312 45.5 C 742.382812 40.625 742.894531 37.144531 743.238281 47.292969 C 748.367188 40.488281 741.234375 37.210938 734.441406 39.195312 C 737.472656 37.101562 732.484375 36.777344 731.925781 34.6875 C 728.40625 34.3125 719.304688 35.765625 725.636719 32.886719 C 716.351562 31.8125 717.269531 29.597656 711.816406 23.878906 C 712.601562 27.027344 716.917969 28.429688 711.8125 31.085938 C 713.644531 18.285156 705.839844 26.121094 697.988281 24.785156 C 706.882812 23.054688 706.050781 22.335938 695.472656 22.085938 C 695.402344 33.113281 657.027344 23.019531 659.019531 22.988281 C 657.914062 25.882812 663.164062 24.226562 662.785156 26.585938 C 653.375 25.042969 648.691406 29.613281 636.394531 25.6875 C 632.046875 28.207031 634.742188 31.109375 626.339844 29.285156 C 634.078125 37.152344 643.984375 30.464844 652.730469 33.792969 C 631.445312 35.855469 621.476562 40.4375 597.417969 35.578125 C 625.453125 33.574219 597.503906 34.703125 591.136719 30.191406 C 556.710938 34.8125 532.480469 35.996094 489.316406 33.792969 C 486.796875 33.523438 395.410156 35.445312 345.21875 31.472656 C 301.257812 28.484375 361.617188 37.804688 321.3125 32.886719 C 340.179688 36.121094 310.339844 35.035156 304.316406 31.988281 C 309.675781 31.347656 318.351562 31.746094 318.070312 29.285156 C 297.71875 25.265625 305.898438 42.175781 298.382812 36.125 C 291.167969 40.9375 269.265625 33.058594 258.71875 36.328125 C 263.164062 39.121094 124.996094 30.070312 198.378906 30.9375 C 144.199219 26.929688 163.441406 24.289062 200.898438 28.230469 C 167.785156 21.164062 173.199219 24.277344 202.148438 22.828125 C 177.273438 21.691406 144.457031 10.507812 116.664062 21.925781 C 178.253906 10.691406 126.121094 34.355469 116.664062 22.828125 C 90.972656 30.910156 105.238281 30.648438 124.210938 30.933594 C 93.472656 39.570312 118.8125 30.46875 135.523438 35.429688 C 118.898438 40.378906 95.890625 39.277344 81.46875 41.734375 C 90.230469 44.757812 73.730469 44.964844 72.671875 49.828125 C 76.539062 50.507812 75.082031 47.367188 78.957031 48.039062 C 75.925781 50.519531 76.96875 50.082031 80.207031 51.644531 C 79.585938 54.222656 73.070312 57.261719 75.1875 58.835938 C 76.796875 55.769531 90.546875 56.667969 94.042969 57.933594 C 83.570312 55.675781 79.152344 69.203125 86.492188 62.4375 C 110.234375 66.671875 60.949219 65.375 63.867188 70.535156 C 65.390625 69.152344 72.902344 67.476562 75.1875 69.632812 C 56.828125 73.515625 87.410156 76.402344 92.78125 75.9375 C 81.242188 73.640625 99.300781 74.980469 102.835938 76.828125 C 100.859375 79.378906 96.105469 74.808594 94.042969 77.726562 C 99.921875 79.179688 106.132812 79.335938 107.867188 75.9375 C 112.199219 77.710938 130.984375 78.507812 115.410156 80.433594 C 117.589844 83.890625 135.917969 85.917969 154.378906 89.4375 C 126.761719 86.484375 77.03125 84.765625 117.917969 93.039062 C 94.09375 94.269531 94.035156 88.414062 66.386719 93.042969 C 74.582031 96.316406 83.625 92.140625 99.0625 95.742188 C 81.75 92.65625 50.6875 105.957031 67.640625 103.835938 C 62.292969 108.179688 68.808594 105.757812 72.664062 107.441406 C 58.292969 111.796875 71.167969 109.023438 76.441406 112.84375 C 69.980469 117.015625 62.742188 113.410156 53.808594 116.445312 C 55.765625 123.65625 59.792969 116 66.382812 117.351562 C 74.199219 123.285156 84.25 122.101562 91.515625 127.246094 C 75.140625 128.027344 67.332031 123.945312 61.347656 129.945312 C 63.867188 127.792969 61.679688 131.578125 60.089844 131.753906 C 71.675781 131.472656 66.128906 134.589844 58.84375 133.539062 C 58.03125 136.816406 64.820312 134.660156 65.125 137.144531 C 42.433594 135.808594 73.59375 138.496094 76.441406 145.25 C 73.699219 145.816406 72.4375 142.691406 72.664062 146.148438 C 77.382812 147.828125 85.371094 141.730469 80.203125 148.839844 C 84.667969 150.238281 80.96875 145.785156 83.988281 146.148438 C 85.890625 148.984375 94.761719 146.832031 96.554688 149.742188 C 94.785156 149.671875 91.738281 149.949219 94.039062 150.640625 C 106.546875 148.652344 109.070312 155.394531 119.558594 159.09375 C 109.433594 160.5 100.417969 163.753906 79.472656 166.390625 C 91.179688 169.359375 91.125 168.179688 101.664062 171.660156 C 100.535156 173.695312 105.894531 170.097656 104.609375 174.480469 C 96.535156 171.222656 90.265625 178.539062 99.582031 182.589844 C 91.523438 173.152344 108.242188 175.476562 112.15625 172.675781 C 111.546875 175.445312 102.550781 174.894531 108.382812 177.179688 C 96.019531 181.613281 126.445312 170.125 117.183594 177.179688 C 121.902344 178.984375 124.09375 174.492188 125.984375 178.984375 C 127.988281 178.320312 125.691406 174.574219 129.75 175.394531 C 124.136719 185.007812 133.96875 175.949219 134.785156 182.582031 C 133.257812 180.371094 130.765625 183.109375 129.75 181.6875 C 124.246094 182.335938 130.765625 179.886719 127.234375 179.882812 C 116.84375 186.652344 111.679688 177.355469 99.0625 181.238281 C 119.953125 183.609375 102.636719 183.945312 87.015625 185.289062 C 86.296875 183.707031 88.53125 180 85.757812 179.886719 C 84.792969 181.996094 72.828125 184.464844 76.957031 184.390625 C 89.300781 180.960938 81.023438 189.195312 76.957031 190.683594 C 78.847656 193.664062 80.03125 188.8125 83.242188 189.792969 C 83.125 192.097656 78.34375 191.070312 78.214844 193.382812 C 80.617188 193.769531 83.632812 193.71875 83.242188 196.085938 C 79.035156 196.867188 79.070312 197.425781 76.957031 194.296875 C 75.414062 200.507812 82.554688 197.003906 84.5 198.792969 C 87.257812 202.945312 74.472656 200.523438 78.210938 202.398438 C 98.867188 203.144531 99.3125 191.128906 114.671875 188.890625 C 112.378906 195.339844 119.84375 188.199219 122.214844 189.796875 C 117.667969 192.164062 123.320312 192.824219 120.953125 195.1875 C 112.238281 189.382812 111.828125 197.632812 102.101562 196.089844 C 107.820312 206.210938 79.882812 207.671875 99.582031 208.699219 C 87.605469 213.945312 80.148438 198.574219 71.933594 210.5 C 77.945312 208.882812 77.453125 211.847656 81.988281 213.203125 C 85.234375 209.804688 89.367188 208.023438 90.785156 213.203125 C 81.097656 215.121094 92.375 219.121094 94.566406 223.097656 C 90.453125 223.394531 86.414062 221.714844 89.53125 219.496094 C 77.820312 223.539062 98.164062 223.574219 100.847656 225.808594 C 94.714844 226.886719 98.367188 228.101562 102.097656 226.703125 C 97.675781 231.050781 101.582031 227.71875 103.359375 234.796875 C 94.855469 230.785156 86.6875 239.476562 80.730469 233.90625 C 88.195312 236.410156 80.082031 231.027344 85.757812 230.304688 C 88.136719 230.394531 86.632812 233.277344 89.53125 233.007812 C 85.132812 227.539062 101.582031 232.25 97.070312 228.496094 C 79.636719 233.042969 99.558594 220.257812 80.726562 224.90625 C 83.597656 224.640625 85.457031 225.121094 85.757812 226.707031 C 78.816406 225.035156 84.515625 232.417969 79.476562 232.105469 C 73.160156 229.796875 74.742188 224.957031 78.214844 223.105469 C 69.582031 222.71875 73.613281 229.886719 73.191406 231.210938 C 72.179688 229.320312 63.3125 231.828125 68.164062 233.011719 C 52.628906 233.503906 69.261719 231.941406 71.929688 239.300781 C 72.375 238.027344 78.335938 236.242188 79.476562 238.402344 C 71.136719 238.3125 78.828125 239.472656 74.441406 242.90625 C 79.664062 243.023438 74.703125 243.492188 74.441406 244.710938 C 80.667969 245.015625 73.402344 247.070312 74.441406 249.210938 C 81.097656 249.203125 80.160156 241.347656 83.242188 251.910156 C 91.570312 255.355469 96.558594 250.726562 100.84375 256.414062 C 94.605469 254.796875 86.765625 255.171875 80.859375 258.144531 C 86.410156 257.722656 91.871094 257.382812 89.527344 261.824219 C 86.515625 262.167969 90.21875 257.714844 85.753906 259.117188 C 87.457031 262.722656 86.148438 261.496094 81.980469 260.910156 C 107.296875 270.488281 76.675781 266.597656 94.5625 272.617188 C 83.28125 270.519531 91.648438 277.542969 81.980469 277.121094 C 85.988281 272.734375 79.964844 273.21875 80.722656 278.027344 C 89.253906 278.507812 86.511719 278.914062 94.558594 278.023438 C 100.265625 283.867188 80.480469 282.679688 81.980469 285.21875 C 90.316406 283.863281 88.46875 287.800781 89.523438 289.71875 C 97.199219 284.90625 97.585938 288.40625 102.089844 291.527344 C 91.640625 292.910156 81.75 290.667969 78.210938 295.117188 C 82.953125 300.0625 89.730469 294.589844 107.117188 297.816406 C 102.429688 299.25 99.742188 296.90625 99.574219 299.625 C 93.5625 294.289062 92.851562 304.570312 88.261719 299.625 C 92.085938 307.113281 105.054688 302.089844 118.425781 306.820312 C 109.203125 305.9375 73.945312 311.523438 83.222656 300.519531 C 75.285156 305.390625 74.773438 308.867188 74.429688 298.722656 C 69.296875 305.527344 76.433594 308.808594 83.226562 306.824219 C 80.195312 308.917969 85.183594 309.238281 85.742188 311.328125 C 89.261719 311.703125 98.367188 310.253906 92.03125 313.128906 C 101.320312 314.207031 100.398438 316.421875 105.851562 322.140625 C 105.066406 318.992188 100.75 317.585938 105.855469 314.933594 C 106.070312 317.132812 104.613281 321.996094 109.625 324.835938 C 107.863281 320.53125 118.707031 320.589844 119.683594 321.234375 C 119.898438 323.785156 111.933594 320.476562 112.140625 323.03125 C 115.152344 323.578125 117.875 324.320312 122.195312 323.933594 C 117.964844 314.847656 149.6875 323.265625 139.792969 318.535156 C 146.429688 318.367188 157.777344 320.015625 149.851562 322.132812 C 153.988281 322.300781 162.878906 324.253906 154.882812 319.433594 C 164.292969 320.980469 168.976562 316.410156 181.277344 320.332031 C 185.621094 317.8125 182.929688 314.910156 191.328125 316.734375 C 183.589844 308.863281 173.675781 315.554688 164.933594 312.226562 C 186.222656 310.15625 196.1875 305.582031 220.246094 310.4375 C 192.210938 312.445312 220.160156 311.3125 226.527344 315.824219 C 260.953125 311.203125 285.1875 310.015625 328.351562 312.226562 C 330.867188 312.488281 422.25 310.574219 472.449219 314.546875 C 516.402344 317.535156 456.054688 308.214844 496.351562 313.128906 C 477.488281 309.898438 507.328125 310.980469 513.347656 314.03125 C 507.992188 314.671875 499.3125 314.269531 499.597656 316.734375 C 519.957031 320.75 511.765625 303.839844 519.285156 309.894531 C 526.492188 305.078125 548.402344 312.960938 558.949219 309.6875 C 554.507812 306.902344 692.671875 315.945312 619.285156 315.082031 C 673.46875 319.085938 654.226562 321.726562 616.765625 317.785156 C 649.878906 324.855469 644.464844 321.738281 615.515625 323.191406 C 640.390625 324.328125 673.207031 335.507812 700.996094 324.089844 C 639.40625 335.324219 691.542969 311.660156 700.996094 323.191406 C 726.691406 315.105469 712.421875 315.371094 693.449219 315.085938 C 724.183594 306.449219 698.847656 315.550781 682.136719 310.589844 C 698.765625 305.640625 721.773438 306.742188 736.195312 304.285156 C 727.433594 301.261719 743.933594 301.050781 744.992188 296.191406 C 741.128906 295.511719 742.582031 298.652344 738.707031 297.980469 C 741.738281 295.5 740.695312 295.933594 737.457031 294.378906 C 738.078125 291.792969 744.597656 288.761719 742.480469 287.183594 C 740.867188 290.253906 727.117188 289.351562 723.625 288.089844 C 734.089844 290.347656 738.515625 276.820312 731.171875 283.585938 C 707.425781 279.351562 756.71875 280.648438 753.796875 275.488281 C 752.273438 276.871094 744.765625 278.542969 742.480469 276.386719 C 760.832031 272.511719 730.253906 269.617188 724.886719 270.085938 C 736.425781 272.382812 718.363281 271.042969 714.832031 269.195312 C 716.808594 266.640625 721.558594 271.214844 723.625 268.292969 C 717.742188 266.835938 711.53125 266.6875 709.796875 270.085938 C 705.460938 268.308594 686.683594 267.511719 702.257812 265.589844 C 700.070312 262.132812 681.75 260.105469 663.28125 256.582031 C 690.898438 259.535156 740.632812 261.257812 699.742188 252.984375 C 723.570312 251.75 723.628906 257.609375 751.273438 252.980469 C 743.085938 249.710938 734.039062 253.878906 718.597656 250.28125 C 735.914062 253.351562 766.992188 240.089844 750.027344 242.191406 Z M 719.347656 127.417969 C 721.570312 125.757812 723.007812 127.824219 725.632812 128.320312 C 725.855469 129.789062 717.402344 130.140625 719.347656 127.417969 Z M 723.113281 130.128906 C 731.375 132.175781 720.144531 130.179688 721.863281 135.523438 C 714.464844 133.558594 721.976562 134 723.113281 130.128906 Z M 729.40625 99.519531 C 732.277344 106.222656 727.898438 101.152344 724.378906 100.425781 C 724.765625 99.203125 727.519531 99.679688 729.40625 99.519531 Z M 635.128906 32.917969 C 628.550781 28.867188 639.089844 28.371094 641.410156 31.117188 C 639.992188 33.203125 636.539062 29.84375 635.128906 32.917969 Z M 99.070312 66.058594 C 98.765625 67.882812 97.300781 68.152344 92.785156 66.957031 C 101.074219 59.109375 115.0625 75.40625 99.070312 66.058594 Z M 111.640625 68.75 C 114.492188 66.1875 119.003906 70.023438 124.207031 68.75 C 125.316406 69.648438 112.925781 71.722656 111.640625 68.75 Z M 98.324219 218.636719 C 96.101562 220.296875 94.664062 218.226562 92.042969 217.730469 C 91.820312 216.265625 100.269531 215.910156 98.324219 218.636719 Z M 94.566406 215.921875 C 86.304688 213.875 97.535156 215.871094 95.8125 210.53125 C 103.207031 212.496094 95.703125 212.050781 94.566406 215.921875 Z M 88.273438 246.53125 C 85.394531 239.828125 89.78125 244.902344 93.296875 245.628906 C 92.914062 246.851562 90.15625 246.375 88.273438 246.53125 Z M 182.550781 313.132812 C 189.125 317.1875 178.589844 317.683594 176.269531 314.9375 C 177.683594 312.847656 181.132812 316.210938 182.550781 313.132812 Z M 718.609375 279.996094 C 718.910156 278.171875 720.375 277.898438 724.898438 279.09375 C 716.601562 286.945312 702.617188 270.644531 718.609375 279.996094 Z M 706.035156 277.300781 C 703.175781 279.863281 698.667969 276.03125 693.46875 277.300781 C 692.363281 276.402344 704.753906 274.332031 706.035156 277.300781 Z M 624.339844 277.300781 C 621.925781 279.222656 617.769531 279.261719 614.273438 278.191406 C 616.648438 275.183594 619.351562 277.628906 624.339844 277.300781 Z M 547.652344 272.789062 C 551.785156 271.835938 564.144531 273.324219 567.765625 273.691406 C 578.953125 274.667969 565.011719 274.441406 558.964844 273.691406 C 552.230469 275.121094 552.304688 275.3125 547.652344 272.789062 Z M 518.4375 278.851562 C 527.425781 277.546875 531.671875 278.035156 542.621094 279.992188 C 535.113281 280.878906 524.023438 282.234375 518.4375 278.851562 Z M 538.847656 291.6875 C 537.632812 293.527344 534.019531 293.632812 530.058594 293.488281 C 530.226562 290.917969 535.296875 291.855469 538.847656 291.6875 Z M 516.21875 300.589844 C 517.371094 300.386719 517.089844 301.914062 517.464844 302.722656 C 515.804688 302.902344 516.015625 301.726562 516.21875 300.589844 Z M 516.53125 299.5 C 516.554688 299.457031 516.578125 299.40625 516.605469 299.382812 C 516.640625 299.457031 516.625 299.503906 516.53125 299.5 Z M 514.613281 300.210938 C 514.726562 303.832031 509.371094 299.34375 511.933594 307.09375 C 508.429688 306.5625 510.441406 295.851562 514.613281 300.210938 Z M 514.003906 304.75 C 513.757812 305.59375 514.46875 307.441406 513.039062 307.101562 C 513.195312 305.28125 511.917969 303.566406 514.003906 304.75 Z M 512.371094 310.703125 C 511.234375 310.730469 508.628906 310.636719 511.226562 309.558594 C 510.722656 306.792969 512.910156 308.878906 512.371094 310.703125 Z M 132.265625 190.714844 C 132.660156 192.875 131.570312 194.671875 131.007812 191.628906 C 124.753906 195.710938 122.300781 190.890625 132.265625 190.714844 Z M 129.679688 159.128906 C 128.417969 158.910156 127.289062 158.585938 126.71875 157.871094 C 128.027344 158.347656 133.3125 158.929688 129.679688 159.128906 Z M 193.339844 68.75 C 195.75 66.828125 199.90625 66.789062 203.40625 67.863281 C 201.027344 70.871094 198.324219 68.425781 193.339844 68.75 Z M 270.019531 73.261719 C 265.886719 74.214844 253.53125 72.726562 249.910156 72.363281 C 238.71875 71.386719 252.660156 71.609375 258.710938 72.363281 C 265.449219 70.925781 265.371094 70.734375 270.019531 73.261719 Z M 299.242188 67.199219 C 290.253906 68.5 286.007812 68.019531 275.058594 66.058594 C 282.5625 65.175781 293.652344 63.8125 299.242188 67.199219 Z M 278.820312 54.359375 C 280.039062 52.523438 283.652344 52.414062 287.613281 52.558594 C 287.449219 55.136719 282.382812 54.195312 278.820312 54.359375 Z M 301.453125 45.457031 C 300.289062 45.660156 300.589844 44.132812 300.210938 43.324219 C 301.871094 43.148438 301.65625 44.320312 301.453125 45.457031 Z M 301.144531 46.554688 C 301.121094 46.59375 301.097656 46.644531 301.074219 46.675781 C 301.035156 46.59375 301.054688 46.550781 301.144531 46.554688 Z M 303.066406 45.84375 C 302.953125 42.214844 308.308594 46.714844 305.746094 38.960938 C 309.242188 39.488281 307.238281 50.199219 303.066406 45.84375 Z M 303.667969 41.300781 C 303.910156 40.453125 303.203125 38.613281 304.628906 38.953125 C 304.472656 40.773438 305.757812 42.480469 303.667969 41.300781 Z M 305.304688 35.347656 C 306.441406 35.320312 309.046875 35.417969 306.449219 36.492188 C 306.953125 39.261719 304.765625 37.167969 305.304688 35.347656 Z M 685.40625 155.335938 C 685.007812 153.175781 686.097656 151.378906 686.660156 154.425781 C 692.917969 150.339844 695.375 155.160156 685.40625 155.335938 Z M 531.308594 273.695312 C 532.492188 272.765625 537.777344 272.863281 537.589844 275.496094 C 533.992188 274.566406 530.703125 279.085938 531.308594 273.695312 Z M 510.394531 294.035156 C 510.480469 293.234375 510.246094 292.355469 511.332031 292.484375 C 511.292969 293.335938 511.492188 294.25 510.394531 294.035156 Z M 510.183594 299.273438 C 510.515625 299.515625 510.523438 299.867188 510.207031 300.335938 C 510.203125 299.980469 510.183594 299.625 510.183594 299.273438 Z M 286.363281 72.359375 C 285.179688 73.285156 279.894531 73.183594 280.078125 70.558594 C 283.683594 71.484375 286.972656 66.960938 286.363281 72.359375 Z M 307.28125 52.019531 C 307.195312 52.820312 307.429688 53.703125 306.347656 53.566406 C 306.378906 52.710938 306.183594 51.800781 307.28125 52.019531 Z M 307.492188 46.773438 C 307.160156 46.535156 307.152344 46.183594 307.46875 45.714844 C 307.476562 46.070312 307.488281 46.421875 307.492188 46.773438 Z M 514.964844 272.789062 C 514.992188 272.699219 515.058594 272.636719 515.109375 272.570312 C 515.109375 272.695312 515.136719 272.847656 514.964844 272.789062 Z M 302.714844 73.261719 C 302.683594 73.351562 302.617188 73.410156 302.570312 73.484375 C 302.566406 73.359375 302.539062 73.203125 302.714844 73.261719 Z M 516.667969 271.960938 C 517.023438 271.925781 517.40625 271.917969 517.8125 271.917969 C 517.410156 272.914062 516.320312 273.175781 516.667969 271.960938 Z M 301.011719 74.089844 C 300.652344 74.125 300.269531 74.136719 299.867188 74.136719 C 300.261719 73.136719 301.359375 72.878906 301.011719 74.089844 Z M 305.582031 65.824219 C 305.664062 67.800781 304.832031 67.195312 302.859375 67.082031 C 302.601562 65.609375 304.402344 66.050781 305.582031 65.824219 Z M 300.199219 67.863281 C 300.128906 67.855469 300.039062 67.867188 300.066406 67.765625 C 300.105469 67.804688 300.15625 67.828125 300.199219 67.863281 Z M 297.390625 70.546875 C 298.007812 72.933594 295.152344 70.667969 292.648438 71.464844 C 289.828125 70.433594 294.097656 70.488281 297.390625 70.546875 Z M 512.09375 280.226562 C 512.011719 278.261719 512.851562 278.847656 514.820312 278.972656 C 515.070312 280.441406 513.269531 280.003906 512.09375 280.226562 Z M 517.476562 278.1875 C 517.542969 278.191406 517.636719 278.183594 517.605469 278.277344 C 517.570312 278.246094 517.519531 278.222656 517.476562 278.1875 Z M 520.285156 275.503906 C 519.664062 273.117188 522.515625 275.382812 525.023438 274.585938 C 527.851562 275.613281 523.578125 275.558594 520.285156 275.503906 Z M 487.574219 45.222656 C 484.601562 45.789062 485.945312 44.664062 488.179688 45.027344 C 487.972656 45.09375 487.769531 45.160156 487.574219 45.222656 Z M 498.351562 43.832031 C 499.882812 43.511719 501.535156 43.121094 503.367188 42.636719 C 503.617188 45.964844 500.789062 43.546875 498.351562 43.832031 Z M 305.355469 52.125 C 305.589844 53.300781 305.503906 53.957031 304.128906 53.875 C 304.257812 52.914062 304.089844 51.902344 305.355469 52.125 Z M 300.464844 53.945312 C 300.578125 54.476562 292.921875 55.359375 290.136719 54.363281 C 292.425781 54.359375 299.574219 50.738281 300.464844 53.945312 Z M 276.300781 71.464844 C 279.210938 71.183594 277.710938 74.058594 280.082031 74.167969 C 277.667969 76.011719 268.824219 76.089844 276.300781 71.464844 Z M 330.09375 300.828125 C 333.0625 300.257812 331.730469 301.382812 329.5 301.023438 C 329.703125 300.957031 329.90625 300.886719 330.09375 300.828125 Z M 319.324219 302.21875 C 317.796875 302.539062 316.140625 302.929688 314.3125 303.414062 C 314.050781 300.082031 316.882812 302.507812 319.324219 302.21875 Z M 512.324219 293.925781 C 512.085938 292.75 512.175781 292.097656 513.546875 292.171875 C 513.414062 293.132812 513.585938 294.148438 512.324219 293.925781 Z M 517.207031 292.105469 C 517.089844 291.574219 524.753906 290.691406 527.535156 291.6875 C 525.25 291.691406 518.105469 295.3125 517.207031 292.105469 Z M 541.375 274.585938 C 538.46875 274.867188 539.96875 271.992188 537.59375 271.886719 C 540.003906 270.042969 548.851562 269.957031 541.375 274.585938 Z M 687.992188 186.921875 C 689.253906 187.144531 690.386719 187.460938 690.957031 188.183594 C 689.648438 187.703125 684.367188 187.121094 687.992188 186.921875 Z M 700.78125 162.457031 C 699.648438 162.0625 698.503906 161.714844 697.347656 161.402344 C 699.078125 161.0625 700.511719 161.289062 700.78125 162.457031 Z M 701.742188 114.820312 C 705.613281 115.449219 704.152344 115.449219 708.035156 114.820312 C 707.101562 118.714844 701.242188 113.507812 701.742188 118.421875 C 696.800781 117.082031 701.980469 117.371094 701.742188 114.820312 Z M 708.035156 121.121094 C 711.960938 123.195312 702.425781 124.507812 701.746094 122.019531 C 702.542969 118.746094 707.617188 124.113281 708.035156 121.121094 Z M 716.832031 137.324219 C 716.3125 140.464844 706.28125 136.125 710.550781 137.324219 C 715.9375 134.65625 693.703125 136.023438 706.777344 134.625 C 710.746094 133.207031 713.949219 134.164062 716.832031 137.324219 Z M 710.550781 65.316406 C 714.722656 64.699219 712.5625 67.179688 711.800781 68.015625 C 717.066406 66.714844 719.648438 63.097656 720.601562 68.015625 C 712.640625 71.28125 712.582031 69.097656 703 68.015625 C 698.519531 65.609375 712.945312 69.21875 710.550781 65.316406 Z M 701.742188 41.023438 C 702.203125 43.753906 697.652344 42.890625 695.460938 43.714844 C 694.886719 40.910156 698.144531 40.839844 701.742188 41.023438 Z M 704.265625 32.917969 C 704.628906 34.492188 699.375 36.082031 700.488281 32.917969 C 690.367188 39.113281 696.539062 28.933594 704.265625 32.917969 Z M 692.941406 32.917969 C 691.011719 34.328125 686.714844 34.183594 692.941406 34.722656 C 679.976562 36.515625 672.359375 32.445312 692.941406 32.917969 Z M 653.980469 37.425781 C 653.253906 40.382812 638.332031 38.492188 637.636719 37.425781 C 645.566406 37.175781 647.664062 38.203125 653.980469 37.425781 Z M 527.019531 41.910156 C 510.953125 46.484375 507.785156 41.128906 495.101562 41.019531 C 503.929688 39.023438 517.316406 42.351562 527.019531 41.910156 Z M 459.621094 40.136719 C 470.804688 40.375 483.949219 41.582031 493.378906 42.65625 C 478.144531 43.691406 463.394531 44.027344 444.859375 39.964844 C 449.90625 39.96875 454.835938 40.007812 459.621094 40.136719 Z M 408.660156 39.21875 C 433.808594 39.3125 402.417969 40.867188 397.910156 41.023438 C 397.476562 37.40625 406.960938 40.972656 408.660156 39.21875 Z M 370.226562 42.8125 C 381.785156 38.335938 401.90625 42.21875 416.339844 43.714844 C 424.335938 35.570312 457.222656 44.070312 438.582031 41.921875 C 409.371094 48.761719 395.546875 42.476562 364.828125 43.917969 C 349.019531 43.457031 364.585938 41.832031 370.226562 42.8125 Z M 364.792969 34.714844 C 360.207031 36.003906 351.316406 33.941406 344.285156 36.515625 C 340.9375 31.703125 356.59375 34.464844 364.792969 34.714844 Z M 306.089844 33.820312 C 311.003906 34.753906 307.984375 34.640625 304.582031 34.621094 C 305.226562 43.117188 301.226562 32.160156 306.089844 33.820312 Z M 301.878906 39.359375 C 302.769531 43.324219 296.160156 38.75 301.445312 40.855469 C 301.21875 40.089844 301.421875 39.632812 301.878906 39.359375 Z M 298.441406 39.839844 C 289.242188 46.042969 296.621094 38.941406 299.023438 45.332031 C 287.363281 45.992188 297.078125 45.320312 299.492188 48.292969 C 283.59375 51.355469 290.09375 41.273438 275.058594 42.65625 C 275.980469 44.09375 281.214844 42.449219 280.082031 45.359375 C 253.523438 40.53125 291.085938 38.019531 298.441406 39.839844 Z M 248.660156 43.554688 C 245.078125 36.914062 260.808594 42.84375 270.019531 43.554688 C 267.28125 47.34375 231.082031 46.484375 242.367188 45.359375 C 225.335938 40.53125 237.691406 41.746094 248.660156 43.554688 Z M 203.40625 39.957031 C 194.863281 39.570312 189.933594 38.691406 179.519531 38.152344 C 180.535156 36.777344 200.035156 37.085938 203.40625 39.957031 Z M 176.996094 35.453125 C 171.199219 37.625 154.179688 34.054688 168.207031 34.558594 C 171.253906 34.664062 174.265625 36.226562 176.996094 35.453125 Z M 169.464844 30.058594 C 167.660156 33.882812 163.375 28.367188 156.890625 30.058594 C 159.398438 25.726562 165.238281 30.140625 169.464844 30.058594 Z M 207.171875 40.859375 C 206.835938 42.707031 210.027344 41.613281 210.945312 44.457031 C 209.609375 42.003906 203.648438 44.871094 207.171875 44.457031 C 141.128906 45.132812 131.171875 34.304688 207.171875 40.859375 Z M 140.546875 66.058594 C 146.859375 63.035156 153.640625 65.867188 163.167969 65.160156 C 166.933594 67.992188 146.050781 67.464844 140.546875 66.058594 Z M 116.898438 183.59375 C 118.03125 183.988281 119.171875 184.339844 120.328125 184.648438 C 118.597656 184.988281 117.164062 184.757812 116.898438 183.59375 Z M 115.933594 231.226562 C 112.058594 230.597656 113.515625 230.597656 109.640625 231.226562 C 110.574219 227.332031 116.433594 232.542969 115.933594 227.625 C 120.878906 228.964844 115.695312 228.683594 115.933594 231.226562 Z M 109.640625 224.933594 C 105.710938 222.855469 115.25 221.546875 115.933594 224.03125 C 115.125 227.300781 110.050781 221.941406 109.640625 224.933594 Z M 100.847656 208.722656 C 101.367188 205.582031 111.394531 209.921875 107.128906 208.722656 C 101.738281 211.390625 123.972656 210.03125 110.902344 211.421875 C 106.921875 212.84375 103.722656 211.882812 100.847656 208.722656 Z M 107.125 280.734375 C 102.949219 281.351562 105.109375 278.871094 105.871094 278.039062 C 100.605469 279.34375 98.027344 282.957031 97.074219 278.039062 C 105.03125 274.769531 105.085938 276.953125 114.671875 278.039062 C 119.15625 280.441406 104.730469 276.835938 107.125 280.734375 Z M 115.933594 305.03125 C 115.46875 302.304688 120.023438 303.167969 122.214844 302.34375 C 122.785156 305.148438 119.53125 305.210938 115.933594 305.03125 Z M 113.414062 313.132812 C 113.046875 311.566406 118.300781 309.972656 117.1875 313.132812 C 127.3125 306.941406 121.128906 317.121094 113.414062 313.132812 Z M 124.730469 313.132812 C 126.664062 311.730469 130.960938 311.867188 124.730469 311.332031 C 137.695312 309.535156 145.316406 313.609375 124.730469 313.132812 Z M 163.699219 308.632812 C 164.421875 305.671875 179.34375 307.5625 180.039062 308.632812 C 172.109375 308.875 170.011719 307.847656 163.699219 308.632812 Z M 290.65625 304.144531 C 306.71875 299.566406 309.886719 304.921875 322.574219 305.023438 C 313.746094 307.03125 300.359375 303.695312 290.65625 304.144531 Z M 358.054688 305.914062 C 346.875 305.675781 333.726562 304.472656 324.296875 303.394531 C 339.535156 302.363281 354.289062 302.03125 372.824219 306.085938 C 367.773438 306.082031 362.839844 306.039062 358.054688 305.914062 Z M 409.011719 306.832031 C 383.863281 306.738281 415.253906 305.183594 419.761719 305.027344 C 420.199219 308.648438 410.714844 305.078125 409.011719 306.832031 Z M 447.453125 303.238281 C 435.886719 307.714844 415.773438 303.835938 401.339844 302.339844 C 393.339844 310.484375 360.460938 301.980469 379.09375 304.132812 C 408.304688 297.289062 422.132812 303.574219 452.847656 302.136719 C 468.660156 302.59375 453.085938 304.21875 447.453125 303.238281 Z M 452.882812 311.335938 C 457.464844 310.046875 466.363281 312.113281 473.390625 309.535156 C 476.738281 314.34375 461.078125 311.589844 452.882812 311.335938 Z M 511.585938 312.234375 C 506.671875 311.296875 509.695312 311.414062 513.09375 311.433594 C 512.441406 302.316406 516.457031 314.261719 511.585938 312.234375 Z M 515.800781 306.691406 C 514.910156 302.730469 521.515625 307.304688 516.230469 305.195312 C 516.457031 305.964844 516.25 306.414062 515.800781 306.691406 Z M 519.234375 306.207031 C 531.296875 300.910156 510.117188 304.230469 525.019531 299.792969 C 510.269531 298.414062 526.539062 295.46875 532.558594 298.890625 C 518.21875 297.730469 542.382812 305.941406 542.617188 303.394531 C 541.691406 301.957031 536.460938 303.601562 537.589844 300.695312 C 564.152344 305.519531 526.589844 308.03125 519.234375 306.207031 Z M 569.011719 302.496094 C 572.59375 309.136719 556.871094 303.203125 547.652344 302.496094 C 550.394531 298.707031 586.59375 299.5625 575.304688 300.691406 C 592.332031 305.519531 579.984375 304.308594 569.011719 302.496094 Z M 614.269531 306.097656 C 622.8125 306.484375 627.738281 307.359375 638.152344 307.898438 C 637.140625 309.277344 617.632812 308.96875 614.269531 306.097656 Z M 640.679688 310.601562 C 646.472656 308.429688 663.496094 312 649.472656 311.492188 C 646.421875 311.386719 643.40625 309.828125 640.679688 310.601562 Z M 648.210938 315.996094 C 650.023438 312.167969 654.304688 317.691406 660.785156 315.996094 C 658.28125 320.328125 652.441406 315.914062 648.210938 315.996094 Z M 610.5 305.191406 C 610.835938 303.347656 607.644531 304.4375 606.726562 301.59375 C 608.0625 304.046875 614.023438 301.183594 610.5 301.59375 C 676.546875 300.914062 686.503906 311.75 610.5 305.191406 Z M 677.125 279.996094 C 670.8125 283.015625 664.03125 280.1875 654.5 280.890625 C 650.738281 278.058594 671.628906 278.585938 677.125 279.996094 Z M 677.125 279.996094 " fill-opacity="1" fill-rule="nonzero"/><g fill="#000000" fill-opacity="1"><g transform="translate(150.305351, 180.941205)"><g><path d="M 30.515625 4.765625 C 32.972656 4.765625 35.691406 2.789062 38.671875 -1.15625 C 41.648438 -5.113281 44.398438 -9.988281 46.921875 -15.78125 C 49.453125 -21.582031 51.800781 -27.5625 53.96875 -33.71875 C 56.144531 -39.875 57.847656 -45.363281 59.078125 -50.1875 C 60.304688 -55.007812 60.921875 -57.875 60.921875 -58.78125 C 60.921875 -59.695312 60.859375 -60.15625 60.734375 -60.15625 C 60.148438 -60.15625 56.457031 -56.570312 49.65625 -49.40625 C 42.851562 -42.25 37.441406 -36.660156 33.421875 -32.640625 C 29.410156 -28.628906 24.71875 -24.160156 19.34375 -19.234375 C 8.195312 -9.128906 -4.5 -0.160156 -18.75 7.671875 C -19.144531 7.867188 -19.535156 7.96875 -19.921875 7.96875 C -20.304688 7.96875 -20.5 7.835938 -20.5 7.578125 C -20.5 7.316406 -20.273438 7.09375 -19.828125 6.90625 C -10.234375 1.976562 -0.742188 -4.335938 8.640625 -12.046875 C 18.296875 -20.015625 26.101562 -27.023438 32.0625 -33.078125 C 38.019531 -39.140625 42.550781 -43.820312 45.65625 -47.125 C 48.769531 -50.425781 52.484375 -54.375 56.796875 -58.96875 C 61.109375 -63.570312 64.394531 -67.078125 66.65625 -69.484375 C 67.050781 -69.867188 67.375 -70.0625 67.625 -70.0625 C 67.882812 -70.0625 68.015625 -69.867188 68.015625 -69.484375 C 68.015625 -67.472656 67.398438 -63.710938 66.171875 -58.203125 C 64.941406 -52.703125 63.128906 -46.304688 60.734375 -39.015625 C 58.335938 -31.722656 55.648438 -24.707031 52.671875 -17.96875 C 49.691406 -11.238281 46.160156 -5.554688 42.078125 -0.921875 C 37.992188 3.710938 33.910156 6.03125 29.828125 6.03125 C 27.304688 6.03125 25.316406 4.71875 23.859375 2.09375 C 22.398438 -0.53125 21.671875 -3.960938 21.671875 -8.203125 C 21.671875 -12.453125 22.707031 -16.359375 24.78125 -19.921875 C 25.300781 -20.828125 25.753906 -21.28125 26.140625 -21.28125 C 26.460938 -21.28125 26.6875 -21.019531 26.8125 -20.5 C 26.164062 -19.394531 25.582031 -17.5 25.0625 -14.8125 C 24.550781 -12.125 24.296875 -9.421875 24.296875 -6.703125 C 24.296875 0.941406 26.367188 4.765625 30.515625 4.765625 Z M 30.515625 4.765625 "/></g></g></g><g fill="#000000" fill-opacity="1"><g transform="translate(205.01286, 180.941205)"><g><path d="M 17.59375 -10.390625 C 7.414062 -3.460938 0.9375 0 -1.84375 0 C -2.5625 0 -2.921875 -0.226562 -2.921875 -0.6875 C -2.921875 -2.5 -0.585938 -6.609375 4.078125 -13.015625 C 8.742188 -19.429688 14.125 -26.234375 20.21875 -33.421875 C 14 -33.554688 10.175781 -33.625 8.75 -33.625 C 7.320312 -33.625 6.609375 -33.976562 6.609375 -34.6875 C 6.609375 -34.945312 6.898438 -35.078125 7.484375 -35.078125 L 21.375 -34.78125 C 29.28125 -44.050781 33.65625 -48.6875 34.5 -48.6875 C 36.25 -48.6875 37.125 -48.410156 37.125 -47.859375 C 37.125 -47.304688 33.523438 -42.914062 26.328125 -34.6875 L 42.65625 -34.40625 C 43.5 -34.40625 43.921875 -34.289062 43.921875 -34.0625 C 43.921875 -33.832031 43.789062 -33.6875 43.53125 -33.625 C 43.144531 -33.425781 39.9375 -33.328125 33.90625 -33.328125 L 25.171875 -33.328125 C 20.953125 -28.535156 17.867188 -25.050781 15.921875 -22.875 C 13.984375 -20.707031 11.460938 -17.8125 8.359375 -14.1875 C 2.585938 -7.445312 -0.296875 -3.429688 -0.296875 -2.140625 C -0.296875 -1.878906 -0.0507812 -1.75 0.4375 -1.75 C 0.925781 -1.75 2.5625 -2.507812 5.34375 -4.03125 C 8.125 -5.550781 10.226562 -6.832031 11.65625 -7.875 L 17.484375 -11.46875 Z M 17.59375 -10.390625 "/></g></g></g><g fill="#000000" fill-opacity="1"><g transform="translate(219.102713, 180.941205)"><g><path d="M 31.96875 -11.5625 L 32.0625 -10.296875 C 21.632812 -3.367188 15.285156 0.09375 13.015625 0.09375 C 12.628906 0.09375 12.4375 -0.128906 12.4375 -0.578125 C 12.4375 -1.941406 12.957031 -3.882812 14 -6.40625 L 14.484375 -7.78125 C 14.484375 -7.90625 14.367188 -7.96875 14.140625 -7.96875 C 13.910156 -7.96875 12.015625 -6.671875 8.453125 -4.078125 C 4.953125 -1.484375 2.664062 -0.1875 1.59375 -0.1875 C 0.53125 -0.1875 0 -1.160156 0 -3.109375 C 0 -8.484375 3.054688 -13.726562 9.171875 -18.84375 C 15.296875 -23.96875 22.671875 -26.53125 31.296875 -26.53125 C 32.066406 -26.53125 32.453125 -26.203125 32.453125 -25.546875 C 32.453125 -24.898438 29.40625 -21.128906 23.3125 -14.234375 C 17.226562 -7.335938 14.1875 -3.175781 14.1875 -1.75 C 14.1875 -1.488281 14.378906 -1.359375 14.765625 -1.359375 C 15.160156 -1.359375 16.8125 -2.195312 19.71875 -3.875 C 22.632812 -5.5625 25.390625 -7.25 27.984375 -8.9375 Z M 16.515625 -11.46875 C 17.617188 -12.3125 19.753906 -14.546875 22.921875 -18.171875 C 26.097656 -21.796875 27.6875 -23.898438 27.6875 -24.484375 C 27.6875 -24.742188 27.429688 -24.875 26.921875 -24.875 C 23.941406 -24.875 20.472656 -23.492188 16.515625 -20.734375 C 12.566406 -17.984375 9.210938 -14.859375 6.453125 -11.359375 C 3.703125 -7.867188 2.328125 -5.054688 2.328125 -2.921875 C 2.328125 -2.523438 2.519531 -2.328125 2.90625 -2.328125 C 3.300781 -2.328125 3.9375 -2.570312 4.8125 -3.0625 C 5.6875 -3.550781 6.753906 -4.226562 8.015625 -5.09375 C 9.273438 -5.96875 10.359375 -6.734375 11.265625 -7.390625 C 14.378906 -9.722656 16.128906 -11.082031 16.515625 -11.46875 Z M 16.515625 -11.46875 "/></g></g></g><g fill="#000000" fill-opacity="1"><g transform="translate(247.768279, 180.941205)"><g><path d="M 32.84375 -14.484375 L 33.625 -13.609375 C 30.644531 -11.796875 28.210938 -10.269531 26.328125 -9.03125 C 24.453125 -7.800781 23.03125 -7.1875 22.0625 -7.1875 C 20.632812 -7.1875 19.921875 -7.800781 19.921875 -9.03125 C 19.921875 -9.9375 20.421875 -11.734375 21.421875 -14.421875 C 22.429688 -17.117188 23.128906 -19.015625 23.515625 -20.109375 L 23.21875 -20.40625 C 22.957031 -20.40625 22.664062 -20.273438 22.34375 -20.015625 C 15.800781 -14.765625 11.570312 -11.234375 9.65625 -9.421875 C 7.75 -7.609375 5.90625 -5.664062 4.125 -3.59375 C 2.34375 -1.519531 1.367188 -0.382812 1.203125 -0.1875 C 1.046875 0 0.9375 0.125 0.875 0.1875 C 0.675781 0.382812 0.015625 0.484375 -1.109375 0.484375 C -2.242188 0.484375 -2.8125 0.382812 -2.8125 0.1875 C -2.6875 0 -1.878906 -0.90625 -0.390625 -2.53125 C 3.234375 -6.476562 6.503906 -10.265625 9.421875 -13.890625 L 6.609375 -12.25 C 3.628906 -10.425781 1.457031 -9.0625 0.09375 -8.15625 L -0.296875 -9.234375 L 5.828125 -13.125 C 8.035156 -14.539062 9.929688 -16.023438 11.515625 -17.578125 C 13.097656 -19.140625 14.179688 -20.40625 14.765625 -21.375 C 15.347656 -22.34375 15.863281 -23.148438 16.3125 -23.796875 C 16.769531 -24.453125 17.191406 -24.78125 17.578125 -24.78125 C 17.972656 -24.78125 18.59375 -24.550781 19.4375 -24.09375 C 19.4375 -23.445312 18.914062 -22.3125 17.875 -20.6875 C 16.84375 -19.070312 15.804688 -17.617188 14.765625 -16.328125 L 13.21875 -14.484375 C 13.21875 -14.347656 13.25 -14.28125 13.3125 -14.28125 C 13.507812 -14.28125 13.734375 -14.394531 13.984375 -14.625 C 14.242188 -14.851562 15.328125 -15.757812 17.234375 -17.34375 C 19.148438 -18.925781 20.820312 -20.285156 22.25 -21.421875 C 23.675781 -22.554688 25.3125 -23.640625 27.15625 -24.671875 C 29 -25.710938 30.34375 -26.234375 31.1875 -26.234375 C 32.03125 -26.234375 32.453125 -26.039062 32.453125 -25.65625 C 32.453125 -25.132812 30.863281 -24.03125 27.6875 -22.34375 C 26.976562 -21.957031 25.894531 -20.09375 24.4375 -16.75 C 22.976562 -13.414062 22.25 -10.972656 22.25 -9.421875 C 22.25 -9.097656 22.554688 -8.9375 23.171875 -8.9375 C 23.785156 -8.9375 25 -9.519531 26.8125 -10.6875 Z M 32.84375 -14.484375 "/></g></g></g><g fill="#000000" fill-opacity="1"><g transform="translate(272.546985, 180.941205)"><g><path d="M 17.59375 -10.390625 C 7.414062 -3.460938 0.9375 0 -1.84375 0 C -2.5625 0 -2.921875 -0.226562 -2.921875 -0.6875 C -2.921875 -2.5 -0.585938 -6.609375 4.078125 -13.015625 C 8.742188 -19.429688 14.125 -26.234375 20.21875 -33.421875 C 14 -33.554688 10.175781 -33.625 8.75 -33.625 C 7.320312 -33.625 6.609375 -33.976562 6.609375 -34.6875 C 6.609375 -34.945312 6.898438 -35.078125 7.484375 -35.078125 L 21.375 -34.78125 C 29.28125 -44.050781 33.65625 -48.6875 34.5 -48.6875 C 36.25 -48.6875 37.125 -48.410156 37.125 -47.859375 C 37.125 -47.304688 33.523438 -42.914062 26.328125 -34.6875 L 42.65625 -34.40625 C 43.5 -34.40625 43.921875 -34.289062 43.921875 -34.0625 C 43.921875 -33.832031 43.789062 -33.6875 43.53125 -33.625 C 43.144531 -33.425781 39.9375 -33.328125 33.90625 -33.328125 L 25.171875 -33.328125 C 20.953125 -28.535156 17.867188 -25.050781 15.921875 -22.875 C 13.984375 -20.707031 11.460938 -17.8125 8.359375 -14.1875 C 2.585938 -7.445312 -0.296875 -3.429688 -0.296875 -2.140625 C -0.296875 -1.878906 -0.0507812 -1.75 0.4375 -1.75 C 0.925781 -1.75 2.5625 -2.507812 5.34375 -4.03125 C 8.125 -5.550781 10.226562 -6.832031 11.65625 -7.875 L 17.484375 -11.46875 Z M 17.59375 -10.390625 "/></g></g></g><g fill="#000000" fill-opacity="1"><g transform="translate(286.636837, 180.941205)"><g/></g></g><g fill="#000000" fill-opacity="1"><g transform="translate(308.014547, 180.941205)"><g><path d="M 5.921875 4.46875 C 1.585938 4.46875 -0.578125 2.203125 -0.578125 -2.328125 C -0.578125 -6.867188 1.832031 -12.34375 6.65625 -18.75 C 11.476562 -25.164062 17.488281 -30.15625 24.6875 -33.71875 C 22.351562 -33.132812 20.375 -32.84375 18.75 -32.84375 C 14.15625 -32.84375 11.859375 -34.625 11.859375 -38.1875 C 11.859375 -41.039062 13.363281 -44.539062 16.375 -48.6875 C 19.382812 -52.832031 23.222656 -56.863281 27.890625 -60.78125 C 32.554688 -64.695312 38.109375 -68.03125 44.546875 -70.78125 C 50.992188 -73.539062 57.265625 -74.921875 63.359375 -74.921875 C 66.203125 -74.921875 67.625 -74.109375 67.625 -72.484375 C 67.625 -69.703125 64.367188 -65.785156 57.859375 -60.734375 C 51.347656 -55.679688 46.441406 -53.15625 43.140625 -53.15625 C 42.234375 -53.15625 41.78125 -53.65625 41.78125 -54.65625 C 41.78125 -55.664062 42.457031 -56.734375 43.8125 -57.859375 C 45.175781 -58.992188 46.035156 -59.5625 46.390625 -59.5625 C 46.753906 -59.5625 46.9375 -59.414062 46.9375 -59.125 C 46.9375 -58.832031 46.628906 -58.492188 46.015625 -58.109375 C 45.398438 -57.722656 45.09375 -57.382812 45.09375 -57.09375 C 45.09375 -56.800781 45.21875 -56.65625 45.46875 -56.65625 C 47.289062 -56.65625 51.144531 -58.953125 57.03125 -63.546875 C 62.925781 -68.148438 65.875 -71.328125 65.875 -73.078125 C 65.875 -73.722656 65.390625 -74.046875 64.421875 -74.046875 C 59.046875 -74.046875 53.296875 -72.539062 47.171875 -69.53125 C 41.054688 -66.519531 35.695312 -62.988281 31.09375 -58.9375 C 26.5 -54.882812 22.675781 -50.785156 19.625 -46.640625 C 16.582031 -42.492188 15.0625 -39.253906 15.0625 -36.921875 C 15.0625 -34.910156 16.226562 -33.90625 18.5625 -33.90625 C 23.875 -33.90625 29.800781 -36.078125 36.34375 -40.421875 C 37.3125 -41.003906 38.296875 -41.632812 39.296875 -42.3125 C 40.304688 -43 40.925781 -43.421875 41.15625 -43.578125 C 41.382812 -43.742188 41.59375 -43.828125 41.78125 -43.828125 C 41.976562 -43.828125 42.078125 -43.566406 42.078125 -43.046875 L 42.078125 -42.75 C 42.078125 -42.164062 39.582031 -40.421875 34.59375 -37.515625 L 32.0625 -35.953125 C 25.320312 -31.929688 18.632812 -26.019531 12 -18.21875 C 5.363281 -10.414062 2.046875 -4.535156 2.046875 -0.578125 C 2.046875 1.679688 3.375 2.8125 6.03125 2.8125 C 10.175781 2.8125 18.953125 -1.6875 32.359375 -10.6875 L 38.875 -14.765625 C 39.320312 -15.023438 39.804688 -15.15625 40.328125 -15.15625 C 40.847656 -15.15625 41.109375 -15.085938 41.109375 -14.953125 C 41.109375 -14.828125 41.007812 -14.703125 40.8125 -14.578125 L 33.8125 -10.296875 C 33.226562 -9.910156 31.414062 -8.695312 28.375 -6.65625 C 25.332031 -4.613281 23.160156 -3.1875 21.859375 -2.375 C 20.566406 -1.570312 18.722656 -0.519531 16.328125 0.78125 C 10.628906 3.238281 7.226562 4.46875 6.125 4.46875 C 6.0625 4.46875 5.992188 4.46875 5.921875 4.46875 Z M 5.921875 4.46875 "/></g></g></g><g fill="#000000" fill-opacity="1"><g transform="translate(338.623536, 180.941205)"><g><path d="M 31.96875 -11.5625 L 32.0625 -10.296875 C 21.632812 -3.367188 15.285156 0.09375 13.015625 0.09375 C 12.628906 0.09375 12.4375 -0.128906 12.4375 -0.578125 C 12.4375 -1.941406 12.957031 -3.882812 14 -6.40625 L 14.484375 -7.78125 C 14.484375 -7.90625 14.367188 -7.96875 14.140625 -7.96875 C 13.910156 -7.96875 12.015625 -6.671875 8.453125 -4.078125 C 4.953125 -1.484375 2.664062 -0.1875 1.59375 -0.1875 C 0.53125 -0.1875 0 -1.160156 0 -3.109375 C 0 -8.484375 3.054688 -13.726562 9.171875 -18.84375 C 15.296875 -23.96875 22.671875 -26.53125 31.296875 -26.53125 C 32.066406 -26.53125 32.453125 -26.203125 32.453125 -25.546875 C 32.453125 -24.898438 29.40625 -21.128906 23.3125 -14.234375 C 17.226562 -7.335938 14.1875 -3.175781 14.1875 -1.75 C 14.1875 -1.488281 14.378906 -1.359375 14.765625 -1.359375 C 15.160156 -1.359375 16.8125 -2.195312 19.71875 -3.875 C 22.632812 -5.5625 25.390625 -7.25 27.984375 -8.9375 Z M 16.515625 -11.46875 C 17.617188 -12.3125 19.753906 -14.546875 22.921875 -18.171875 C 26.097656 -21.796875 27.6875 -23.898438 27.6875 -24.484375 C 27.6875 -24.742188 27.429688 -24.875 26.921875 -24.875 C 23.941406 -24.875 20.472656 -23.492188 16.515625 -20.734375 C 12.566406 -17.984375 9.210938 -14.859375 6.453125 -11.359375 C 3.703125 -7.867188 2.328125 -5.054688 2.328125 -2.921875 C 2.328125 -2.523438 2.519531 -2.328125 2.90625 -2.328125 C 3.300781 -2.328125 3.9375 -2.570312 4.8125 -3.0625 C 5.6875 -3.550781 6.753906 -4.226562 8.015625 -5.09375 C 9.273438 -5.96875 10.359375 -6.734375 11.265625 -7.390625 C 14.378906 -9.722656 16.128906 -11.082031 16.515625 -11.46875 Z M 16.515625 -11.46875 "/></g></g></g><g fill="#000000" fill-opacity="1"><g transform="translate(367.289115, 180.941205)"><g><path d="M 32.84375 -14.484375 L 33.625 -13.609375 C 30.644531 -11.796875 28.210938 -10.269531 26.328125 -9.03125 C 24.453125 -7.800781 23.03125 -7.1875 22.0625 -7.1875 C 20.632812 -7.1875 19.921875 -7.800781 19.921875 -9.03125 C 19.921875 -9.9375 20.421875 -11.734375 21.421875 -14.421875 C 22.429688 -17.117188 23.128906 -19.015625 23.515625 -20.109375 L 23.21875 -20.40625 C 22.957031 -20.40625 22.664062 -20.273438 22.34375 -20.015625 C 15.800781 -14.765625 11.570312 -11.234375 9.65625 -9.421875 C 7.75 -7.609375 5.90625 -5.664062 4.125 -3.59375 C 2.34375 -1.519531 1.367188 -0.382812 1.203125 -0.1875 C 1.046875 0 0.9375 0.125 0.875 0.1875 C 0.675781 0.382812 0.015625 0.484375 -1.109375 0.484375 C -2.242188 0.484375 -2.8125 0.382812 -2.8125 0.1875 C -2.6875 0 -1.878906 -0.90625 -0.390625 -2.53125 C 3.234375 -6.476562 6.503906 -10.265625 9.421875 -13.890625 L 6.609375 -12.25 C 3.628906 -10.425781 1.457031 -9.0625 0.09375 -8.15625 L -0.296875 -9.234375 L 5.828125 -13.125 C 8.035156 -14.539062 9.929688 -16.023438 11.515625 -17.578125 C 13.097656 -19.140625 14.179688 -20.40625 14.765625 -21.375 C 15.347656 -22.34375 15.863281 -23.148438 16.3125 -23.796875 C 16.769531 -24.453125 17.191406 -24.78125 17.578125 -24.78125 C 17.972656 -24.78125 18.59375 -24.550781 19.4375 -24.09375 C 19.4375 -23.445312 18.914062 -22.3125 17.875 -20.6875 C 16.84375 -19.070312 15.804688 -17.617188 14.765625 -16.328125 L 13.21875 -14.484375 C 13.21875 -14.347656 13.25 -14.28125 13.3125 -14.28125 C 13.507812 -14.28125 13.734375 -14.394531 13.984375 -14.625 C 14.242188 -14.851562 15.328125 -15.757812 17.234375 -17.34375 C 19.148438 -18.925781 20.820312 -20.285156 22.25 -21.421875 C 23.675781 -22.554688 25.3125 -23.640625 27.15625 -24.671875 C 29 -25.710938 30.34375 -26.234375 31.1875 -26.234375 C 32.03125 -26.234375 32.453125 -26.039062 32.453125 -25.65625 C 32.453125 -25.132812 30.863281 -24.03125 27.6875 -22.34375 C 26.976562 -21.957031 25.894531 -20.09375 24.4375 -16.75 C 22.976562 -13.414062 22.25 -10.972656 22.25 -9.421875 C 22.25 -9.097656 22.554688 -8.9375 23.171875 -8.9375 C 23.785156 -8.9375 25 -9.519531 26.8125 -10.6875 Z M 32.84375 -14.484375 "/></g></g></g><g fill="#000000" fill-opacity="1"><g transform="translate(392.067821, 180.941205)"><g><path d="M 2.140625 -9.515625 L 1.84375 -10.6875 L 5.046875 -12.734375 C 9.910156 -15.972656 12.957031 -18.253906 14.1875 -19.578125 C 15.414062 -20.910156 16.160156 -21.738281 16.421875 -22.0625 C 18.109375 -24.195312 19.046875 -25.394531 19.234375 -25.65625 C 20.015625 -25.394531 20.40625 -24.617188 20.40625 -23.328125 C 19.113281 -21.441406 17.363281 -19.1875 15.15625 -16.5625 C 12.957031 -13.9375 11.144531 -11.765625 9.71875 -10.046875 C 8.289062 -8.335938 7.578125 -7.351562 7.578125 -7.09375 C 7.578125 -6.832031 7.625 -6.703125 7.71875 -6.703125 C 7.820312 -6.703125 8.3125 -7.039062 9.1875 -7.71875 C 10.0625 -8.40625 12.441406 -10.109375 16.328125 -12.828125 C 24.160156 -18.265625 29.144531 -21.710938 31.28125 -23.171875 C 33.425781 -24.628906 34.804688 -25.359375 35.421875 -25.359375 C 36.035156 -25.359375 36.34375 -24.726562 36.34375 -23.46875 C 36.34375 -22.207031 35.367188 -20.3125 33.421875 -17.78125 C 31.484375 -15.257812 29.347656 -12.925781 27.015625 -10.78125 C 20.796875 -5.082031 17.6875 -1.941406 17.6875 -1.359375 C 17.6875 -1.296875 17.816406 -1.265625 18.078125 -1.265625 C 18.847656 -1.265625 23.21875 -3.820312 31.1875 -8.9375 L 35.171875 -11.5625 L 35.265625 -10.296875 C 24.835938 -3.367188 18.492188 0.09375 16.234375 0.09375 C 15.835938 0.09375 15.640625 -0.0976562 15.640625 -0.484375 C 15.640625 -2.878906 17.144531 -5.710938 20.15625 -8.984375 C 23.175781 -12.253906 26.175781 -15.203125 29.15625 -17.828125 C 32.132812 -20.453125 33.625 -22.1875 33.625 -23.03125 C 33.625 -23.15625 33.554688 -23.21875 33.421875 -23.21875 C 31.546875 -22.3125 27.191406 -19.445312 20.359375 -14.625 C 13.523438 -9.800781 9.523438 -6.96875 8.359375 -6.125 C 5.316406 -3.851562 3.710938 -2.664062 3.546875 -2.5625 C 3.378906 -2.46875 3.039062 -2.132812 2.53125 -1.5625 C 1.363281 -0.320312 0.289062 0.296875 -0.6875 0.296875 C -2.238281 0.160156 -3.046875 0.0625 -3.109375 0 C -3.171875 -0.0625 -3.203125 -0.125 -3.203125 -0.1875 C -3.203125 -0.257812 -2.65625 -0.878906 -1.5625 -2.046875 C -0.519531 -3.140625 0.519531 -4.238281 1.5625 -5.34375 C 4.988281 -9.164062 7.347656 -11.882812 8.640625 -13.5 Z M 2.140625 -9.515625 "/></g></g></g><g fill="#000000" fill-opacity="1"><g transform="translate(423.940048, 180.941205)"><g><path d="M 24.28125 -32.359375 C 23.1875 -32.359375 22.640625 -32.859375 22.640625 -33.859375 C 22.640625 -34.867188 23.125 -35.828125 24.09375 -36.734375 C 25.070312 -37.640625 25.898438 -38.09375 26.578125 -38.09375 C 27.253906 -38.09375 27.769531 -37.894531 28.125 -37.5 C 28.488281 -37.113281 28.671875 -36.660156 28.671875 -36.140625 C 28.671875 -35.628906 28.210938 -34.867188 27.296875 -33.859375 C 26.390625 -32.859375 25.382812 -32.359375 24.28125 -32.359375 Z M -0.296875 -1.65625 C 0.421875 -3.269531 3.289062 -6.957031 8.3125 -12.71875 C 13.332031 -18.488281 17.132812 -22.671875 19.71875 -25.265625 C 20.113281 -25.785156 20.3125 -26.15625 20.3125 -26.375 C 20.3125 -26.601562 20.050781 -26.75 19.53125 -26.8125 L 17.296875 -27.015625 C 16.773438 -27.015625 16.289062 -26.753906 15.84375 -26.234375 C 11.4375 -21.765625 7.269531 -16.890625 3.34375 -11.609375 C -0.570312 -6.328125 -2.53125 -3.054688 -2.53125 -1.796875 C -2.53125 -0.535156 -2.140625 0.09375 -1.359375 0.09375 C -0.328125 0.09375 1.773438 -0.757812 4.953125 -2.46875 C 8.128906 -4.1875 11.046875 -5.921875 13.703125 -7.671875 L 17.6875 -10.296875 L 17.59375 -11.5625 C 7.15625 -4.695312 1.351562 -1.265625 0.1875 -1.265625 C -0.132812 -1.265625 -0.296875 -1.394531 -0.296875 -1.65625 Z M -0.296875 -1.65625 "/></g></g></g><g fill="#000000" fill-opacity="1"><g transform="translate(438.321412, 180.941205)"><g><path d="M 2.140625 -9.515625 L 1.84375 -10.6875 L 5.046875 -12.734375 C 9.910156 -15.972656 12.957031 -18.253906 14.1875 -19.578125 C 15.414062 -20.910156 16.160156 -21.738281 16.421875 -22.0625 C 18.109375 -24.195312 19.046875 -25.394531 19.234375 -25.65625 C 20.015625 -25.394531 20.40625 -24.617188 20.40625 -23.328125 C 19.113281 -21.441406 17.363281 -19.1875 15.15625 -16.5625 C 12.957031 -13.9375 11.144531 -11.765625 9.71875 -10.046875 C 8.289062 -8.335938 7.578125 -7.351562 7.578125 -7.09375 C 7.578125 -6.832031 7.625 -6.703125 7.71875 -6.703125 C 7.820312 -6.703125 8.3125 -7.039062 9.1875 -7.71875 C 10.0625 -8.40625 12.441406 -10.109375 16.328125 -12.828125 C 24.160156 -18.265625 29.144531 -21.710938 31.28125 -23.171875 C 33.425781 -24.628906 34.804688 -25.359375 35.421875 -25.359375 C 36.035156 -25.359375 36.34375 -24.726562 36.34375 -23.46875 C 36.34375 -22.207031 35.367188 -20.3125 33.421875 -17.78125 C 31.484375 -15.257812 29.347656 -12.925781 27.015625 -10.78125 C 20.796875 -5.082031 17.6875 -1.941406 17.6875 -1.359375 C 17.6875 -1.296875 17.816406 -1.265625 18.078125 -1.265625 C 18.847656 -1.265625 23.21875 -3.820312 31.1875 -8.9375 L 35.171875 -11.5625 L 35.265625 -10.296875 C 24.835938 -3.367188 18.492188 0.09375 16.234375 0.09375 C 15.835938 0.09375 15.640625 -0.0976562 15.640625 -0.484375 C 15.640625 -2.878906 17.144531 -5.710938 20.15625 -8.984375 C 23.175781 -12.253906 26.175781 -15.203125 29.15625 -17.828125 C 32.132812 -20.453125 33.625 -22.1875 33.625 -23.03125 C 33.625 -23.15625 33.554688 -23.21875 33.421875 -23.21875 C 31.546875 -22.3125 27.191406 -19.445312 20.359375 -14.625 C 13.523438 -9.800781 9.523438 -6.96875 8.359375 -6.125 C 5.316406 -3.851562 3.710938 -2.664062 3.546875 -2.5625 C 3.378906 -2.46875 3.039062 -2.132812 2.53125 -1.5625 C 1.363281 -0.320312 0.289062 0.296875 -0.6875 0.296875 C -2.238281 0.160156 -3.046875 0.0625 -3.109375 0 C -3.171875 -0.0625 -3.203125 -0.125 -3.203125 -0.1875 C -3.203125 -0.257812 -2.65625 -0.878906 -1.5625 -2.046875 C -0.519531 -3.140625 0.519531 -4.238281 1.5625 -5.34375 C 4.988281 -9.164062 7.347656 -11.882812 8.640625 -13.5 Z M 2.140625 -9.515625 "/></g></g></g><g fill="#000000" fill-opacity="1"><g transform="translate(470.193639, 180.941205)"><g><path d="M 16.609375 -11.46875 C 17.710938 -12.3125 19.851562 -14.546875 23.03125 -18.171875 C 26.207031 -21.796875 27.796875 -23.898438 27.796875 -24.484375 C 27.796875 -24.742188 27.535156 -24.875 27.015625 -24.875 C 22.410156 -24.875 17.160156 -22.164062 11.265625 -16.75 C 5.367188 -11.34375 2.421875 -6.734375 2.421875 -2.921875 C 2.421875 -2.523438 2.613281 -2.328125 3 -2.328125 C 3.394531 -2.328125 4.03125 -2.570312 4.90625 -3.0625 C 5.78125 -3.550781 6.847656 -4.226562 8.109375 -5.09375 C 9.378906 -5.96875 10.429688 -6.734375 11.265625 -7.390625 C 14.441406 -9.722656 16.222656 -11.082031 16.609375 -11.46875 Z M -20.890625 33.421875 C -20.109375 33.421875 -14.472656 27.140625 -3.984375 14.578125 L 1.265625 8.359375 C 1.265625 8.222656 1.195312 8.15625 1.0625 8.15625 C -3.332031 11.332031 -7.441406 14.585938 -11.265625 17.921875 C -15.085938 21.265625 -17.695312 24.066406 -19.09375 26.328125 C -20.488281 28.597656 -21.1875 30.769531 -21.1875 32.84375 C -21.1875 33.226562 -21.085938 33.421875 -20.890625 33.421875 Z M 13.703125 -1.265625 C 14.804688 -1.265625 19.375 -3.820312 27.40625 -8.9375 L 31.484375 -11.46875 L 31.578125 -10.296875 C 27.429688 -7.453125 23.546875 -5.054688 19.921875 -3.109375 L 11.078125 1.453125 C 5.960938 8.390625 -0.429688 15.820312 -8.109375 23.75 C -15.785156 31.6875 -20.300781 35.65625 -21.65625 35.65625 C -23.019531 35.65625 -23.703125 35.203125 -23.703125 34.296875 C -23.703125 29.566406 -20.140625 24.09375 -13.015625 17.875 C -10.429688 15.613281 -7.128906 13.007812 -3.109375 10.0625 C 0.910156 7.113281 3.375 5.28125 4.28125 4.5625 C 5.769531 2.75 7.320312 0.875 8.9375 -1.0625 C 12.4375 -5.144531 14.316406 -7.382812 14.578125 -7.78125 C 14.578125 -7.90625 14.460938 -7.96875 14.234375 -7.96875 C 14.003906 -7.96875 12.109375 -6.671875 8.546875 -4.078125 C 5.046875 -1.484375 2.757812 -0.1875 1.6875 -0.1875 C 0.625 -0.1875 0.09375 -1.160156 0.09375 -3.109375 C 0.09375 -8.484375 3.15625 -13.726562 9.28125 -18.84375 C 15.40625 -23.96875 22.773438 -26.53125 31.390625 -26.53125 C 32.097656 -26.53125 32.453125 -26.140625 32.453125 -25.359375 C 20.597656 -10.460938 14.347656 -2.429688 13.703125 -1.265625 Z M 13.703125 -1.265625 "/></g></g></g><g fill="#000000" fill-opacity="1"><g transform="translate(498.373342, 180.941205)"><g/></g></g><g fill="#000000" fill-opacity="1"><g transform="translate(519.751052, 180.941205)"><g><path d="M 76.1875 -71.234375 C 76.1875 -71.804688 75.863281 -72.09375 75.21875 -72.09375 C 72.6875 -72.09375 66.789062 -67.238281 57.53125 -57.53125 C 61.9375 -58.300781 66.144531 -60.335938 70.15625 -63.640625 C 74.175781 -66.953125 76.1875 -69.484375 76.1875 -71.234375 Z M 19.046875 -62.671875 C 19.046875 -60.921875 17.25 -58.148438 13.65625 -54.359375 C 10.0625 -50.578125 7 -48.6875 4.46875 -48.6875 C 2.65625 -48.6875 1.75 -49.492188 1.75 -51.109375 C 1.75 -54.285156 4.242188 -58.023438 9.234375 -62.328125 C 14.222656 -66.640625 19.757812 -68.796875 25.84375 -68.796875 C 27.914062 -68.796875 30.503906 -67.9375 33.609375 -66.21875 C 36.722656 -64.5 40.078125 -62.664062 43.671875 -60.71875 C 47.273438 -58.78125 50.53125 -57.648438 53.4375 -57.328125 C 64.320312 -68.085938 71.707031 -73.46875 75.59375 -73.46875 C 77.15625 -73.46875 77.9375 -72.882812 77.9375 -71.71875 C 77.9375 -69.445312 75.679688 -66.546875 71.171875 -63.015625 C 66.671875 -59.484375 61.796875 -57.296875 56.546875 -56.453125 C 46.578125 -45.828125 35.8125 -33.082031 24.25 -18.21875 C 12.6875 -3.351562 6.90625 5.050781 6.90625 7 C 6.90625 7.1875 6.984375 7.28125 7.140625 7.28125 C 7.304688 7.28125 7.5 7.21875 7.71875 7.09375 C 7.945312 6.96875 8.207031 6.820312 8.5 6.65625 C 8.789062 6.488281 9.03125 6.34375 9.21875 6.21875 C 9.414062 6.09375 9.546875 6.03125 9.609375 6.03125 C 9.679688 6.03125 9.71875 6.125 9.71875 6.3125 C 9.71875 7.03125 8.597656 8.195312 6.359375 9.8125 C 4.128906 11.4375 2.59375 12.25 1.75 12.25 C 0.707031 12.25 0.1875 11.664062 0.1875 10.5 C 0.1875 7.445312 6.03125 -1.585938 17.71875 -16.609375 C 29.414062 -31.640625 40.90625 -44.828125 52.1875 -56.171875 C 48.425781 -56.234375 45.039062 -56.828125 42.03125 -57.953125 C 39.019531 -59.085938 36.703125 -60.304688 35.078125 -61.609375 C 30.671875 -65.109375 26.378906 -66.859375 22.203125 -66.859375 C 18.023438 -66.859375 14.054688 -64.910156 10.296875 -61.015625 C 6.546875 -57.128906 4.671875 -53.957031 4.671875 -51.5 C 4.671875 -50.71875 4.992188 -50.328125 5.640625 -50.328125 C 7.453125 -50.328125 9.671875 -51.71875 12.296875 -54.5 C 14.921875 -57.289062 16.75 -59.921875 17.78125 -62.390625 C 18.101562 -62.972656 18.332031 -63.265625 18.46875 -63.265625 C 18.851562 -63.265625 19.046875 -63.066406 19.046875 -62.671875 Z M 19.046875 -62.671875 "/></g></g></g><g fill="#000000" fill-opacity="1"><g transform="translate(550.068529, 180.941205)"><g><path d="M 23.125 -21.859375 L 23.125 -21.953125 C 21.832031 -21.304688 20.40625 -19.769531 18.84375 -17.34375 C 17.289062 -14.914062 16.382812 -12.828125 16.125 -11.078125 C 20.789062 -15.867188 23.125 -19.460938 23.125 -21.859375 Z M 2.421875 -1.5625 C 4.890625 -1.5625 8.875 -4.148438 14.375 -9.328125 L 14.375 -9.8125 C 14.375 -11.820312 15.363281 -14.300781 17.34375 -17.25 C 19.320312 -20.195312 21.117188 -22.09375 22.734375 -22.9375 C 22.546875 -23.125 22.285156 -23.21875 21.953125 -23.21875 C 19.554688 -23.21875 15.585938 -20.460938 10.046875 -14.953125 C 4.515625 -9.453125 1.75 -5.179688 1.75 -2.140625 C 1.75 -1.753906 1.972656 -1.5625 2.421875 -1.5625 Z M -0.578125 -2.921875 C -0.578125 -7.773438 2.222656 -12.613281 7.828125 -17.4375 C 13.429688 -22.269531 18.078125 -24.6875 21.765625 -24.6875 C 23.578125 -24.6875 24.484375 -23.875 24.484375 -22.25 C 24.484375 -17.65625 22.023438 -13.054688 17.109375 -8.453125 C 17.492188 -8.328125 17.878906 -8.265625 18.265625 -8.265625 C 20.078125 -8.265625 22.703125 -9.394531 26.140625 -11.65625 L 26.625 -10.6875 C 22.476562 -7.90625 19.335938 -6.515625 17.203125 -6.515625 C 16.359375 -6.515625 15.742188 -6.675781 15.359375 -7 C 12.828125 -4.925781 10.164062 -3.238281 7.375 -1.9375 C 4.59375 -0.644531 2.570312 0 1.3125 0 C 0.0507812 0 -0.578125 -0.972656 -0.578125 -2.921875 Z M -0.578125 -2.921875 "/></g></g></g><g fill="#000000" fill-opacity="1"><g transform="translate(572.612286, 180.941205)"><g><path d="M 2.328125 -1.65625 C 4.078125 -1.65625 8.382812 -4.195312 15.25 -9.28125 C 22.125 -14.363281 27.050781 -19.238281 30.03125 -23.90625 C 30.03125 -24.351562 29.640625 -24.578125 28.859375 -24.578125 C 27.046875 -24.578125 23.96875 -23.21875 19.625 -20.5 C 15.289062 -17.78125 11.257812 -14.585938 7.53125 -10.921875 C 3.800781 -7.265625 1.9375 -4.335938 1.9375 -2.140625 C 1.9375 -1.816406 2.066406 -1.65625 2.328125 -1.65625 Z M 15.734375 0.578125 C 14.960938 0.578125 14.578125 0.140625 14.578125 -0.734375 C 14.578125 -1.609375 14.785156 -2.5 15.203125 -3.40625 C 15.628906 -4.3125 16.265625 -5.441406 17.109375 -6.796875 C 18.203125 -8.546875 18.910156 -9.875 19.234375 -10.78125 L 19.140625 -10.890625 C 9.359375 -3.753906 3.332031 -0.1875 1.0625 -0.1875 C 0.351562 -0.1875 0 -0.835938 0 -2.140625 C 0 -5.503906 1.210938 -8.738281 3.640625 -11.84375 C 6.066406 -14.957031 9 -17.503906 12.4375 -19.484375 C 15.875 -21.460938 19.304688 -23.03125 22.734375 -24.1875 C 26.171875 -25.351562 29.054688 -25.9375 31.390625 -25.9375 C 44.410156 -40.257812 54.578125 -52.148438 61.890625 -61.609375 C 63.390625 -63.546875 65.078125 -64.550781 66.953125 -64.625 C 67.535156 -64.625 67.828125 -64.363281 67.828125 -63.84375 C 67.828125 -63.320312 63.519531 -58.171875 54.90625 -48.390625 C 46.289062 -38.609375 37.671875 -28.628906 29.046875 -18.453125 C 20.429688 -8.285156 16.125 -2.457031 16.125 -0.96875 C 16.125 -0.707031 16.285156 -0.578125 16.609375 -0.578125 C 16.941406 -0.578125 18.238281 -1.128906 20.5 -2.234375 C 22.769531 -3.335938 24.8125 -4.4375 26.625 -5.53125 L 36.140625 -11.5625 L 36.25 -10.296875 C 25.488281 -3.046875 18.648438 0.578125 15.734375 0.578125 Z M 15.734375 0.578125 "/></g></g></g><g fill="#000000" fill-opacity="1"><g transform="translate(605.359037, 180.941205)"><g><path d="M 31.96875 -11.5625 L 32.0625 -10.296875 C 21.632812 -3.367188 15.285156 0.09375 13.015625 0.09375 C 12.628906 0.09375 12.4375 -0.128906 12.4375 -0.578125 C 12.4375 -1.941406 12.957031 -3.882812 14 -6.40625 L 14.484375 -7.78125 C 14.484375 -7.90625 14.367188 -7.96875 14.140625 -7.96875 C 13.910156 -7.96875 12.015625 -6.671875 8.453125 -4.078125 C 4.953125 -1.484375 2.664062 -0.1875 1.59375 -0.1875 C 0.53125 -0.1875 0 -1.160156 0 -3.109375 C 0 -8.484375 3.054688 -13.726562 9.171875 -18.84375 C 15.296875 -23.96875 22.671875 -26.53125 31.296875 -26.53125 C 32.066406 -26.53125 32.453125 -26.203125 32.453125 -25.546875 C 32.453125 -24.898438 29.40625 -21.128906 23.3125 -14.234375 C 17.226562 -7.335938 14.1875 -3.175781 14.1875 -1.75 C 14.1875 -1.488281 14.378906 -1.359375 14.765625 -1.359375 C 15.160156 -1.359375 16.8125 -2.195312 19.71875 -3.875 C 22.632812 -5.5625 25.390625 -7.25 27.984375 -8.9375 Z M 16.515625 -11.46875 C 17.617188 -12.3125 19.753906 -14.546875 22.921875 -18.171875 C 26.097656 -21.796875 27.6875 -23.898438 27.6875 -24.484375 C 27.6875 -24.742188 27.429688 -24.875 26.921875 -24.875 C 23.941406 -24.875 20.472656 -23.492188 16.515625 -20.734375 C 12.566406 -17.984375 9.210938 -14.859375 6.453125 -11.359375 C 3.703125 -7.867188 2.328125 -5.054688 2.328125 -2.921875 C 2.328125 -2.523438 2.519531 -2.328125 2.90625 -2.328125 C 3.300781 -2.328125 3.9375 -2.570312 4.8125 -3.0625 C 5.6875 -3.550781 6.753906 -4.226562 8.015625 -5.09375 C 9.273438 -5.96875 10.359375 -6.734375 11.265625 -7.390625 C 14.378906 -9.722656 16.128906 -11.082031 16.515625 -11.46875 Z M 16.515625 -11.46875 "/></g></g></g><g fill="#000000" fill-opacity="1"><g transform="translate(634.02459, 180.941205)"><g><path d="M 18.65625 -24.390625 C 19.113281 -25.035156 19.597656 -25.359375 20.109375 -25.359375 C 20.628906 -25.359375 21.179688 -24.875 21.765625 -23.90625 C 21.765625 -22.738281 18.832031 -18.914062 12.96875 -12.4375 C 7.101562 -5.957031 4.171875 -2.425781 4.171875 -1.84375 C 4.171875 -1.71875 4.363281 -1.65625 4.75 -1.65625 C 5.144531 -1.65625 7.414062 -2.984375 11.5625 -5.640625 C 15.707031 -8.296875 18.882812 -10.5 21.09375 -12.25 C 24.582031 -15.09375 27.785156 -18.265625 30.703125 -21.765625 L 32.453125 -24 C 34.003906 -25.425781 35.363281 -26.140625 36.53125 -26.140625 C 36.601562 -26.140625 36.671875 -26.140625 36.734375 -26.140625 C 37.960938 -26.078125 38.578125 -25.914062 38.578125 -25.65625 L 38.484375 -25.453125 C 36.335938 -22.992188 32.707031 -18.65625 27.59375 -12.4375 C 22.476562 -6.21875 19.5625 -2.492188 18.84375 -1.265625 C 19.363281 -1.265625 21.113281 -2.101562 24.09375 -3.78125 C 27.070312 -5.46875 29.925781 -7.1875 32.65625 -8.9375 L 36.640625 -11.46875 L 36.734375 -10.296875 C 32.585938 -7.453125 28.703125 -5.054688 25.078125 -3.109375 L 16.234375 1.453125 C 11.109375 8.390625 4.707031 15.820312 -2.96875 23.75 C -10.644531 31.6875 -15.160156 35.65625 -16.515625 35.65625 C -17.878906 35.65625 -18.5625 35.203125 -18.5625 34.296875 C -18.5625 31.128906 -17.101562 27.796875 -14.1875 24.296875 C -10.820312 20.335938 -7.757812 17.222656 -5 14.953125 C -2.25 12.691406 -0.191406 11.007812 1.171875 9.90625 C 6.023438 6.15625 9.359375 3.628906 11.171875 2.328125 C 13.828125 -0.910156 15.804688 -3.242188 17.109375 -4.671875 C 19.828125 -7.835938 22.15625 -10.585938 24.09375 -12.921875 L 22.9375 -12.140625 C 22.03125 -11.554688 21.316406 -11.101562 20.796875 -10.78125 C 11.015625 -3.789062 5.148438 -0.296875 3.203125 -0.296875 C 2.429688 -0.296875 2.046875 -0.734375 2.046875 -1.609375 C 2.046875 -2.484375 2.429688 -3.644531 3.203125 -5.09375 C 3.984375 -6.550781 4.726562 -7.765625 5.4375 -8.734375 C 6.15625 -9.710938 7.160156 -10.960938 8.453125 -12.484375 C 9.742188 -14.003906 10.425781 -14.800781 10.5 -14.875 L 2.234375 -9.625 L 1.9375 -10.6875 L 5.640625 -13.21875 C 10.234375 -16.394531 13.226562 -18.582031 14.625 -19.78125 C 16.019531 -20.976562 17.363281 -22.515625 18.65625 -24.390625 Z M -15.734375 33.421875 C -15.347656 33.421875 -13.160156 31.15625 -9.171875 26.625 C -5.191406 22.09375 -1.289062 17.554688 2.53125 13.015625 L 8.15625 6.125 C 8.15625 5.988281 8.09375 5.921875 7.96875 5.921875 C -8.03125 17.585938 -16.03125 26.5625 -16.03125 32.84375 C -16.03125 33.226562 -15.929688 33.421875 -15.734375 33.421875 Z M -15.734375 33.421875 "/></g></g></g><g fill="#000000" fill-opacity="1"><g transform="translate(260.942495, 232.428215)"><g><path d="M 15.875 -13.203125 L 16.859375 -13.203125 L 11.921875 0.296875 L 11.609375 0.296875 L 8.546875 -7.875 L 5.5625 0.296875 L 5.25 0.296875 L 0.203125 -13.203125 L 2.375 -13.203125 L 5.875 -2.390625 L 8.109375 -9.046875 L 6.5625 -13.203125 L 8.734375 -13.203125 L 12.234375 -2.390625 Z M 15.875 -13.203125 "/></g></g></g><g fill="#000000" fill-opacity="1"><g transform="translate(280.49631, 232.428215)"><g><path d="M 3.625 -13.203125 L 3.625 0 L 1.796875 0 L 1.796875 -13.203125 Z M 3.625 -13.203125 "/></g></g></g><g fill="#000000" fill-opacity="1"><g transform="translate(288.409531, 232.428215)"><g><path d="M 6.296875 0 L 4.359375 0 L 4.359375 -12.234375 C 3.910156 -12.347656 3.460938 -12.40625 3.015625 -12.40625 L 0.3125 -11.78125 L 0.203125 -13.203125 L 10.46875 -13.203125 L 10.375 -11.78125 L 7.65625 -12.40625 C 7.207031 -12.40625 6.753906 -12.347656 6.296875 -12.234375 Z M 6.296875 0 "/></g></g></g><g fill="#000000" fill-opacity="1"><g transform="translate(301.565006, 232.428215)"><g><path d="M 3.734375 -6.546875 L 3.734375 0 L 1.796875 0 L 1.796875 -13.203125 L 3.734375 -13.203125 L 3.734375 -7.296875 L 9.765625 -7.296875 L 9.765625 -13.203125 L 11.703125 -13.203125 L 11.703125 0 L 9.765625 0 L 9.765625 -6.546875 Z M 3.734375 -6.546875 "/></g></g></g><g fill="#000000" fill-opacity="1"><g transform="translate(328.732967, 263.000009)"><g><path d="M 18.140625 -16.515625 L 18.140625 0 L 16.46875 0 L 16.46875 -12.703125 L 10.453125 0 L 9.484375 0 L 3.46875 -12.65625 L 3.46875 0 L 1.796875 0 L 1.796875 -16.515625 L 3.34375 -16.515625 L 9.984375 -2.421875 L 16.59375 -16.515625 Z M 18.140625 -16.515625 "/></g></g></g><g fill="#000000" fill-opacity="1"><g transform="translate(352.979264, 263.000009)"><g><path d="M 7.328125 0 L 5.65625 0 L 5.65625 -6.515625 L 0.359375 -16.515625 L 2.15625 -16.515625 L 6.46875 -8.046875 L 10.765625 -16.515625 L 12.59375 -16.515625 L 7.328125 -6.515625 Z M 7.328125 0 "/></g></g></g><g fill="#000000" fill-opacity="1"><g transform="translate(381.727715, 263.000009)"><g><path d="M 3.46875 -1.296875 L 6.875 -1.296875 C 9.09375 -1.296875 10.78125 -1.894531 11.9375 -3.09375 C 13.09375 -4.300781 13.671875 -5.988281 13.671875 -8.15625 C 13.671875 -10.332031 13.09375 -12.019531 11.9375 -13.21875 C 10.78125 -14.425781 9.09375 -15.03125 6.875 -15.03125 L 3.46875 -15.03125 Z M 6.875 -16.515625 C 9.539062 -16.515625 11.625 -15.773438 13.125 -14.296875 C 14.632812 -12.828125 15.390625 -10.78125 15.390625 -8.15625 C 15.390625 -5.539062 14.640625 -3.523438 13.140625 -2.109375 C 11.640625 -0.703125 9.550781 0 6.875 0 L 1.796875 0 L 1.796875 -16.515625 Z M 6.875 -16.515625 "/></g></g></g><g fill="#000000" fill-opacity="1"><g transform="translate(402.432037, 263.000009)"><g><path d="M 1.796875 0 L 1.796875 -16.515625 L 3.46875 -16.515625 L 3.46875 0 Z M 1.796875 0 "/></g></g></g><g fill="#000000" fill-opacity="1"><g transform="translate(412.007833, 263.000009)"><g><path d="M 3.375 -2.21875 C 1.757812 -3.800781 0.953125 -5.8125 0.953125 -8.25 C 0.953125 -10.695312 1.757812 -12.710938 3.375 -14.296875 C 5 -15.890625 6.992188 -16.6875 9.359375 -16.6875 C 11.046875 -16.6875 12.546875 -16.300781 13.859375 -15.53125 C 15.179688 -14.769531 16.179688 -13.65625 16.859375 -12.1875 L 14.8125 -12.1875 C 14.300781 -13.15625 13.566406 -13.898438 12.609375 -14.421875 C 11.648438 -14.953125 10.566406 -15.21875 9.359375 -15.21875 C 7.429688 -15.21875 5.835938 -14.578125 4.578125 -13.296875 C 3.316406 -12.023438 2.6875 -10.34375 2.6875 -8.25 C 2.6875 -6.164062 3.316406 -4.484375 4.578125 -3.203125 C 5.835938 -1.929688 7.421875 -1.296875 9.328125 -1.296875 C 11.234375 -1.296875 12.773438 -1.851562 13.953125 -2.96875 C 15.140625 -4.082031 15.816406 -5.609375 15.984375 -7.546875 L 8.5625 -7.546875 L 8.5625 -8.875 L 17.734375 -8.875 L 17.734375 -7.546875 C 17.515625 -5.242188 16.617188 -3.382812 15.046875 -1.96875 C 13.484375 -0.5625 11.550781 0.140625 9.25 0.140625 C 6.957031 0.140625 5 -0.644531 3.375 -2.21875 Z M 3.375 -2.21875 "/></g></g></g><g fill="#000000" fill-opacity="1"><g transform="translate(434.985727, 263.000009)"><g><path d="M 1.796875 0 L 1.796875 -16.515625 L 3.46875 -16.515625 L 3.46875 0 Z M 1.796875 0 "/></g></g></g><g fill="#000000" fill-opacity="1"><g transform="translate(444.561522, 263.000009)"><g><path d="M 3.46875 -1.296875 L 6.875 -1.296875 C 9.09375 -1.296875 10.78125 -1.894531 11.9375 -3.09375 C 13.09375 -4.300781 13.671875 -5.988281 13.671875 -8.15625 C 13.671875 -10.332031 13.09375 -12.019531 11.9375 -13.21875 C 10.78125 -14.425781 9.09375 -15.03125 6.875 -15.03125 L 3.46875 -15.03125 Z M 6.875 -16.515625 C 9.539062 -16.515625 11.625 -15.773438 13.125 -14.296875 C 14.632812 -12.828125 15.390625 -10.78125 15.390625 -8.15625 C 15.390625 -5.539062 14.640625 -3.523438 13.140625 -2.109375 C 11.640625 -0.703125 9.550781 0 6.875 0 L 1.796875 0 L 1.796875 -16.515625 Z M 6.875 -16.515625 "/></g></g></g><g fill="#000000" fill-opacity="1"><g transform="translate(465.265844, 263.000009)"><g><path d="M 14.125 -3.1875 C 15.394531 -4.476562 16.03125 -6.164062 16.03125 -8.25 C 16.03125 -10.34375 15.398438 -12.023438 14.140625 -13.296875 C 12.878906 -14.578125 11.285156 -15.21875 9.359375 -15.21875 C 7.429688 -15.21875 5.832031 -14.578125 4.5625 -13.296875 C 3.289062 -12.023438 2.65625 -10.34375 2.65625 -8.25 C 2.65625 -6.164062 3.289062 -4.476562 4.5625 -3.1875 C 5.832031 -1.90625 7.425781 -1.265625 9.34375 -1.265625 C 11.269531 -1.265625 12.863281 -1.90625 14.125 -3.1875 Z M 3.375 -2.203125 C 1.757812 -3.796875 0.953125 -5.8125 0.953125 -8.25 C 0.953125 -10.695312 1.757812 -12.710938 3.375 -14.296875 C 5 -15.890625 6.992188 -16.6875 9.359375 -16.6875 C 11.734375 -16.6875 13.726562 -15.890625 15.34375 -14.296875 C 16.957031 -12.710938 17.765625 -10.695312 17.765625 -8.25 C 17.765625 -5.8125 16.957031 -3.796875 15.34375 -2.203125 C 13.726562 -0.617188 11.734375 0.171875 9.359375 0.171875 C 6.992188 0.171875 5 -0.617188 3.375 -2.203125 Z M 3.375 -2.203125 "/></g></g></g><g fill="#000000" fill-opacity="1"><g transform="translate(488.267668, 263.000009)"><g><path d="M 1.796875 -16.515625 L 3.46875 -16.515625 L 3.46875 -1.296875 L 9.484375 -1.296875 L 9.484375 0 L 1.796875 0 Z M 1.796875 -16.515625 "/></g></g></g><g fill="#000000" fill-opacity="1"><g transform="translate(502.534197, 263.000009)"><g><path d="M 1.796875 -16.515625 L 3.46875 -16.515625 L 3.46875 -1.296875 L 9.484375 -1.296875 L 9.484375 0 L 1.796875 0 Z M 1.796875 -16.515625 "/></g></g></g><g fill="#000000" fill-opacity="1"><g transform="translate(516.800727, 263.000009)"><g><path d="M 13.453125 0 L 12.0625 -3.859375 L 4.359375 -3.859375 L 2.9375 0 L 1.265625 0 L 7.34375 -16.515625 L 9.078125 -16.515625 L 15.125 0 Z M 4.828125 -5.1875 L 11.5625 -5.1875 L 8.203125 -14.4375 Z M 4.828125 -5.1875 "/></g></g></g><g fill="#000000" fill-opacity="1"><g transform="translate(537.505049, 263.000009)"><g><path d="M 3.46875 -6.921875 L 3.46875 0 L 1.796875 0 L 1.796875 -16.515625 L 6.84375 -16.515625 C 8.695312 -16.515625 10.101562 -16.070312 11.0625 -15.1875 C 12.019531 -14.300781 12.5 -13.179688 12.5 -11.828125 C 12.5 -10.472656 12.125 -9.375 11.375 -8.53125 C 10.625 -7.695312 9.503906 -7.179688 8.015625 -6.984375 L 12.703125 0 L 10.53125 0 L 6.0625 -6.921875 Z M 3.46875 -15.15625 L 3.46875 -8.28125 L 6.84375 -8.28125 C 9.476562 -8.28125 10.796875 -9.425781 10.796875 -11.71875 C 10.796875 -14.007812 9.476562 -15.15625 6.84375 -15.15625 Z M 3.46875 -15.15625 "/></g></g></g></svg>